<svg xmlns="http://www.w3.org/2000/svg" width="15" height="16" fill="none" viewBox="0 0 15 16"><path fill="#fff" d="M9.086 1.5a1.5 1.5 0 0 1 1.06.44l2.414 2.414a1.5 1.5 0 0 1 .44 1.06V13a1.5 1.5 0 0 1-1.5 1.5h-8A1.5 1.5 0 0 1 2 13V3a1.5 1.5 0 0 1 1.5-1.5ZM3.5 2.5A.5.5 0 0 0 3 3v10a.5.5 0 0 0 .5.5h8a.5.5 0 0 0 .5-.5V5.414a.5.5 0 0 0-.146-.354L9.439 2.647a.5.5 0 0 0-.354-.146Zm7 8a.5.5 0 0 1 0 1h-6a.5.5 0 0 1 0-1Zm0-3a.5.5 0 0 1 0 1h-6a.5.5 0 0 1 0-1Zm-3-3a.5.5 0 0 1 0 1h-3a.5.5 0 0 1 0-1Z"/></svg>