<svg xmlns="http://www.w3.org/2000/svg" width="20" height="21" fill="none" viewBox="0 0 20 21"><path fill="#ff37c7" d="M10.053 2a2.686 2.686 0 0 0-2.684 2.692v.953h-.895c-.819-.033-2.074.503-2.545 1.822L2.895 7.44c-.494 0-.895.4-.895.897s.4.898.895.898h.895v.897h-.895a.896.896 0 0 0 0 1.794h.895v.897h-.895c-.494 0-.895.4-.895.898 0 .496.4.897.895.897h.895v.897h-.895c-.494 0-.895.4-.895.897 0 .496.4.897.895.897h.895A2.69 2.69 0 0 0 6.473 20h6.263a2.69 2.69 0 0 0 2.684-2.692v-.897l.895-.029A2.686 2.686 0 0 0 19 13.69v-9A2.686 2.686 0 0 0 16.316 2Zm6.263 1.794c.494 0 .895.401.895.897v8.972c0 .496-.401.897-.895.897l-.895.028V8.336a2.69 2.69 0 0 0-2.684-2.692H9.158V4.72c0-.496.4-.897.895-.897Z"/></svg>