<svg xmlns="http://www.w3.org/2000/svg" width="16" height="16" fill="none" viewBox="0 0 16 16"><path stroke="#a1a1a1" stroke-linecap="round" stroke-linejoin="round" stroke-width="1.333" d="M12.667 4.667v-2A.667.667 0 0 0 12 2H3.333a1.333 1.333 0 0 0 0 2.667h10a.667.667 0 0 1 .667.667V8m0-.001h-2a1.333 1.333 0 1 0 0 2.667h2a.667.667 0 0 0 .667-.667V8.667A.667.667 0 0 0 14 8"/><path stroke="#a1a1a1" stroke-linecap="round" stroke-linejoin="round" stroke-width="1.333" d="M2 3.333v9.333A1.334 1.334 0 0 0 3.333 14h10a.667.667 0 0 0 .667-.667v-2.667"/></svg>