<svg xmlns="http://www.w3.org/2000/svg" width="20" height="21" fill="none" viewBox="0 0 20 21"><path fill="#ff37c7" d="M4.8 1A3.8 3.8 0 0 0 1 4.8v7.6a3.8 3.8 0 0 0 3.8 3.8l.022-.007C5.026 18.296 6.84 20 9.016 20h2.434c3.374 0 8.55-5.176 8.55-8.55V9.016a4.21 4.21 0 0 0-3.795-4.192L16.2 4.8A3.8 3.8 0 0 0 12.4 1Zm0 1.9h7.6c1.05 0 1.9.85 1.9 1.9H9.016A4.22 4.22 0 0 0 4.8 9.016V14.3a1.9 1.9 0 0 1-1.9-1.9V4.8c0-1.05.85-1.9 1.9-1.9m9.916 9.5 3.193-.008c-.71 2.073-3.454 4.74-5.506 5.51l-.003-3.186a2.32 2.32 0 0 1 2.316-2.316"/></svg>