<svg xmlns="http://www.w3.org/2000/svg" width="20" height="21" fill="none" viewBox="0 0 20 21"><path stroke="#ff37c7" stroke-width="1.5" d="M16 10.05c1.696-.25 3-1.759 3-3.582 0-1.998-1.567-3.618-3.5-3.618h-11C2.567 2.85 1 4.47 1 6.468 1 8.291 2.304 9.8 4 10.05"/><path stroke="#ff37c7" stroke-linecap="round" stroke-linejoin="round" stroke-width="1.5" d="M10 5.55v6.3m0 0 1.8-2.1m-1.8 2.1-1.8-2.1"/><path stroke="#ff37c7" stroke-width="1.5" d="M3.7 9.15c0-1.697 0-2.546.527-3.073C4.755 5.55 5.603 5.55 7.3 5.55h5.4c1.697 0 2.546 0 3.073.527s.527 1.376.527 3.073v5.4c0 1.697 0 2.546-.527 3.073s-1.376.527-3.073.527H7.3c-1.697 0-2.545 0-3.073-.527S3.7 16.247 3.7 14.55Z"/><path stroke="#ff37c7" stroke-linecap="round" stroke-linejoin="round" stroke-width="1.5" d="M3.7 15.45h12.6"/></svg>