<svg xmlns="http://www.w3.org/2000/svg" width="15" height="15" fill="none" viewBox="0 0 15 15"><path fill="#9ca3af" d="M7.5.85a3.65 3.65 0 0 1 1.12 7.123c1.15.158 2.141.579 2.894 1.32.988.974 1.486 2.423 1.486 4.307a.5.5 0 0 1-1 0c0-1.716-.452-2.868-1.188-3.594C10.073 9.28 8.969 8.9 7.5 8.9s-2.573.379-3.312 1.106C3.452 10.732 3 11.884 3 13.6a.5.5 0 0 1-1 0c0-1.884.498-3.333 1.486-4.307.753-.741 1.743-1.162 2.894-1.32A3.65 3.65 0 0 1 7.5.85m0 1a2.651 2.651 0 1 0 .001 5.302A2.651 2.651 0 0 0 7.5 1.85"/></svg>