<svg xmlns="http://www.w3.org/2000/svg" width="20" height="21" fill="none" viewBox="0 0 20 21"><path fill="#ff37c7" d="M10.47 2c-.675.008-1.328.144-1.83.384-.868.416-5.696 2.833-5.696 2.833l6.434 3.217C9.966 8.727 11.034 8.728 11.622 8.433l6.492-3.187c.001 0-4.339-2.2-5.696-2.863-.574-.28-1.273-.391-1.947-.384M2 6.722v6.552c0 1.143.774 2.383 1.8 2.893L9.556 19V10.41a4 4 0 0 1-1.033-.325L2.53 7.106C2.181 6.932 2 6.722 2 6.722m17 0s-.181.21-.53.384l-5.992 2.98a4 4 0 0 1-1.033.325V19l5.755-2.833c1.026-.51 1.8-1.75 1.8-2.892Z"/></svg>