<svg xmlns="http://www.w3.org/2000/svg" width="16" height="16" fill="none" viewBox="0 0 16 16"><path stroke="#fafafa" stroke-linecap="round" stroke-linejoin="round" stroke-width="1.333" d="M10 14V8.667A.667.667 0 0 0 9.333 8H6.666A.667.667 0 0 0 6 8.667V14"/><path stroke="#fafafa" stroke-linecap="round" stroke-linejoin="round" stroke-width="1.333" d="M2 6.667a1.33 1.33 0 0 1 .473-1.019l4.666-4a1.33 1.33 0 0 1 1.721 0l4.667 4A1.33 1.33 0 0 1 14 6.667v6A1.333 1.333 0 0 1 12.667 14H3.334A1.333 1.333 0 0 1 2 12.667Z"/></svg>