<svg xmlns="http://www.w3.org/2000/svg" width="15" height="15" fill="none" viewBox="0 0 15 15"><path fill="#9ca3af" d="M1.5 5a.5.5 0 0 1 .5.5v8a.5.5 0 0 1-1 0v-8a.5.5 0 0 1 .5-.5m2 2a.5.5 0 0 1 .5.5v6a.5.5 0 0 1-1 0v-6a.5.5 0 0 1 .5-.5m2-3a.5.5 0 0 1 .5.5v9a.5.5 0 0 1-1 0v-9a.5.5 0 0 1 .5-.5m2 1a.5.5 0 0 1 .5.5v8a.5.5 0 0 1-1 0v-8a.5.5 0 0 1 .5-.5m2-2a.5.5 0 0 1 .5.5v10a.5.5 0 0 1-1 0v-10a.5.5 0 0 1 .5-.5m2-2a.5.5 0 0 1 .5.5v12a.5.5 0 0 1-1 0v-12a.5.5 0 0 1 .5-.5m2 2a.5.5 0 0 1 .5.5v10a.5.5 0 0 1-1 0v-10a.5.5 0 0 1 .5-.5"/></svg>