<svg xmlns="http://www.w3.org/2000/svg" width="21" height="21" fill="none" viewBox="0 0 21 21"><path fill="#9ca3af" d="M10.5 11.26c2.25 0 4.147.581 5.479 1.894C17.312 14.468 18 16.436 18 19.04a.5.5 0 0 1-1 0c0-2.435-.642-4.107-1.724-5.173-1.083-1.068-2.687-1.607-4.776-1.607s-3.693.539-4.776 1.607C4.642 14.933 4 16.605 4 19.04a.5.5 0 0 1-1 0c0-2.604.688-4.572 2.021-5.886C6.353 11.84 8.25 11.26 10.5 11.26m0-9.87A4.91 4.91 0 1 1 10.49945732598851 11.21 4.91 4.91 0 0 1 10.5 1.391m0 1A3.91 3.91 0 1 0 10.500452595925115 10.21 3.91 3.91 0 0 0 10.5 2.39"/></svg>