<svg xmlns="http://www.w3.org/2000/svg" width="20" height="22" fill="none" viewBox="0 0 20 22"><path fill="#ff37c7" d="M6.05 1.533c-.275-.042-.286-.047-.157-.067.247-.038.83.014 1.232.109.938.222 1.792.79 2.704 1.8l.242.268.347-.056c1.46-.233 2.944-.048 4.186.523.341.157.88.47.948.55.02.025.06.19.087.366.092.608.046 1.074-.141 1.422-.102.19-.107.25-.039.412a.4.4 0 0 0 .358.225c.308 0 .64-.497.794-1.187l.061-.274.122.136c.664.749 1.186 1.77 1.275 2.496l.024.19-.112-.172a2.1 2.1 0 0 0-.633-.66c-.445-.295-.916-.395-2.165-.46-1.127-.059-1.765-.155-2.397-.36-1.077-.349-1.62-.814-2.898-2.482C9.32 3.57 8.969 3.16 8.62 2.83c-.793-.75-1.573-1.143-2.57-1.297"/><path fill="#ff37c7" d="M15.806 3.187c.028-.496.096-.824.232-1.123.054-.118.104-.215.112-.215a.7.7 0 0 1-.052.194c-.1.29-.115.687-.047 1.15.086.586.136.67.758 1.303.293.297.632.672.756.833l.224.292-.224-.209c-.274-.256-.904-.754-1.044-.825-.093-.048-.107-.047-.164.01-.053.052-.064.131-.072.504-.011.581-.09.955-.283 1.328-.104.201-.12.158-.026-.07.07-.17.077-.244.076-.807 0-1.13-.136-1.402-.927-1.868-.2-.118-.53-.288-.734-.378a3 3 0 0 1-.359-.174c.023-.022.794.202 1.105.32.462.177.538.2.595.179.037-.014.055-.123.074-.444M6.581 5.121c-.556-.761-.9-1.929-.826-2.802l.023-.27.127.023c.238.043.648.195.84.311.526.318.754.737.986 1.813.068.315.158.671.199.792.066.194.315.648.518.943.146.212.05.313-.274.284-.493-.044-1.162-.503-1.593-1.094M15.131 10.79c-2.599-1.041-3.515-1.945-3.515-3.47 0-.224.008-.407.018-.407s.11.074.223.164c.527.42 1.118.6 2.751.837.962.14 1.503.253 2.002.417 1.586.524 2.568 1.585 2.802 3.032.068.42.028 1.208-.082 1.624-.087.328-.353.92-.423.942-.02.006-.04-.068-.044-.17-.027-.543-.303-1.072-.766-1.468-.527-.45-1.235-.809-2.966-1.502"/><path fill="#ff37c7" d="M13.307 11.222a5 5 0 0 0-.126-.547l-.066-.197.123.138c.17.19.305.434.42.758.086.247.096.321.096.723-.001.395-.012.478-.092.7-.127.352-.285.601-.55.869-.474.48-1.084.746-1.965.857-.153.019-.6.051-.992.072-.989.05-1.64.156-2.224.36a.5.5 0 0 1-.167.04c-.023-.023.375-.26.703-.417.464-.222.926-.343 1.96-.514.51-.085 1.038-.188 1.172-.229 1.265-.385 1.916-1.381 1.707-2.613M14.498 13.326c-.345-.738-.425-1.45-.236-2.116.02-.07.053-.129.073-.129s.1.044.18.097c.16.107.48.286 1.33.747 1.06.576 1.665 1.021 2.077 1.53.36.446.583.954.69 1.573.061.35.026 1.194-.065 1.548-.285 1.113-.948 1.988-1.894 2.498a3 3 0 0 1-.276.136c-.014 0 .037-.127.112-.283.318-.662.354-1.305.114-2.021-.148-.439-.448-.974-1.054-1.878-.705-1.051-.878-1.33-1.051-1.702"/><path fill="#ff37c7" d="M4.735 17.31c.965-.81 2.165-1.385 3.258-1.562.471-.076 1.256-.046 1.692.065.7.178 1.325.577 1.65 1.052.318.464.455.869.597 1.769.056.355.117.711.135.792.107.466.315.84.572 1.027.408.297 1.112.315 1.804.047a1 1 0 0 1 .227-.07c.024.025-.324.257-.57.379-.33.164-.594.228-.943.228-.634 0-1.16-.32-1.6-.975a8 8 0 0 1-.431-.856c-.463-1.052-.692-1.372-1.23-1.723-.469-.305-1.073-.36-1.527-.138-.597.291-.764 1.05-.336 1.53.17.192.487.357.746.389a.795.795 0 0 0 .901-.794c0-.316-.122-.496-.43-.634-.42-.188-.871.032-.869.424.001.167.074.272.243.348.108.05.11.053.023.035-.386-.08-.476-.542-.166-.849.372-.368 1.14-.205 1.405.297.11.211.124.632.027.886-.216.568-.848.867-1.488.704-.436-.11-.614-.23-1.14-.769-.913-.936-1.268-1.117-2.584-1.322l-.253-.039Z"/><path fill="#ff37c7" fill-rule="evenodd" d="M.45.56C3.5 4.242 5.6 5.762 5.833 6.083c.193.265.12.503-.21.69a2 2 0 0 1-.75.209c-.214 0-.287-.082-.287-.082-.124-.117-.194-.097-.83-1.22a194 194 0 0 0-1.644-2.515c-.047-.044-.046-.043 1.553 2.804.259.593.052.81.052.895 0 .172-.048.262-.26.499-.356.394-.515.837-.63 1.755-.128 1.027-.49 1.754-1.492 2.997-.586.727-.682.86-.83 1.154-.187.369-.238.576-.259 1.042-.022.493.021.812.172 1.283.133.412.271.685.625 1.23.306.47.481.82.481.957 0 .108.021.109.494.002 1.133-.254 2.052-.701 2.569-1.25.32-.339.395-.526.397-.99.002-.305-.009-.368-.091-.543-.135-.285-.38-.522-.92-.889-.707-.48-1.009-.868-1.092-1.4-.069-.437.01-.745.402-1.561.405-.844.505-1.204.573-2.055.044-.55.105-.767.264-.94.165-.182.314-.243.724-.3.668-.09 1.094-.262 1.444-.583.303-.278.43-.546.45-.949l.014-.306-.17-.196C5.97 5.108.039 0 0 0c-.008 0 .194.252.45.56m1.42 14.309a.54.54 0 0 0-.167-.713c-.22-.145-.56-.077-.56.113 0 .057.032.1.104.136.122.063.13.133.035.276-.097.145-.09.273.022.36.18.139.433.062.566-.172M7.175 8.016c-.314.096-.619.427-.713.774-.058.211-.025.582.061.697.14.185.274.234.64.231.714-.005 1.335-.31 1.407-.69.06-.313-.213-.746-.59-.936-.193-.098-.605-.137-.805-.076m.835.65c.11-.156.062-.324-.125-.438-.357-.217-.897-.037-.897.298 0 .167.282.349.54.349.171 0 .406-.102.482-.21" clip-rule="evenodd"/></svg>