<svg aria-hidden="true" style="position: absolute; width: 0; height: 0; overflow: hidden;" version="1.1"
    xmlns="http://www.w3.org/2000/svg"
    xmlns:xlink="http://www.w3.org/1999/xlink">
    <defs>
        <symbol id="icon-send" viewBox="0 0 32 32">
            <path fill="none" stroke="currentColor" style="stroke: var(--color1, currentColor)" stroke-linejoin="round" stroke-linecap="round" stroke-miterlimit="10" stroke-width="2" d="M27.333 29.333h-22.667"></path>
            <path fill="none" stroke="currentColor" style="stroke: var(--color1, currentColor)" stroke-linejoin="round" stroke-linecap="round" stroke-miterlimit="10" stroke-width="2" d="M25.333 4.667l-18.667 18.667"></path>
            <path fill="none" stroke="currentColor" style="stroke: var(--color1, currentColor)" stroke-linejoin="round" stroke-linecap="round" stroke-miterlimit="10" stroke-width="2" d="M25.333 18.36v-13.693h-13.693"></path>
        </symbol>
        <symbol id="icon-binance_logo" viewBox="0 0 127 32">
            <path fill="#f0b90b" style="fill: var(--color16, #f0b90b)" d="M19.244 22.4l-2.159 2.123-2.157-2.123 2.157-2.123 2.159 2.123zM24.478 17.245l3.696 3.64 2.157-2.123-5.853-5.762-5.853 5.762 2.157 2.123 3.696-3.64zM31.872 20.277l-2.157 2.123 2.157 2.123 2.155-2.123-2.155-2.123zM24.478 27.556l-3.696-3.639-2.157 2.121 5.853 5.762 5.853-5.762-2.157-2.121-3.696 3.639zM24.478 24.523l2.157-2.123-2.157-2.123-2.157 2.123 2.157 2.123zM47.24 24.727v-0.029c0-1.385-0.746-2.077-1.961-2.533 0.746-0.413 1.377-1.062 1.377-2.224v-0.029c0-1.62-1.317-2.667-3.457-2.667h-4.859v10.311h4.982c2.364 0 3.922-0.942 3.922-2.828h-0.004zM44.367 20.319c0 0.766-0.644 1.091-1.66 1.091h-2.121v-2.177h2.274c0.972 0 1.511 0.382 1.511 1.060l-0.004 0.026zM44.951 24.444c0 0.766-0.614 1.119-1.633 1.119h-2.733v-2.265h2.662c1.183 0 1.707 0.428 1.707 1.12l-0.004 0.026zM52.082 27.556v-10.311h-2.312v10.311h2.312zM64.469 27.556v-10.311h-2.282v6.349l-4.907-6.349h-2.125v10.311h2.274v-6.555l5.071 6.555h1.968zM77.233 27.556l-4.497-10.385h-2.125l-4.487 10.385h2.35l0.961-2.312h4.43l0.957 2.312h2.412zM73.044 23.239h-2.791l1.392-3.343 1.399 3.343zM88.217 27.556v-10.311h-2.282v6.349l-4.909-6.349h-2.123v10.311h2.273v-6.555l5.073 6.555h1.969zM100.111 25.892l-1.465-1.458c-0.823 0.735-1.556 1.207-2.754 1.207-1.794 0-3.038-1.469-3.038-3.24v-0.029c0-1.767 1.273-3.211 3.038-3.211 1.047 0 1.866 0.441 2.679 1.163l1.461-1.664c-0.972-0.942-2.153-1.591-4.129-1.591-3.217 0-5.461 2.401-5.461 5.326v0.029c0 2.961 2.289 5.303 5.372 5.303 2.017 0.006 3.213-0.702 4.289-1.835h0.007zM109.943 27.556v-2.020h-5.694v-2.169h4.938v-2.020h-4.938v-2.083h5.612v-2.020h-7.902v10.311l7.983 0.002z"></path>
        </symbol>
        <symbol id="icon-trust_wallet_logo" viewBox="0 0 123 32">
            <path fill="#3375bb" style="fill: var(--color14, #3375bb)" d="M45.61 19.398h-2.249v-1.305h6.125v1.305h-2.249v5.614h-1.626v-5.614zM51.026 20.397c0.187-0.257 0.438-0.451 0.753-0.583 0.321-0.132 0.689-0.198 1.104-0.198v1.424c-0.174-0.013-0.291-0.020-0.351-0.020-0.448 0-0.8 0.125-1.054 0.376-0.254 0.244-0.382 0.613-0.382 1.107v2.511h-1.566v-5.318h1.496v0.702zM58.694 19.695v5.318h-1.486v-0.633c-0.207 0.231-0.455 0.409-0.743 0.534-0.288 0.119-0.599 0.178-0.934 0.178-0.71 0-1.272-0.201-1.687-0.603s-0.623-0.998-0.623-1.789v-3.005h1.566v2.778c0 0.857 0.365 1.285 1.094 1.285 0.375 0 0.676-0.119 0.904-0.356 0.227-0.244 0.341-0.603 0.341-1.077v-2.629h1.567zM61.36 25.092c-0.449 0-0.887-0.053-1.315-0.158-0.428-0.112-0.77-0.25-1.025-0.415l0.522-1.107c0.241 0.152 0.532 0.277 0.873 0.375 0.341 0.092 0.676 0.139 1.004 0.139 0.663 0 0.994-0.161 0.994-0.484 0-0.152-0.090-0.26-0.271-0.326s-0.459-0.122-0.834-0.168c-0.441-0.066-0.807-0.142-1.095-0.227s-0.539-0.237-0.753-0.455c-0.208-0.218-0.311-0.527-0.311-0.929 0-0.336 0.097-0.632 0.291-0.89 0.201-0.264 0.488-0.468 0.863-0.613 0.382-0.145 0.83-0.218 1.345-0.218 0.382 0 0.76 0.043 1.135 0.129 0.382 0.079 0.696 0.191 0.944 0.336l-0.522 1.097c-0.475-0.263-0.994-0.395-1.557-0.395-0.334 0-0.585 0.046-0.753 0.138s-0.251 0.211-0.251 0.356c0 0.165 0.091 0.28 0.271 0.346 0.181 0.066 0.469 0.128 0.864 0.188 0.441 0.072 0.803 0.151 1.084 0.237 0.281 0.079 0.525 0.227 0.732 0.445s0.312 0.521 0.312 0.909c0 0.329-0.1 0.623-0.301 0.88s-0.496 0.458-0.884 0.603c-0.382 0.139-0.837 0.208-1.366 0.208zM67.759 24.756c-0.154 0.112-0.345 0.198-0.572 0.257-0.221 0.053-0.455 0.079-0.703 0.079-0.643 0-1.141-0.162-1.496-0.484-0.348-0.323-0.522-0.797-0.522-1.423v-2.184h-0.833v-1.186h0.833v-1.295h1.566v1.295h1.346v1.186h-1.346v2.165c0 0.224 0.057 0.399 0.171 0.524 0.121 0.119 0.288 0.178 0.503 0.178 0.247 0 0.458-0.066 0.632-0.198l0.422 1.087zM81.010 18.093l-2.299 6.919h-1.748l-1.546-4.685-1.596 4.685h-1.737l-2.309-6.919h1.687l1.586 4.863 1.657-4.863h1.506l1.607 4.903 1.636-4.903h1.557zM82.982 19.616c0.837 0 1.48 0.198 1.928 0.593 0.448 0.389 0.673 0.978 0.673 1.769v3.035h-1.466v-0.662c-0.295 0.494-0.843 0.741-1.647 0.741-0.415 0-0.776-0.069-1.084-0.208-0.301-0.138-0.532-0.329-0.693-0.573s-0.241-0.521-0.241-0.83c0-0.494 0.187-0.883 0.562-1.166 0.381-0.283 0.967-0.425 1.757-0.425h1.245c0-0.336-0.104-0.593-0.312-0.771-0.207-0.185-0.519-0.277-0.933-0.277-0.288 0-0.572 0.046-0.854 0.139-0.274 0.086-0.508 0.204-0.703 0.356l-0.562-1.077c0.295-0.204 0.646-0.362 1.054-0.474 0.415-0.112 0.84-0.168 1.275-0.168zM82.862 24.054c0.268 0 0.505-0.059 0.713-0.178 0.207-0.125 0.355-0.306 0.442-0.544v-0.544h-1.074c-0.643 0-0.964 0.208-0.964 0.623 0 0.198 0.077 0.356 0.231 0.474 0.161 0.112 0.378 0.168 0.652 0.168zM86.398 17.679h1.567v7.334h-1.567v-7.334zM88.815 17.679h1.567v7.334h-1.567v-7.334zM96.524 22.373c0 0.020-0.009 0.158-0.030 0.415h-4.087c0.073 0.329 0.247 0.59 0.521 0.781s0.616 0.287 1.025 0.287c0.281 0 0.529-0.040 0.743-0.119 0.22-0.086 0.425-0.217 0.612-0.395l0.834 0.89c-0.509 0.573-1.252 0.86-2.229 0.86-0.609 0-1.148-0.115-1.617-0.346-0.469-0.237-0.83-0.563-1.084-0.979s-0.382-0.886-0.382-1.413c0-0.521 0.124-0.988 0.372-1.404 0.255-0.422 0.599-0.748 1.034-0.978 0.442-0.237 0.934-0.356 1.476-0.356 0.529 0 1.007 0.112 1.436 0.336s0.763 0.547 1.004 0.969c0.248 0.415 0.372 0.9 0.372 1.453zM93.723 20.782c-0.355 0-0.652 0.099-0.894 0.297s-0.388 0.468-0.442 0.811h2.661c-0.054-0.336-0.201-0.603-0.442-0.801-0.241-0.204-0.536-0.306-0.884-0.306zM100.449 24.756c-0.154 0.112-0.345 0.198-0.572 0.257-0.22 0.053-0.455 0.079-0.703 0.079-0.642 0-1.141-0.162-1.496-0.484-0.348-0.323-0.522-0.797-0.522-1.423v-2.184h-0.834v-1.186h0.834v-1.295h1.566v1.295h1.345v1.186h-1.345v2.165c0 0.224 0.057 0.399 0.171 0.524 0.12 0.119 0.287 0.178 0.502 0.178 0.248 0 0.459-0.066 0.633-0.198l0.421 1.087z"></path>
            <path fill="#fff" style="fill: var(--color15, #fff)" d="M31.91 11.312h-6.806c-3.842 0-6.956 3.066-6.956 6.848v6.699c0 3.782 3.114 6.848 6.956 6.848h6.806c3.842 0 6.956-3.066 6.956-6.848v-6.699c0-3.782-3.114-6.848-6.956-6.848z"></path>
            <path fill="#fff" style="fill: var(--color15, #fff)" d="M18.94 21.656c0-5.234 4.31-9.477 9.627-9.477s9.627 4.243 9.627 9.477c0 5.234-4.31 9.477-9.627 9.477s-9.627-4.243-9.627-9.477z"></path>
            <path fill="none" stroke="#3375bb" style="stroke: var(--color14, #3375bb)" stroke-linejoin="round" stroke-linecap="round" stroke-miterlimit="10" stroke-width="1.316" d="M28.572 15.993c1.943 1.597 4.171 1.499 4.807 1.499-0.139 9.083-1.2 7.282-4.807 9.829-3.607-2.547-4.661-0.746-4.8-9.829 0.63 0 2.858 0.099 4.8-1.499z"></path>
        </symbol>
        <symbol id="icon-metamask_logo" viewBox="0 0 128 32">
            <path fill="#8f9ca9" style="fill: var(--color4, #8f9ca9)" d="M101.036 22.778c-0.522-0.35-1.090-0.584-1.66-0.887-0.356-0.187-0.735-0.373-1.044-0.63-0.521-0.42-0.426-1.261 0.143-1.634 0.782-0.514 2.087-0.233 2.229 0.817 0 0.023 0.023 0.047 0.047 0.047h1.186c0.023 0 0.047-0.023 0.047-0.047-0.071-0.724-0.356-1.331-0.878-1.727-0.498-0.373-1.067-0.56-1.684-0.56-3.13 0-3.415 3.268-1.731 4.295 0.19 0.117 1.85 0.934 2.442 1.307 0.593 0.35 0.759 1.004 0.522 1.517-0.238 0.467-0.83 0.794-1.423 0.747-0.664-0.047-1.162-0.397-1.352-0.934-0.023-0.093-0.047-0.28-0.047-0.373 0-0.023-0.023-0.047-0.047-0.047h-1.281c-0.023 0-0.047 0.023-0.047 0.047 0 0.91 0.237 1.424 0.854 1.891 0.593 0.444 1.233 0.63 1.921 0.63 1.754 0 2.655-0.98 2.846-1.984 0.142-0.98-0.142-1.867-1.044-2.474z"></path>
            <path fill="#8f9ca9" style="fill: var(--color4, #8f9ca9)" d="M45.144 18.342h-1.186c-0.024 0-0.047 0.023-0.047 0.023l-1.067 3.432c-0.024 0.047-0.071 0.047-0.095 0l-1.067-3.432c0-0.023-0.024-0.023-0.047-0.023h-1.944c-0.024 0-0.047 0.023-0.047 0.047v8.754c0 0.023 0.024 0.047 0.047 0.047h1.281c0.024 0 0.047-0.023 0.047-0.047v-6.653c0-0.047 0.071-0.070 0.095-0.023l1.067 3.455 0.071 0.233c0 0.023 0.024 0.023 0.047 0.023h0.996c0.024 0 0.047-0.023 0.047-0.023l0.071-0.233 1.067-3.455c0.024-0.047 0.095-0.047 0.095 0.023v6.653c0 0.023 0.024 0.047 0.047 0.047h1.28c0.024 0 0.047-0.023 0.047-0.047v-8.754c0-0.023-0.024-0.047-0.047-0.047h-0.759z"></path>
            <path fill="#8f9ca9" style="fill: var(--color4, #8f9ca9)" d="M81.33 18.342c-0.024 0-0.047 0.023-0.047 0.023l-1.067 3.432c-0.024 0.047-0.071 0.047-0.095 0l-1.067-3.432c0-0.023-0.024-0.023-0.047-0.023h-1.969c-0.023 0-0.047 0.023-0.047 0.047v8.754c0 0.023 0.024 0.047 0.047 0.047h1.281c0.024 0 0.047-0.023 0.047-0.047v-6.653c0-0.047 0.071-0.070 0.095-0.023l1.067 3.455 0.071 0.233c0 0.023 0.023 0.023 0.047 0.023h0.996c0.024 0 0.047-0.023 0.047-0.023l0.071-0.233 1.067-3.455c0.024-0.047 0.095-0.047 0.095 0.023v6.653c0 0.023 0.024 0.047 0.047 0.047h1.281c0.024 0 0.047-0.023 0.047-0.047v-8.754c0-0.023-0.023-0.047-0.047-0.047h-1.921z"></path>
            <path fill="#8f9ca9" style="fill: var(--color4, #8f9ca9)" d="M64.731 18.342h-6.094c-0.024 0-0.047 0.023-0.047 0.047v1.097c0 0.023 0.024 0.047 0.047 0.047h2.348v7.61c0 0.023 0.024 0.047 0.047 0.047h1.28c0.024 0 0.048-0.023 0.048-0.047v-7.61h2.347c0.024 0 0.047-0.023 0.047-0.047v-1.097c0.024-0.023 0-0.047-0.023-0.047z"></path>
            <path fill="#8f9ca9" style="fill: var(--color4, #8f9ca9)" d="M72.319 27.189h1.162c0.023 0 0.047-0.023 0.047-0.070l-2.418-8.777c0-0.023-0.024-0.023-0.048-0.023h-1.684c-0.023 0-0.047 0.023-0.047 0.023l-2.418 8.777c0 0.023 0.023 0.070 0.047 0.070h1.162c0.024 0 0.047-0.023 0.047-0.023l0.711-2.568c0-0.023 0.024-0.023 0.047-0.023h2.585c0.023 0 0.047 0.023 0.047 0.023l0.711 2.568c0 0 0.023 0.023 0.047 0.023zM69.236 23.314l0.949-3.431c0.023-0.047 0.071-0.047 0.095 0l0.948 3.431c0 0.023-0.023 0.070-0.047 0.070h-1.873c-0.047 0-0.071-0.047-0.071-0.070z"></path>
            <path fill="#8f9ca9" style="fill: var(--color4, #8f9ca9)" d="M92.286 27.189h1.162c0.024 0 0.047-0.023 0.047-0.070l-2.418-8.777c0-0.023-0.024-0.023-0.048-0.023h-1.683c-0.024 0-0.048 0.023-0.048 0.023l-2.418 8.777c0 0.023 0.023 0.070 0.047 0.070h1.162c0.024 0 0.047-0.023 0.047-0.023l0.711-2.568c0-0.023 0.024-0.023 0.047-0.023h2.585c0.023 0 0.047 0.023 0.047 0.023l0.711 2.568c0 0 0.023 0.023 0.047 0.023zM89.203 23.314l0.949-3.431c0.023-0.047 0.071-0.047 0.095 0l0.948 3.431c0 0.023-0.023 0.070-0.047 0.070h-1.873c-0.047 0-0.071-0.047-0.071-0.070z"></path>
            <path fill="#8f9ca9" style="fill: var(--color4, #8f9ca9)" d="M51.167 25.882v-2.708c0-0.023 0.024-0.047 0.047-0.047h3.438c0.024 0 0.047-0.023 0.047-0.047v-1.097c0-0.023-0.024-0.047-0.047-0.047h-3.438c-0.024 0-0.047-0.023-0.047-0.047v-2.311c0-0.023 0.024-0.047 0.047-0.047h3.889c0.024 0 0.047-0.023 0.047-0.047v-1.097c0-0.023-0.024-0.047-0.047-0.047h-5.264c-0.024 0-0.047 0.023-0.047 0.047v8.754c0 0.023 0.024 0.047 0.047 0.047h5.43c0.024 0 0.047-0.023 0.047-0.047v-1.144c0-0.023-0.024-0.047-0.047-0.047h-4.079c0-0.023-0.024-0.047-0.024-0.070z"></path>
            <path fill="#8f9ca9" style="fill: var(--color4, #8f9ca9)" d="M112.798 27.096l-4.458-4.529c-0.024-0.023-0.024-0.047 0-0.070l4.007-4.109c0.023-0.023 0-0.070-0.024-0.070h-1.636c-0.024 0-0.024 0-0.024 0.023l-3.415 3.502c-0.024 0.023-0.071 0-0.071-0.023v-3.408c0-0.023-0.023-0.047-0.047-0.047h-1.304c-0.024 0-0.047 0.023-0.047 0.047v8.754c0 0.023 0.023 0.047 0.047 0.047h1.281c0.023 0 0.047-0.023 0.047-0.047v-3.852c0-0.047 0.047-0.070 0.071-0.023l3.866 3.945h1.636c0.071-0.047 0.095-0.117 0.071-0.14z"></path>
            <path fill="#e17726" style="fill: var(--color5, #e17726)" d="M30.844 13.627l-7.778 5.696 1.447-3.361 6.331-2.334z"></path>
            <path fill="#e27625" style="fill: var(--color6, #e27625)" d="M12.869 13.627l7.731 5.743-1.375-3.408-6.355-2.334z"></path>
            <path fill="#e27625" style="fill: var(--color6, #e27625)" d="M28.046 26.816l-2.087 3.128 4.458 1.214 1.257-4.272-3.628-0.070z"></path>
            <path fill="#e27625" style="fill: var(--color6, #e27625)" d="M12.063 26.886l1.257 4.272 4.434-1.214-2.063-3.128-3.628 0.070z"></path>
            <path fill="#e27625" style="fill: var(--color6, #e27625)" d="M17.517 21.54l-1.233 1.844 4.387 0.187-0.142-4.669-3.012 2.638z"></path>
            <path fill="#e27625" style="fill: var(--color6, #e27625)" d="M26.22 21.54l-3.059-2.685-0.095 4.715 4.387-0.187-1.233-1.844z"></path>
            <path fill="#e27625" style="fill: var(--color6, #e27625)" d="M17.755 29.944l2.656-1.261-2.3-1.774-0.356 3.035z"></path>
            <path fill="#e27625" style="fill: var(--color6, #e27625)" d="M23.327 28.683l2.632 1.261-0.356-3.035-2.277 1.774z"></path>
            <path fill="#d5bfb2" style="fill: var(--color7, #d5bfb2)" d="M25.959 29.944l-2.632-1.261 0.213 1.681-0.024 0.724 2.443-1.144z"></path>
            <path fill="#d5bfb2" style="fill: var(--color7, #d5bfb2)" d="M17.755 29.944l2.466 1.144-0.024-0.724 0.213-1.681-2.656 1.261z"></path>
            <path fill="#233447" style="fill: var(--color8, #233447)" d="M20.268 25.789l-2.205-0.63 1.541-0.7 0.664 1.331z"></path>
            <path fill="#233447" style="fill: var(--color8, #233447)" d="M23.469 25.789l0.64-1.331 1.565 0.7-2.205 0.63z"></path>
            <path fill="#cc6228" style="fill: var(--color9, #cc6228)" d="M17.754 29.944l0.379-3.128-2.442 0.070 2.063 3.058z"></path>
            <path fill="#cc6228" style="fill: var(--color9, #cc6228)" d="M25.604 26.816l0.356 3.128 2.087-3.058-2.442-0.070z"></path>
            <path fill="#cc6228" style="fill: var(--color9, #cc6228)" d="M27.453 23.384l-4.387 0.187 0.403 2.218 0.64-1.331 1.565 0.7 1.779-1.774z"></path>
            <path fill="#cc6228" style="fill: var(--color9, #cc6228)" d="M18.063 25.158l1.541-0.7 0.664 1.331 0.403-2.218-4.387-0.187 1.779 1.774z"></path>
            <path fill="#e27525" style="fill: var(--color10, #e27525)" d="M16.284 23.384l1.826 3.525-0.047-1.751-1.778-1.774z"></path>
            <path fill="#e27525" style="fill: var(--color10, #e27525)" d="M25.675 25.159l-0.071 1.751 1.85-3.525-1.778 1.774z"></path>
            <path fill="#e27525" style="fill: var(--color10, #e27525)" d="M20.671 23.571l-0.403 2.218 0.498 2.638 0.119-3.478-0.213-1.377z"></path>
            <path fill="#e27525" style="fill: var(--color10, #e27525)" d="M23.066 23.571l-0.213 1.377 0.095 3.478 0.522-2.638-0.403-2.218z"></path>
            <path fill="#f5841f" style="fill: var(--color11, #f5841f)" d="M23.47 25.789l-0.522 2.638 0.379 0.257 2.276-1.774 0.071-1.751-2.205 0.63z"></path>
            <path fill="#f5841f" style="fill: var(--color11, #f5841f)" d="M18.063 25.159l0.047 1.751 2.3 1.774 0.356-0.257-0.498-2.638-2.205-0.63z"></path>
            <path fill="#c0ac9d" style="fill: var(--color12, #c0ac9d)" d="M23.517 31.088l0.024-0.724-0.213-0.163h-2.94l-0.19 0.163 0.024 0.724-2.466-1.144 0.854 0.7 1.755 1.19h2.988l1.755-1.19 0.854-0.7-2.443 1.144z"></path>
            <path fill="#8f9ca9" style="fill: var(--color4, #8f9ca9)" d="M23.327 28.683l-0.379-0.257h-2.182l-0.356 0.257-0.213 1.681 0.19-0.163h2.941l0.213 0.163-0.213-1.681z"></path>
            <path fill="#763e1a" style="fill: var(--color13, #763e1a)" d="M31.176 19.696l0.664-3.151-0.996-2.918-7.517 5.509 2.893 2.404 4.079 1.167 0.901-1.027-0.379-0.28 0.617-0.56-0.474-0.374 0.617-0.467-0.403-0.303z"></path>
            <path fill="#763e1a" style="fill: var(--color13, #763e1a)" d="M11.897 16.545l0.664 3.151-0.427 0.303 0.617 0.467-0.474 0.374 0.64 0.56-0.403 0.28 0.901 1.027 4.102-1.167 2.893-2.404-7.541-5.509-0.972 2.918z"></path>
            <path fill="#f5841f" style="fill: var(--color11, #f5841f)" d="M30.299 22.707l-4.079-1.167 1.233 1.844-1.85 3.525 2.442-0.023h3.628l-1.375-4.179z"></path>
            <path fill="#f5841f" style="fill: var(--color11, #f5841f)" d="M17.517 21.54l-4.102 1.167-1.352 4.179h3.628l2.419 0.023-1.826-3.525 1.233-1.844z"></path>
            <path fill="#f5841f" style="fill: var(--color11, #f5841f)" d="M23.066 23.571l0.261-4.435 1.186-3.175h-5.288l1.186 3.175 0.261 4.435 0.095 1.401v3.455h2.182v-3.455l0.119-1.401z"></path>
        </symbol>
        <symbol id="icon-coinbase_logo" viewBox="0 0 133 32">
            <path fill="#0052ff" style="fill: var(--color3, #0052ff)" d="M42.397 19.519c-3.474 0-6.189 2.596-6.189 6.072s2.646 6.050 6.189 6.050c3.543 0 6.235-2.619 6.235-6.072 0-3.431-2.646-6.050-6.235-6.050zM42.419 29.136c-1.979 0-3.429-1.513-3.429-3.544 0-2.055 1.426-3.567 3.405-3.567 2.002 0 3.451 1.535 3.451 3.567s-1.449 3.544-3.428 3.544zM49.391 22.16h1.726v9.256h2.761v-11.671h-4.487v2.415zM29.259 22.025c1.45 0 2.6 0.88 3.037 2.19h2.922c-0.53-2.799-2.876-4.695-5.936-4.695-3.474 0-6.189 2.596-6.189 6.072s2.646 6.050 6.189 6.050c2.991 0 5.384-1.896 5.913-4.719h-2.899c-0.414 1.309-1.564 2.213-3.014 2.213-2.002 0-3.405-1.513-3.405-3.544-0.001-2.054 1.38-3.567 3.382-3.567zM101.849 24.463l-2.024-0.293c-0.966-0.135-1.657-0.451-1.657-1.197 0-0.813 0.898-1.219 2.117-1.219 1.334 0 2.186 0.564 2.37 1.49h2.669c-0.3-2.348-2.14-3.725-4.97-3.725-2.922 0-4.855 1.467-4.855 3.544 0 1.986 1.266 3.138 3.82 3.499l2.024 0.293c0.99 0.135 1.542 0.52 1.542 1.242 0 0.926-0.966 1.309-2.3 1.309-1.634 0-2.554-0.655-2.692-1.648h-2.715c0.253 2.28 2.070 3.883 5.384 3.883 3.014 0 5.016-1.355 5.016-3.68 0-2.077-1.45-3.161-3.727-3.499zM52.497 14.936c-1.012 0-1.772 0.722-1.772 1.715s0.759 1.715 1.772 1.715c1.012 0 1.772-0.722 1.772-1.715s-0.76-1.715-1.772-1.715zM93.014 23.74c0-2.528-1.565-4.221-4.877-4.221-3.129 0-4.877 1.558-5.223 3.951h2.738c0.138-0.926 0.874-1.693 2.439-1.693 1.404 0 2.094 0.609 2.094 1.355 0 0.971-1.266 1.219-2.831 1.377-2.116 0.226-4.739 0.948-4.739 3.657 0 2.1 1.588 3.454 4.118 3.454 1.979 0 3.221-0.813 3.843-2.1 0.092 1.151 0.966 1.896 2.186 1.896h1.611v-2.415h-1.358v-5.26h-0.001zM90.298 26.675c0 1.558-1.38 2.709-3.060 2.709-1.036 0-1.91-0.429-1.91-1.332 0-1.151 1.404-1.467 2.692-1.602 1.242-0.113 1.933-0.384 2.278-0.903v1.128zM75.642 19.519c-1.542 0-2.83 0.632-3.75 1.693v-6.389h-2.761v16.593h2.715v-1.535c0.92 1.106 2.232 1.761 3.796 1.761 3.313 0 5.821-2.573 5.821-6.050s-2.553-6.073-5.821-6.073zM75.228 29.136c-1.978 0-3.428-1.513-3.428-3.544s1.473-3.567 3.452-3.567c2.002 0 3.405 1.513 3.405 3.567 0.001 2.032-1.449 3.544-3.428 3.544zM62.528 19.519c-1.795 0-2.968 0.722-3.659 1.738v-1.513h-2.738v11.671h2.761v-6.343c0-1.784 1.15-3.048 2.853-3.048 1.588 0 2.577 1.106 2.577 2.709v6.683h2.761v-6.885c0.001-2.936-1.54-5.013-4.554-5.013zM118.736 25.208c0-3.341-2.484-5.689-5.821-5.689-3.543 0-6.143 2.619-6.143 6.072 0 3.635 2.784 6.050 6.189 6.050 2.876 0 5.131-1.671 5.706-4.041h-2.876c-0.414 1.038-1.427 1.626-2.785 1.626-1.772 0-3.107-1.084-3.405-2.98h9.134v-1.038h0.001zM109.763 24.305c0.438-1.626 1.68-2.415 3.107-2.415 1.565 0 2.761 0.88 3.037 2.415h-6.143z"></path>
        </symbol>
        <symbol id="icon-tokocrypto_logo" viewBox="0 0 116 32">
            <path fill="#007ea4" style="fill: var(--color1, #007ea4)" d="M24.022 22.11h-1.056c-0.634 0 1.525 2.98 3.086 3.315 0.352 0.069 0.528 0.243 0.528 0.577v2.183c-0.012 0.416-0.258 0.612-0.669 0.554-2.98-0.485-5.151-2.056-6.5-4.724-0.199-0.381-0.352-0.774-0.469-1.19-0.223-0.681-0.246-0.716-0.986-0.739-0.915-0.023-1.514-0.485-1.713-1.305-0.223-0.924 0.516-1.894 1.502-1.952 0.141-0.012 0.27-0.012 0.411 0 0.422 0.035 0.645-0.196 0.751-0.566 0.258-0.924 0.669-1.802 1.22-2.587 0.458-0.658 0.692-0.681 1.267-0.139 0.434 0.416 0.856 0.855 1.291 1.27 0.282 0.266 0.352 0.554 0.106 0.878-0.129 0.173-0.235 0.358-0.328 0.554-0.199 0.404-0.094 0.577 0.364 0.577 0.798 0.012 1.584 0 2.393 0 0.845 0.012 1.467 0.52 1.666 1.351 0.153 0.67-0.223 1.49-0.95 1.756-0.422 0.162-0.927 0.139-1.396 0.173-0.164 0.023-0.34 0.012-0.516 0.012z"></path>
            <path fill="#1aa64a" style="fill: var(--color2, #1aa64a)" d="M27.542 12.12c2.757 0.115 5.186 1.455 6.852 4.077 0.575 0.912 0.411 1.756-0.411 2.252-0.88 0.554-1.865 0.323-2.417-0.554-0.833-1.328-2.006-2.171-3.567-2.46-1.244-0.219-2.534 0.012-3.614 0.67-0.493 0.3-0.645 0.266-1.056-0.139l-1.314-1.294c-0.375-0.393-0.364-0.658 0.082-0.982 1.396-1.005 3.309-1.605 5.444-1.571zM27.659 27.088v-1.109c-0.023-0.254 0.153-0.474 0.411-0.508 1.572-0.323 2.734-1.19 3.555-2.529 0.364-0.601 0.939-0.832 1.619-0.728 0.622 0.092 1.103 0.404 1.373 0.982 0.176 0.381 0.153 0.82-0.047 1.19-1.255 2.345-3.567 3.95-6.23 4.331-0.458 0.058-0.669-0.104-0.68-0.554-0.012-0.346 0-0.704 0-1.074z"></path>
            <path fill="#007ea4" style="fill: var(--color1, #007ea4)" d="M40.612 17.098v7.473h-1.443v-7.473h-2.346v-1.19h6.113v1.19h-2.323z"></path>
            <path fill="#007ea4" style="fill: var(--color1, #007ea4)" d="M42.935 21.775c-0.012-0.404 0.070-0.797 0.246-1.155 0.153-0.37 0.387-0.693 0.68-0.97s0.634-0.497 1.009-0.635c0.774-0.3 1.631-0.3 2.405 0 0.387 0.15 0.727 0.381 1.009 0.67 0.293 0.277 0.528 0.612 0.68 0.982 0.317 0.739 0.329 1.571 0.012 2.31-0.153 0.37-0.387 0.693-0.68 0.97-0.598 0.577-1.408 0.901-2.253 0.889-0.411 0-0.81-0.069-1.197-0.219-0.375-0.15-0.727-0.37-1.009-0.658-0.293-0.277-0.516-0.612-0.68-0.982-0.141-0.381-0.211-0.785-0.223-1.201zM47.851 21.798c0.012-0.497-0.164-0.97-0.516-1.328-0.317-0.346-0.774-0.543-1.255-0.531-0.481 0-0.927 0.196-1.255 0.531-0.692 0.751-0.692 1.894 0 2.645 0.645 0.681 1.736 0.716 2.429 0.081 0.023-0.023 0.059-0.046 0.082-0.081 0.352-0.358 0.528-0.832 0.516-1.317z"></path>
            <path fill="#007ea4" style="fill: var(--color1, #007ea4)" d="M50.62 24.593v-9.182h1.302v5.89l2.393-2.333h1.607l-2.581 2.472 2.839 3.142h-1.701l-2.569-2.899v2.899h-1.302v0.012h0.012z"></path>
            <path fill="#007ea4" style="fill: var(--color1, #007ea4)" d="M56.31 21.775c-0.012-0.404 0.071-0.797 0.246-1.155 0.153-0.37 0.387-0.693 0.68-0.97s0.634-0.497 1.009-0.635c0.774-0.3 1.63-0.3 2.405 0 0.387 0.15 0.727 0.381 1.009 0.67 0.293 0.277 0.528 0.612 0.68 0.982 0.317 0.739 0.328 1.571 0.012 2.31-0.153 0.37-0.387 0.693-0.68 0.97-0.598 0.577-1.408 0.901-2.253 0.889-0.41 0-0.81-0.069-1.196-0.219-0.376-0.15-0.728-0.37-1.009-0.658-0.293-0.277-0.516-0.612-0.68-0.982-0.14-0.381-0.223-0.785-0.223-1.201zM61.214 21.798c0.012-0.497-0.164-0.97-0.517-1.328-0.317-0.346-0.774-0.543-1.255-0.531-0.481 0-0.927 0.196-1.255 0.531-0.68 0.751-0.68 1.894 0 2.645 0.645 0.681 1.736 0.716 2.429 0.081 0.024-0.023 0.059-0.046 0.082-0.081 0.352-0.358 0.54-0.832 0.517-1.317z"></path>
            <path fill="#1aa64a" style="fill: var(--color2, #1aa64a)" d="M68.242 20.574c-0.188-0.219-0.422-0.381-0.692-0.485-0.27-0.116-0.563-0.185-0.857-0.173-0.528 0-0.973 0.162-1.29 0.508s-0.481 0.785-0.481 1.351c0 0.566 0.164 1.040 0.481 1.386s0.774 0.508 1.349 0.508c0.293 0.012 0.587-0.058 0.845-0.173 0.258-0.127 0.481-0.312 0.645-0.531v1.49c-0.246 0.139-0.505 0.231-0.774 0.3-0.282 0.069-0.587 0.104-0.88 0.104-0.891 0-1.619-0.289-2.194-0.843s-0.833-1.294-0.833-2.194c0-0.901 0.293-1.64 0.88-2.183s1.349-0.832 2.288-0.832c0.282 0 0.551 0.023 0.821 0.092 0.246 0.058 0.481 0.15 0.692 0.266v1.409zM70.882 19.858c0.106-0.323 0.294-0.601 0.563-0.82 0.246-0.185 0.552-0.277 0.857-0.266 0.188 0 0.364 0.023 0.54 0.058 0.188 0.046 0.364 0.115 0.528 0.196l-0.469 1.086c-0.106-0.081-0.235-0.139-0.364-0.173-0.141-0.046-0.294-0.069-0.434-0.058-0.435 0-0.739 0.162-0.939 0.508s-0.294 0.924-0.294 1.732v2.472h-1.302v-5.625h1.302v0.889h0.012z"></path>
            <path fill="#1aa64a" style="fill: var(--color2, #1aa64a)" d="M75.106 27.226h-1.35l1.573-3.13-2.1-5.14h1.455l1.044 2.899 0.165 0.531c0.047 0.185 0.082 0.37 0.106 0.566 0.106-0.323 0.223-0.635 0.376-0.936l0.035-0.069 1.407-2.991h1.42l-4.13 8.27zM79.928 27.226v-8.258h1.302v0.924c0.141-0.346 0.399-0.635 0.728-0.82 0.363-0.208 0.774-0.3 1.196-0.3 0.716-0.023 1.396 0.289 1.842 0.832 0.469 0.554 0.704 1.282 0.704 2.171 0 0.936-0.223 1.686-0.692 2.229s-1.103 0.808-1.9 0.808c-0.763 0.035-1.479-0.335-1.889-0.959v3.372h-1.291zM81.195 21.763c0 0.577 0.153 1.040 0.434 1.398 0.282 0.335 0.716 0.531 1.162 0.52 0.493 0 0.88-0.162 1.15-0.485s0.411-0.785 0.411-1.386-0.141-1.051-0.422-1.386c-0.294-0.335-0.716-0.52-1.162-0.508-0.493 0-0.88 0.162-1.15 0.497s-0.423 0.774-0.423 1.351zM87.413 24.593v-4.493h-0.997v-1.132h0.997v-2.125h1.302v2.125h0.998v1.132h-0.998v4.493h-1.302zM90.428 21.775c-0.011-0.404 0.083-0.797 0.246-1.155 0.317-0.739 0.927-1.317 1.678-1.605 0.774-0.3 1.631-0.3 2.405 0 0.387 0.15 0.728 0.381 1.009 0.67 0.294 0.277 0.528 0.612 0.68 0.982 0.317 0.739 0.329 1.571 0.012 2.31-0.152 0.37-0.387 0.693-0.68 0.97-0.598 0.577-1.408 0.889-2.252 0.889-0.411 0-0.81-0.069-1.197-0.219-0.376-0.15-0.728-0.37-1.009-0.658-0.294-0.277-0.516-0.612-0.68-0.982-0.141-0.393-0.223-0.797-0.212-1.201zM95.344 21.798c0.012-0.497-0.176-0.97-0.528-1.328-0.317-0.346-0.775-0.543-1.256-0.531-0.481 0-0.927 0.196-1.255 0.531-0.68 0.751-0.68 1.894 0 2.645 0.646 0.681 1.736 0.716 2.429 0.081 0.024-0.023 0.059-0.046 0.083-0.081 0.34-0.358 0.528-0.832 0.528-1.317z"></path>
        </symbol>
        <symbol id="icon-monitor" viewBox="0 0 32 32">
            <path fill="#fff" style="fill: var(--color1, #fff)" d="M21.749 4.575c-3.797-0.766-7.701-0.766-11.498 0-2.378 0.48-4.292 2.301-4.948 4.708l-0.056 0.205c-0.774 2.838-0.774 5.84 0 8.678l0.056 0.205c0.657 2.407 2.57 4.228 4.948 4.708 1.597 0.322 3.214 0.509 4.834 0.56v2.472h-2.136c-0.505 0-0.915 0.423-0.915 0.945s0.41 0.945 0.915 0.945h6.103c0.506 0 0.915-0.423 0.915-0.945s-0.41-0.945-0.915-0.945h-2.136v-2.472c1.619-0.051 3.236-0.238 4.834-0.56 2.378-0.48 4.292-2.301 4.948-4.708l0.056-0.205c0.774-2.837 0.774-5.84 0-8.678l-0.056-0.205c-0.656-2.407-2.57-4.228-4.948-4.708z"></path>
        </symbol>
        <symbol id="icon-fire" viewBox="0 0 32 32">
            <path fill="#ff6d00" style="fill: var(--color1, #ff6d00)" d="M19 0c-6.82 3.929-6 15-6 15s-3-1-3-5.5c-3.579 2.075-6 6.065-6 10.5 0 6.627 5.373 12 12 12s12-5.373 12-12c0-9.75-9-11.75-9-20v0zM17.054 27.865c-2.411 0.601-4.854-0.866-5.455-3.278s0.866-4.854 3.278-5.455c5.822-1.451 6.551-4.725 6.551-4.725s2.903 11.644-4.374 13.458z"></path>
        </symbol>
        <symbol id="icon-heart" viewBox="0 0 32 32">
            <path fill="none" style="fill: var(--color1, currentColor)" d="M21.92 4.133c-2.413 0-4.573 1.173-5.92 2.973-1.347-1.8-3.507-2.973-5.92-2.973-4.093 0-7.413 3.333-7.413 7.453 0 1.587 0.253 3.053 0.693 4.413 2.107 6.667 8.6 10.653 11.813 11.747 0.453 0.16 1.2 0.16 1.653 0 3.213-1.093 9.707-5.080 11.813-11.747 0.44-1.36 0.693-2.827 0.693-4.413 0-4.12-3.32-7.453-7.413-7.453z"></path>
        </symbol>
        <symbol id="icon-check" viewBox="0 0 32 32">
            <path fill="#1e50ff" style="fill: var(--color2, #1e50ff)" d="M32 16c0 8.837-7.163 16-16 16s-16-7.163-16-16c0-8.837 7.163-16 16-16s16 7.163 16 16z"></path>
            <path fill="#adb9c7" style="fill: var(--color3, #adb9c7)" d="M13.883 22.573c-0.173 0.174-0.408 0.27-0.653 0.27s-0.48-0.097-0.653-0.27l-5.212-5.213c-0.541-0.541-0.541-1.418 0-1.958l0.653-0.653c0.541-0.541 1.417-0.541 1.958 0l3.254 3.254 8.792-8.792c0.541-0.541 1.418-0.541 1.958 0l0.653 0.653c0.541 0.541 0.541 1.418 0 1.958l-10.75 10.751z"></path>
        </symbol>
        <symbol id="icon-double_arrow" viewBox="0 0 32 32">
            <path fill="#fff" style="fill: var(--color1, #fff)" d="M9.2 12.133l6.36-2.827c0.28-0.12 0.6-0.12 0.867 0l6.36 2.827c0.56 0.253 1.080-0.427 0.693-0.907l-6.667-8.147c-0.453-0.56-1.2-0.56-1.653 0l-6.667 8.147c-0.373 0.48 0.147 1.16 0.707 0.907z"></path>
            <path fill="#fff" style="fill: var(--color1, #fff)" d="M9.2 19.867l6.373 2.827c0.28 0.12 0.6 0.12 0.867 0l6.373-2.827c0.56-0.253 1.080 0.427 0.693 0.907l-6.667 8.147c-0.453 0.56-1.2 0.56-1.653 0l-6.667-8.147c-0.4-0.48 0.107-1.16 0.68-0.907z"></path>
            <path fill="#fff" style="fill: var(--color1, #fff)" d="M15.707 12.653l-5.507 2.747c-0.493 0.24-0.493 0.947 0 1.187l5.507 2.747c0.187 0.093 0.413 0.093 0.6 0l5.507-2.747c0.493-0.24 0.493-0.947 0-1.187l-5.507-2.747c-0.2-0.093-0.413-0.093-0.6 0z"></path>
        </symbol>
        <symbol id="icon-facebook" viewBox="0 0 32 32">
            <path fill="none" style="fill: var(--color2, currentColor)" d="M30 16c0 7.732-6.268 14-14 14s-14-6.268-14-14c0-7.732 6.268-14 14-14s14 6.268 14 14z"></path>
            <path fill="#02050e" style="fill: var(--color3, #02050e)" d="M21.214 20.282l0.622-3.951h-3.89v-2.563c0-1.081 0.543-2.136 2.285-2.136h1.77v-3.364c0 0-1.605-0.267-3.14-0.267-3.206 0-5.299 1.893-5.299 5.318v3.012h-3.562v3.951h3.562v9.553c0.715 0.11 1.447 0.166 2.192 0.166s1.477-0.056 2.192-0.166v-9.553h3.268z"></path>
        </symbol>
        <symbol id="icon-twitter" viewBox="0 0 32 32">
            <path fill="none" style="fill: var(--color2, currentColor)" d="M11.789 28c-3.235 0-6.251-0.941-8.789-2.564 2.155 0.14 5.958-0.195 8.324-2.451-3.559-0.163-5.163-2.892-5.373-4.059 0.302 0.117 1.744 0.257 2.558-0.070-4.093-1.026-4.721-4.619-4.582-5.715 0.768 0.537 2.070 0.723 2.582 0.676-3.814-2.729-2.442-6.835-1.768-7.721 2.737 3.792 6.84 5.922 11.915 6.041-0.096-0.42-0.146-0.857-0.146-1.305 0-3.221 2.603-5.832 5.814-5.832 1.678 0 3.19 0.713 4.251 1.853 1.121-0.263 2.809-0.878 3.634-1.41-0.416 1.493-1.71 2.738-2.493 3.2-0.006-0.016 0.006 0.016 0 0 0.688-0.104 2.549-0.462 3.284-0.961-0.364 0.839-1.736 2.233-2.862 3.014 0.21 9.242-6.861 17.304-16.349 17.304z"></path>
        </symbol>
        <symbol id="icon-instagram" viewBox="0 0 32 32">
            <path fill="#000" style="fill: var(--color1, #000)" d="M8 2h16c3.314 0 6 2.686 6 6v16c0 3.314-2.686 6-6 6h-16c-3.314 0-6-2.686-6-6v-16c0-3.314 2.686-6 6-6z"></path>
            <path fill="none" style="fill: var(--color2, currentColor)" d="M8 2h16c3.314 0 6 2.686 6 6v16c0 3.314-2.686 6-6 6h-16c-3.314 0-6-2.686-6-6v-16c0-3.314 2.686-6 6-6z"></path>
            <path fill="#02050e" style="fill: var(--color3, #02050e)" d="M23 10.5c0 0.828-0.672 1.5-1.5 1.5s-1.5-0.672-1.5-1.5c0-0.828 0.672-1.5 1.5-1.5s1.5 0.672 1.5 1.5z"></path>
            <path fill="#02050e" style="fill: var(--color3, #02050e)" d="M16 21c-2.761 0-5-2.239-5-5s2.239-5 5-5c2.761 0 5 2.239 5 5s-2.239 5-5 5zM16 19c1.657 0 3-1.343 3-3s-1.343-3-3-3c-1.657 0-3 1.343-3 3s1.343 3 3 3z"></path>
            <path fill="#02050e" style="fill: var(--color3, #02050e)" d="M6 15.6v0.8c0 3.36 0 5.041 0.654 6.324 0.575 1.129 1.493 2.047 2.622 2.622 1.283 0.654 2.964 0.654 6.324 0.654h0.8c3.36 0 5.040 0 6.324-0.654 1.129-0.575 2.047-1.493 2.622-2.622 0.654-1.283 0.654-2.964 0.654-6.324v-0.8c0-3.36 0-5.040-0.654-6.324-0.575-1.129-1.493-2.047-2.622-2.622-1.283-0.654-2.964-0.654-6.324-0.654h-0.8c-3.36 0-5.040 0-6.324 0.654-1.129 0.575-2.047 1.493-2.622 2.622-0.654 1.283-0.654 2.964-0.654 6.324zM15.6 8h0.8c1.713 0 2.878 0.002 3.778 0.075 0.877 0.072 1.325 0.201 1.638 0.361 0.753 0.383 1.364 0.995 1.748 1.748 0.159 0.313 0.289 0.761 0.361 1.638 0.073 0.9 0.075 2.065 0.075 3.778v0.8c0 1.713-0.002 2.878-0.075 3.778-0.072 0.877-0.201 1.325-0.361 1.638-0.384 0.753-0.995 1.364-1.748 1.748-0.313 0.159-0.761 0.289-1.638 0.361-0.9 0.073-2.065 0.075-3.778 0.075h-0.8c-1.713 0-2.878-0.002-3.778-0.075-0.877-0.072-1.325-0.201-1.638-0.361-0.753-0.384-1.365-0.995-1.748-1.748-0.159-0.313-0.289-0.761-0.361-1.638-0.074-0.9-0.075-2.065-0.075-3.778v-0.8c0-1.713 0.002-2.878 0.075-3.778 0.072-0.877 0.201-1.325 0.361-1.638 0.383-0.753 0.995-1.365 1.748-1.748 0.313-0.159 0.761-0.289 1.638-0.361 0.9-0.074 2.065-0.075 3.778-0.075z"></path>
        </symbol>
        <symbol id="icon-search" viewBox="0 0 32 32">
            <path fill="none" stroke="#fff" style="stroke: var(--color1, #fff)" stroke-linejoin="round" stroke-linecap="round" stroke-miterlimit="4" stroke-width="4" d="M15.333 28c6.996 0 12.667-5.671 12.667-12.667s-5.671-12.667-12.667-12.667c-6.996 0-12.667 5.671-12.667 12.667s5.671 12.667 12.667 12.667z"></path>
            <path fill="none" stroke="#fff" style="stroke: var(--color1, #fff)" stroke-linejoin="round" stroke-linecap="round" stroke-miterlimit="4" stroke-width="4" d="M29.333 29.333l-2.667-2.667"></path>
        </symbol>
        <symbol id="icon-arrow" viewBox="0 0 32 32">
            <path fill="none" stroke="#fff" style="stroke: var(--color1, #fff)" stroke-linejoin="round" stroke-linecap="round" stroke-miterlimit="10" stroke-width="2" d="M26.56 20.067l-8.693-8.693c-1.027-1.027-2.707-1.027-3.733 0l-8.693 8.693"></path>
        </symbol>
        <symbol id="icon-check-green" viewBox="0 0 32 32">
            <path fill="#52b788" style="fill: var(--color1, #52b788)" d="M32 16c0 8.837-7.163 16-16 16s-16-7.163-16-16c0-8.837 7.163-16 16-16s16 7.163 16 16z"></path>
            <path fill="#fff" style="fill: var(--color2, #fff)" d="M13.884 22.575c-0.173 0.174-0.408 0.27-0.653 0.27s-0.48-0.097-0.653-0.27l-5.212-5.213c-0.541-0.541-0.541-1.418 0-1.958l0.653-0.653c0.541-0.541 1.417-0.541 1.958 0l3.254 3.254 8.792-8.792c0.541-0.541 1.418-0.541 1.958 0l0.653 0.653c0.541 0.541 0.541 1.418 0 1.958l-10.75 10.751z"></path>
        </symbol>
        <symbol id="icon-arrow-left" viewBox="0 0 32 32">
            <path fill="none" stroke="currentColor" style="stroke: var(--color1, currentColor)" stroke-linejoin="round" stroke-linecap="round" stroke-miterlimit="10" stroke-width="3" d="M20 26.56l-8.693-8.693c-1.027-1.027-1.027-2.707 0-3.733l8.693-8.693"></path>
        </symbol>
        <symbol id="icon-arrow-right" viewBox="0 0 32 32">
            <path fill="none" stroke="currentColor" style="stroke: var(--color1, currentColor)" stroke-linejoin="round" stroke-linecap="round" stroke-miterlimit="10" stroke-width="3" d="M12 26.56l8.693-8.693c1.027-1.027 1.027-2.707 0-3.733l-8.693-8.693"></path>
        </symbol>
        <symbol id="icon-open" viewBox="0 0 32 32">
            <path d="M6.4 11.733v-2.133h19.2v2.133h-19.2zM6.4 17.067h19.2v-2.133h-19.2v2.133zM6.4 22.4h19.2v-2.133h-19.2v2.133z"></path>
        </symbol>
        <symbol id="icon-close" viewBox="0 0 32 32">
            <path d="M23.733 10.304l-1.504-1.504-5.963 5.963-5.963-5.963-1.504 1.504 5.963 5.963-5.963 5.963 1.504 1.504 5.963-5.963 5.963 5.963 1.504-1.504-5.963-5.963 5.963-5.963z"></path>
        </symbol>
        <symbol id="icon-exmark" viewBox="0 0 9 32">
            <path fill="#fff" style="fill: var(--color1, #fff)" d="M7.442 0.636l-0.557 20.467h-5.224l-0.571-20.467h6.351zM4.274 30.238c-0.942 0-1.751-0.333-2.426-0.999-0.676-0.676-1.009-1.484-0.999-2.426-0.010-0.932 0.324-1.732 0.999-2.398s1.484-0.999 2.426-0.999c0.904 0 1.698 0.333 2.384 0.999s1.032 1.465 1.042 2.398c-0.010 0.628-0.176 1.204-0.5 1.727-0.314 0.514-0.728 0.928-1.242 1.242-0.514 0.304-1.075 0.457-1.684 0.457z"></path>
        </symbol>
    </defs>
</svg>