<svg aria-hidden="true" style="position: absolute; width: 0; height: 0; overflow: hidden;" version="1.1" xmlns="http://www.w3.org/2000/svg" xmlns:xlink="http://www.w3.org/1999/xlink">
<defs>
<symbol id="icon-xmr_icon" viewBox="0 0 32 32">
<path fill="#fff" style="fill: var(--color1, #fff)" d="M16 0c8.837 0 16 7.163 16 16s-7.163 16-16 16c-8.837 0-16-7.163-16-16s7.163-16 16-16z"></path>
<path fill="#fff" style="fill: var(--color1, #fff)" d="M32.137 16.143c0 8.915-7.227 16.143-16.143 16.143s-16.143-7.228-16.143-16.143c0-8.915 7.227-16.143 16.143-16.143s16.143 7.227 16.143 16.143z"></path>
<path fill="#f26822" style="fill: var(--color2, #f26822)" d="M15.994 0c-8.914 0-16.154 7.253-16.142 16.177 0.002 1.785 0.286 3.503 0.82 5.109h4.83v-13.609l10.493 10.514 10.492-10.514v13.609h4.831c0.534-1.606 0.817-3.324 0.82-5.109 0.015-8.933-7.229-16.175-16.143-16.175v-0.002z"></path>
<path fill="#4d4d4d" style="fill: var(--color3, #4d4d4d)" d="M13.586 20.563l-4.57-4.578v8.544l-6.791 0.001c2.828 4.648 7.939 7.757 13.768 7.757s10.941-3.11 13.769-7.757h-6.792v-8.544l-6.977 6.99-2.408-2.412z"></path>
</symbol>
<symbol id="icon-bgb_icon" viewBox="0 0 32 32">
<path fill="#fff" style="fill: var(--color1, #fff)" d="M16 0c8.837 0 16 7.163 16 16s-7.163 16-16 16c-8.837 0-16-7.163-16-16s7.163-16 16-16z"></path>
<path fill="#00f0ff" style="fill: var(--color4, #00f0ff)" d="M25.031 0h-18.062c-3.849 0-6.969 3.12-6.969 6.969v18.062c0 3.849 3.12 6.969 6.969 6.969h18.062c3.849 0 6.969-3.12 6.969-6.969v-18.062c0-3.849-3.12-6.969-6.969-6.969z"></path>
<path fill="#1b1b1b" style="fill: var(--color5, #1b1b1b)" d="M14.768 12.614h5.975l6.112 6.073c0.398 0.395 0.4 1.038 0.004 1.435l-7.839 7.878h-6.155l1.861-1.809 6.832-6.789-6.745-6.789z"></path>
<path fill="#1b1b1b" style="fill: var(--color5, #1b1b1b)" d="M17.223 19.387h-5.975l-6.112-6.073c-0.398-0.395-0.4-1.038-0.004-1.435l7.839-7.879h6.155l-1.861 1.809-6.832 6.789 6.745 6.789z"></path>
</symbol>
<symbol id="icon-wld_icon" viewBox="0 0 32 32">
<path fill="#fff" style="fill: var(--color1, #fff)" d="M16 0c8.837 0 16 7.163 16 16s-7.163 16-16 16c-8.837 0-16-7.163-16-16s7.163-16 16-16z"></path>
<path fill="#000" style="fill: var(--color6, #000)" d="M9.148 16c0-3.718 3.014-6.732 6.731-6.733v-0l9.354-0.015c0.621-0.001 1.126 0.502 1.127 1.123s-0.502 1.126-1.123 1.127l-9.355 0.015c-2.476 0-4.483 2.007-4.483 4.483s2.007 4.483 4.483 4.483h9.007c0.621 0 1.125 0.504 1.125 1.125s-0.504 1.125-1.125 1.125h-9.007c-3.718 0-6.733-3.014-6.733-6.733z"></path>
<path fill="#000" style="fill: var(--color6, #000)" d="M26.867 14.875c0.621 0 1.125 0.504 1.125 1.125s-0.504 1.125-1.125 1.125h-21.606c-0.621 0-1.125-0.504-1.125-1.125s0.504-1.125 1.125-1.125h21.606z"></path>
<path fill="#000" style="fill: var(--color6, #000)" d="M25.742 16c0-5.386-4.366-9.752-9.752-9.752s-9.752 4.366-9.752 9.752c0 5.386 4.366 9.752 9.752 9.752s9.752-4.366 9.752-9.752zM27.992 16c0 6.629-5.373 12.002-12.002 12.002s-12.002-5.374-12.002-12.002c0-6.629 5.374-12.002 12.002-12.002s12.002 5.374 12.002 12.002z"></path>
</symbol>
<symbol id="icon-vet_icon" viewBox="0 0 32 32">
<path fill="#fff" style="fill: var(--color1, #fff)" d="M16 0c8.837 0 16 7.163 16 16s-7.163 16-16 16c-8.837 0-16-7.163-16-16s7.163-16 16-16z"></path>
<path fill="#82be00" style="fill: var(--color7, #82be00)" d="M26.286 8h-1.938c-0.473 0-0.906 0.252-1.11 0.645l-5.098 9.806-0.004-0.012-1.357 2.613 0.004 0.012-1.357 2.613-6.78-13.060h1.933c0.473 0 0.906 0.252 1.11 0.645l4.426 8.472 1.357-2.613-3.572-6.837c-0.724-1.395-2.25-2.284-3.923-2.284h-5.406l1.353 2.617h0.004l8.137 15.669h2.714l9.507-18.286z"></path>
</symbol>
<symbol id="icon-arb_icon" viewBox="0 0 32 32">
<path fill="#fff" style="fill: var(--color1, #fff)" d="M16 0c8.837 0 16 7.163 16 16s-7.163 16-16 16c-8.837 0-16-7.163-16-16s7.163-16 16-16z"></path>
<path fill="#213147" style="fill: var(--color8, #213147)" d="M4.766 10.624v10.752c0 0.691 0.362 1.317 0.966 1.668l9.315 5.376c0.592 0.34 1.328 0.34 1.92 0l9.315-5.376c0.592-0.34 0.965-0.976 0.965-1.668v-10.752c0-0.691-0.362-1.317-0.965-1.668l-9.315-5.376c-0.592-0.34-1.328-0.34-1.92 0l-9.315 5.376c-0.592 0.34-0.955 0.976-0.955 1.668h-0.011z"></path>
<path fill="#12aaff" style="fill: var(--color9, #12aaff)" d="M18.030 18.085l-1.328 3.643c-0.033 0.099-0.033 0.208 0 0.318l2.282 6.265 2.644-1.525-3.171-8.7c-0.077-0.198-0.351-0.198-0.428 0z"></path>
<path fill="#12aaff" style="fill: var(--color9, #12aaff)" d="M20.696 11.963c-0.077-0.197-0.351-0.197-0.428 0l-1.328 3.643c-0.033 0.099-0.033 0.208 0 0.318l3.741 10.258 2.644-1.525-4.63-12.683v-0.011z"></path>
<path fill="#9dcced" style="fill: var(--color10, #9dcced)" d="M16 3.986c0.066 0 0.132 0.022 0.186 0.055l10.072 5.815c0.121 0.066 0.186 0.197 0.186 0.329v11.63c0 0.132-0.077 0.263-0.186 0.329l-10.072 5.815c-0.055 0.033-0.121 0.055-0.186 0.055s-0.132-0.022-0.187-0.055l-10.072-5.815c-0.121-0.066-0.186-0.198-0.186-0.329v-11.641c0-0.132 0.077-0.263 0.186-0.329l10.072-5.815c0.055-0.033 0.121-0.055 0.187-0.055v0.011zM16 2.286c-0.362 0-0.713 0.088-1.042 0.274l-10.072 5.815c-0.647 0.373-1.042 1.053-1.042 1.799v11.63c0 0.746 0.395 1.426 1.042 1.799l10.072 5.815c0.318 0.186 0.68 0.274 1.042 0.274s0.713-0.088 1.042-0.274l10.072-5.815c0.647-0.373 1.042-1.053 1.042-1.799v-11.63c0-0.746-0.395-1.426-1.042-1.799l-10.083-5.815c-0.318-0.187-0.68-0.274-1.042-0.274h0.011z"></path>
<path fill="#213147" style="fill: var(--color8, #213147)" d="M9.329 26.192l0.933-2.545 1.865 1.547-1.744 1.602-1.053-0.603z"></path>
<path fill="#fff" style="fill: var(--color1, #fff)" d="M15.144 9.351h-2.556c-0.187 0-0.362 0.121-0.428 0.296l-5.475 15.009 2.644 1.525 6.034-16.534c0.055-0.154-0.055-0.307-0.208-0.307l-0.011 0.011z"></path>
<path fill="#fff" style="fill: var(--color1, #fff)" d="M19.621 9.351h-2.556c-0.186 0-0.362 0.121-0.428 0.296l-6.254 17.137 2.644 1.525 6.802-18.662c0.055-0.154-0.055-0.307-0.208-0.307v0.011z"></path>
</symbol>
<symbol id="icon-ondo_icon" viewBox="0 0 32 32">
<path fill="#fff" style="fill: var(--color1, #fff)" d="M16 0c8.837 0 16 7.163 16 16s-7.163 16-16 16c-8.837 0-16-7.163-16-16s7.163-16 16-16z"></path>
<path fill="#06070a" style="fill: var(--color11, #06070a)" d="M16 3.265c-7.031 0-12.735 5.704-12.735 12.735s5.704 12.735 12.735 12.735h7.628c-2.255 1.326-4.842 2.122-7.628 2.122-8.225 0-14.857-6.699-14.857-14.857 0-8.225 6.633-14.857 14.857-14.857s14.857 6.633 14.857 14.857c0 0.73-0.066 1.459-0.133 2.122h-2.122c0.133-0.663 0.199-1.393 0.199-2.122-0.066-7.031-5.77-12.735-12.801-12.735z"></path>
<path fill="#06070a" style="fill: var(--color11, #06070a)" d="M28.204 24.49c-0.53 0.73-1.194 1.459-1.857 2.122h-10.347c-5.837 0-10.612-4.776-10.612-10.612s4.775-10.612 10.612-10.612c5.837 0 10.612 4.776 10.612 10.612 0 0.73-0.066 1.459-0.199 2.122h-2.189c0.199-0.663 0.265-1.393 0.265-2.122 0-4.709-3.781-8.49-8.49-8.49s-8.49 3.781-8.49 8.49c0 4.709 3.781 8.49 8.49 8.49h12.204z"></path>
<path fill="#06070a" style="fill: var(--color11, #06070a)" d="M29.398 22.367c0.332-0.663 0.597-1.393 0.796-2.122h-14.26c-2.322 0-4.245-1.923-4.245-4.245s1.923-4.245 4.245-4.245c2.321 0 4.245 1.924 4.245 4.245 0 0.796-0.199 1.526-0.597 2.122h2.322c0.265-0.663 0.332-1.393 0.332-2.122 0-3.515-2.852-6.367-6.367-6.367s-6.367 2.852-6.367 6.367c0 3.515 2.852 6.367 6.367 6.367h13.531z"></path>
</symbol>
<symbol id="icon-aave_icon" viewBox="0 0 32 32">
<path fill="#9391f7" style="fill: var(--color12, #9391f7)" d="M32 16.58c0-8.536-7.156-15.437-15.992-15.437s-16.008 6.9-16.008 15.437 7.156 15.437 16.008 15.437c8.853 0 15.992-6.917 15.992-15.437z"></path>
<path fill="#fff" style="fill: var(--color1, #fff)" d="M13.018 17.325c1.377-0.211 2.301-1.458 2.083-2.786s-1.512-2.219-2.889-2.009c-1.377 0.21-2.301 1.458-2.083 2.786 0.235 1.328 1.529 2.219 2.889 2.009zM19.603 17.325c1.377-0.211 2.301-1.458 2.083-2.786s-1.512-2.219-2.889-2.009c-1.378 0.21-2.301 1.458-2.083 2.786s1.512 2.219 2.889 2.009z"></path>
<path fill="#fff" style="fill: var(--color1, #fff)" d="M15.907 4.917c-6.837 0-12.38 5.443-12.38 12.149h3.158c0-5.038 4.099-9.103 9.205-9.103 5.123 0 9.205 4.082 9.205 9.103h3.158c0.034-6.706-5.51-12.149-12.346-12.149z"></path>
</symbol>
<symbol id="icon-deep_icon" viewBox="0 0 32 32">
<path fill="#000" style="fill: var(--color6, #000)" d="M16 0c8.837 0 16 7.163 16 16s-7.163 16-16 16c-8.837 0-16-7.163-16-16s7.163-16 16-16z"></path>
<path fill="#5bc1d4" style="fill: var(--color13, #5bc1d4)" d="M16 32c8.837 0 16-7.163 16-16s-7.163-16-16-16c-8.837 0-16 7.163-16 16s7.163 16 16 16z"></path>
<path fill="#fff" style="fill: var(--color1, #fff)" d="M13.785 16.928l-1.65 1.724c-0.297 0.31-0.588 0.623-0.886 0.931-0.050 0.052-0.121 0.083-0.182 0.124-0.13-0.021-0.23-0.102-0.247-0.22-0.028-0.18-0.052-0.36-0.074-0.54-0.030-0.238-0.103-0.304-0.344-0.334-0.497-0.060-0.993-0.125-1.49-0.19l-1.134-0.147c-0.226-0.030-0.308-0.192-0.19-0.385 0.272-0.438 0.546-0.874 0.819-1.31l1.67-2.668c0.066-0.108 0.14-0.182 0.282-0.178 0.090 0.002 0.184-0.020 0.273-0.043 0.106-0.026 0.189 0.006 0.263 0.076 0.131 0.123 0.264 0.245 0.394 0.369l1.508 1.431c0.325 0.308 0.653 0.614 0.978 0.922 0.168 0.158 0.168 0.272 0.010 0.438zM24.875 19.247c0.094 0.078 0.196 0.152 0.216 0.285 0.025 0.17-0.043 0.293-0.187 0.386-0.85 0.55-1.7 1.103-2.55 1.654l-1.643 1.065c-0.052 0.033-0.101 0.069-0.148 0.109-0.041 0.034-0.074 0.077-0.096 0.126s-0.032 0.102-0.029 0.156c0.008 0.205 0.020 0.41 0.023 0.614 0.003 0.235-0.17 0.382-0.406 0.355-0.085-0.011-0.162-0.055-0.215-0.123-0.198-0.228-0.395-0.456-0.592-0.685-0.247-0.286-0.493-0.574-0.741-0.859-0.051-0.051-0.090-0.113-0.113-0.181s-0.031-0.141-0.022-0.213l0.034-1.195c0.004-0.14 0.087-0.23 0.199-0.302l1.358-0.868c0.76-0.485 1.522-0.968 2.28-1.458 0.16-0.103 0.309-0.134 0.485-0.044 0.13 0.066 0.277 0.078 0.418 0.034 0.211-0.067 0.373-0.008 0.536 0.136 0.39 0.344 0.794 0.672 1.193 1.008zM17.577 20.239c0.062 0.060 0.106 0.136 0.127 0.22 0.037 0.187-0.037 0.314-0.213 0.399-0.585 0.282-1.169 0.567-1.759 0.84-0.106 0.048-0.239 0.054-0.36 0.060-0.489 0.022-0.978 0.035-1.467 0.055-0.289 0.011-0.577 0.029-0.843 0.043h-0.196c-0.044 0.001-0.088-0.007-0.13-0.023s-0.079-0.041-0.11-0.072c-0.062-0.057-0.126-0.112-0.187-0.17-0.344-0.327-0.682-0.66-1.033-0.98-0.196-0.178-0.199-0.417-0.012-0.608 0.421-0.434 0.837-0.872 1.255-1.31 0.451-0.472 0.902-0.946 1.352-1.42 0.034-0.040 0.076-0.073 0.123-0.096s0.099-0.037 0.151-0.039c0.053-0.003 0.105 0.006 0.155 0.024s0.094 0.047 0.132 0.084l1.8 1.789c0.404 0.402 0.812 0.8 1.214 1.205zM20.055 12.19c-0.193-0.298 0.025-0.71 0.346-0.763 0.858-0.143 1.713-0.307 2.57-0.456 0.189-0.033 0.339 0.054 0.443 0.21 0.18 0.27 0.357 0.541 0.535 0.812 0.376 0.57 0.753 1.14 1.125 1.712 0.050 0.077 0.075 0.17 0.112 0.255l-0.022 0.010c-0.006 0.146-0.060 0.286-0.154 0.398-0.524 0.704-1.054 1.405-1.577 2.11-0.049 0.063-0.113 0.112-0.186 0.144s-0.152 0.046-0.232 0.041c-0.079-0.005-0.156-0.030-0.224-0.072s-0.124-0.1-0.165-0.168c-0.765-1.27-1.538-2.536-2.308-3.803-0.087-0.144-0.172-0.29-0.263-0.43zM18.55 15.722l-0.15 1.335c-0.042 0.37-0.087 0.738-0.129 1.108l-0.148 1.3c-0.010 0.091-0.011 0.184-0.030 0.272-0.010 0.043-0.042 0.098-0.078 0.112s-0.1-0.006-0.132-0.033c-0.142-0.123-0.277-0.253-0.413-0.382-0.49-0.464-0.977-0.929-1.467-1.391-0.426-0.403-0.853-0.803-1.281-1.203-0.142-0.132-0.143-0.174-0.006-0.317l1.958-2.050 1.993-2.094c0.019-0.020 0.035-0.047 0.058-0.055 0.047-0.017 0.105-0.040 0.146-0.027 0.034 0.012 0.050 0.073 0.060 0.090l-0.1 0.88-0.129 1.131-0.152 1.324zM22.356 16.742c0.064 0.103 0.074 0.201 0.004 0.308-0.076 0.12-0.109 0.263-0.092 0.404 0.012 0.126-0.040 0.203-0.147 0.27-0.837 0.531-1.67 1.066-2.504 1.6-0.262 0.168-0.524 0.335-0.787 0.501-0.104 0.066-0.211 0.061-0.268-0.023-0.032-0.046-0.036-0.11-0.045-0.142l0.11-0.808 0.245-1.782 0.27-1.95 0.263-1.907 0.1-0.71c0.002-0.019 0.003-0.041 0.013-0.055 0.026-0.033 0.055-0.082 0.088-0.088 0.036-0.006 0.092 0.022 0.115 0.053 0.061 0.082 0.11 0.173 0.164 0.261l1.955 3.216c0.172 0.284 0.342 0.569 0.516 0.851v0.001zM18.303 11.838c0.031 0.020 0.091 0.041 0.123 0.084 0.049 0.066 0.006 0.128-0.045 0.181l-0.68 0.715-1.982 2.074c-0.414 0.435-0.826 0.872-1.24 1.306-0.15 0.156-0.27 0.156-0.426 0.008-0.483-0.458-0.966-0.918-1.45-1.375-0.47-0.444-0.942-0.887-1.414-1.33-0.063-0.060-0.113-0.125-0.106-0.217 0.010-0.125 0.082-0.196 0.225-0.22 0.261-0.047 0.523-0.093 0.785-0.138l6.21-1.088zM11.564 12.47c0.466-0.319 0.932-0.636 1.399-0.953l4.51-3.072c0.15-0.102 0.245-0.081 0.32 0.081 0.311 0.666 0.62 1.333 0.93 2 0.040 0.086 0.078 0.173 0.119 0.26 0.033 0.070 0.011 0.127-0.031 0.19-0.055 0.077-0.101 0.16-0.138 0.247-0.033 0.083-0.083 0.128-0.173 0.144-0.664 0.118-1.327 0.24-1.99 0.358l-4.924 0.885c-0.036 0.006-0.073 0-0.11 0l-0.022-0.041c0.037-0.033 0.070-0.071 0.11-0.099zM6.874 13.996c-0.294-0.006-0.469-0.292-0.328-0.555 0.119-0.222 0.251-0.436 0.379-0.653 0.368-0.629 0.738-1.256 1.104-1.885 0.060-0.103 0.146-0.187 0.25-0.245 0.976-0.561 1.95-1.125 2.926-1.687 0.062-0.038 0.13-0.065 0.201-0.080 0.067-0.013 0.136-0.007 0.199 0.019s0.117 0.069 0.155 0.125c0.043 0.055 0.068 0.12 0.075 0.189s-0.008 0.138-0.041 0.2c-0.147 0.314-0.3 0.625-0.45 0.937-0.28 0.572-0.56 1.143-0.837 1.716-0.026 0.063-0.067 0.12-0.119 0.164s-0.114 0.076-0.181 0.092c-0.124 0.030-0.238 0.093-0.328 0.183s-0.154 0.203-0.184 0.327c-0.015 0.061-0.046 0.117-0.090 0.163s-0.099 0.079-0.159 0.096c-0.802 0.282-1.603 0.57-2.404 0.855-0.054 0.020-0.111 0.026-0.167 0.040l-0.001-0.001zM11.027 12.17c0.004-0.042 0.015-0.082 0.034-0.12l1.048-2.297c0.218-0.478 0.439-0.955 0.654-1.434 0.050-0.11 0.123-0.165 0.247-0.17 0.327-0.010 0.654-0.027 0.981-0.040l1.93-0.073c0.226-0.010 0.453-0.025 0.68-0.036 0.162-0.007 0.273 0.091 0.274 0.25 0.007 0.097-0.055 0.16-0.135 0.215l-5.492 3.738c-0.028 0.021-0.057 0.039-0.088 0.054-0.070 0.030-0.137-0.012-0.133-0.087zM9.664 13.82c-0.163 0.263-0.328 0.524-0.492 0.786-0.613 0.98-1.226 1.961-1.84 2.94-0.025 0.047-0.059 0.089-0.1 0.123-0.106 0.076-0.247 0.023-0.297-0.11-0.080-0.214-0.156-0.43-0.233-0.645l-0.669-1.882c-0.016-0.047-0.027-0.095-0.033-0.118 0.001-0.127 0.043-0.181 0.162-0.22 0.356-0.115 0.712-0.228 1.068-0.341l2.28-0.722c0.063-0.020 0.126-0.047 0.178 0.023 0.047 0.063 0.008 0.115-0.024 0.166zM25.782 16.429l0.202 1.156c0.006 0.037 0.010 0.075 0.016 0.124-0.010 0.050-0.021 0.11-0.037 0.168l-0.265 0.956c-0.076 0.275-0.294 0.34-0.514 0.154-0.451-0.38-0.904-0.76-1.357-1.138-0.103-0.086-0.146-0.185-0.122-0.321 0.029-0.135 0.013-0.277-0.046-0.402-0.062-0.123-0.042-0.232 0.039-0.34 0.37-0.496 0.737-0.994 1.106-1.49l0.225-0.304c0.075-0.103 0.174-0.153 0.3-0.125 0.132 0.030 0.2 0.12 0.222 0.249l0.231 1.313zM18.218 8.485l-0.020-0.042c-0.027-0.060-0.038-0.13 0.023-0.164 0.053-0.024 0.114-0.028 0.17-0.010 0.088 0.027 0.167 0.077 0.25 0.118l3.959 1.979c0.067 0.033 0.12 0.072 0.106 0.156-0.014 0.083-0.077 0.101-0.15 0.114-0.808 0.144-1.615 0.29-2.422 0.435l-0.079 0.016c-0.023-0.015-0.067-0.032-0.095-0.064-0.072-0.090-0.162-0.164-0.265-0.217s-0.216-0.082-0.332-0.086c-0.090-0.004-0.136-0.057-0.17-0.132-0.142-0.308-0.287-0.614-0.43-0.921l-0.545-1.182z"></path>
</symbol>
<symbol id="icon-axs_icon" viewBox="0 0 32 32">
<path fill="#000" style="fill: var(--color6, #000)" d="M16 0c8.837 0 16 7.163 16 16s-7.163 16-16 16c-8.837 0-16-7.163-16-16s7.163-16 16-16z"></path>
<path fill="#0055d5" style="fill: var(--color14, #0055d5)" d="M16 0c8.835 0 16 7.165 16 16s-7.165 16-16 16c-8.835 0-16-7.165-16-16s7.165-16 16-16z"></path>
<path fill="#fff" style="fill: var(--color1, #fff)" d="M8.704 10.586c0 0-1.722-1.376-1.84 2.022-0.118 2.634-0.115 7.747 1.104 10.163 0.515 0.909 1.203 0.63 2.483-0.275 1.114-0.822 5.142-4.534 6.848-6.163s5.165-6.301 5.885-3.126c0.285 1.334 0.637 2.467 0.368 5.427-0.083 0.912-0.474 1.603-2.253 0.368-1.344-0.864-2.621-1.792-2.621-1.792s-0.246-0.442-0.829 0.275c-0.458 0.573-0.688 0.714 0.045 1.149 0.736 0.435 4.458 3.002 5.885 3.402 1.178 0.342 1.85 0.336 1.885-1.978-0.006-1.837-0.112-7.094-0.781-9.334-0.506-1.395-1.248-2.029-2.851-0.461s-6.659 6.47-9.424 8.691c-1.834 1.376-2.618 2.618-3.309 0.323-0.486-1.738-1.117-7.146 0.874-6.115 1.245 0.595 1.866 0.592 1.379 0.966-0.486 0.371-1.885 1.654-1.885 1.654s-0.432 0.349-0.23 1.104c0.202 0.528 0.202 0.79 1.286-0.23s1.885-1.792 1.885-1.792 0.173-0.272 0.688 0.23c0.515 0.502 0.598 0.643 0.598 0.643s0.138 0.374 0.688-0.275c0.554-0.65 0.909-1.046-0.138-1.654-1.043-0.614-5.741-3.222-5.741-3.222z"></path>
</symbol>
<symbol id="icon-ton_icon" viewBox="0 0 32 32">
<path fill="#0098ea" style="fill: var(--color15, #0098ea)" d="M16 32c8.857 0 16-7.143 16-16s-7.143-16-16-16c-8.857 0-16 7.143-16 16s7.143 16 16 16z"></path>
<path fill="#fff" style="fill: var(--color1, #fff)" d="M21.485 8.914h-10.971c-2 0-3.257 2.171-2.286 3.943l6.743 11.714c0.457 0.743 1.543 0.743 2 0l6.743-11.714c1.029-1.771-0.229-3.943-2.229-3.943zM15.028 21.029l-1.486-2.857-3.543-6.343c-0.229-0.4 0.057-0.914 0.571-0.914h4.457v10.114zM22 11.829l-3.543 6.343-1.486 2.857v-10.114h4.457c0.514 0 0.8 0.514 0.571 0.914z"></path>
</symbol>
<symbol id="icon-uni_icon" viewBox="0 0 32 32">
<path fill="#ff007a" style="fill: var(--color16, #ff007a)" d="M16 32c8.837 0 16-7.163 16-16s-7.163-16-16-16c-8.837 0-16 7.163-16 16s7.163 16 16 16z"></path>
<path fill="#fff" style="fill: var(--color1, #fff)" d="M12.261 5.767c-0.285-0.044-0.297-0.050-0.163-0.070 0.257-0.040 0.865 0.015 1.284 0.114 0.977 0.233 1.866 0.828 2.816 1.885l0.252 0.28 0.36-0.057c1.52-0.245 3.067-0.050 4.36 0.547 0.356 0.164 0.917 0.491 0.987 0.576 0.023 0.026 0.064 0.199 0.091 0.383 0.096 0.637 0.048 1.125-0.146 1.49-0.106 0.198-0.112 0.26-0.041 0.43 0.034 0.070 0.086 0.13 0.152 0.171s0.142 0.064 0.22 0.065c0.322 0 0.668-0.52 0.828-1.243l0.064-0.287 0.126 0.143c0.692 0.784 1.235 1.853 1.328 2.613l0.025 0.199-0.117-0.18c-0.2-0.31-0.4-0.522-0.658-0.693-0.464-0.307-0.955-0.411-2.255-0.48-1.174-0.062-1.839-0.162-2.497-0.377-1.121-0.365-1.686-0.852-3.018-2.599-0.591-0.776-0.957-1.205-1.32-1.55-0.827-0.786-1.639-1.198-2.678-1.36z"></path>
<path fill="#fff" style="fill: var(--color1, #fff)" d="M22.422 7.5c0.030-0.52 0.1-0.863 0.242-1.176 0.056-0.124 0.109-0.226 0.117-0.226-0.009 0.070-0.027 0.139-0.055 0.204-0.103 0.304-0.12 0.72-0.049 1.203 0.090 0.614 0.142 0.702 0.79 1.365 0.305 0.311 0.659 0.703 0.787 0.872l0.233 0.306-0.233-0.219c-0.285-0.267-0.941-0.79-1.086-0.864-0.097-0.050-0.112-0.049-0.172 0.010-0.055 0.056-0.067 0.138-0.074 0.529-0.012 0.608-0.095 1-0.296 1.39-0.108 0.21-0.125 0.166-0.027-0.073 0.073-0.178 0.080-0.256 0.080-0.845 0-1.184-0.141-1.468-0.966-1.956-0.248-0.144-0.503-0.276-0.764-0.396-0.129-0.052-0.254-0.112-0.374-0.182 0.023-0.023 0.827 0.211 1.15 0.336 0.482 0.185 0.561 0.209 0.62 0.186 0.039-0.015 0.058-0.129 0.077-0.464zM12.815 9.525c-0.579-0.797-0.937-2.020-0.86-2.934l0.024-0.283 0.132 0.024c0.248 0.045 0.675 0.204 0.875 0.326 0.548 0.333 0.786 0.772 1.027 1.898 0.071 0.33 0.164 0.703 0.207 0.83 0.068 0.203 0.328 0.678 0.54 0.987 0.152 0.222 0.050 0.327-0.286 0.297-0.514-0.047-1.21-0.527-1.659-1.145zM21.72 15.46c-2.707-1.090-3.66-2.036-3.66-3.632 0-0.235 0.008-0.427 0.017-0.427 0.010 0 0.115 0.077 0.233 0.172 0.549 0.44 1.164 0.628 2.865 0.876 1.001 0.147 1.565 0.265 2.085 0.437 1.652 0.548 2.674 1.66 2.918 3.174 0.070 0.44 0.029 1.265-0.086 1.7-0.090 0.344-0.367 0.963-0.44 0.987-0.020 0.006-0.040-0.071-0.046-0.178-0.028-0.568-0.315-1.122-0.798-1.537-0.549-0.471-1.286-0.847-3.089-1.572h0.001zM19.82 15.912c-0.032-0.193-0.076-0.384-0.131-0.572l-0.070-0.206 0.129 0.144c0.177 0.2 0.318 0.454 0.436 0.794 0.091 0.259 0.101 0.336 0.1 0.757 0 0.414-0.011 0.5-0.095 0.734-0.117 0.343-0.312 0.654-0.571 0.908-0.495 0.504-1.13 0.782-2.048 0.898-0.16 0.020-0.624 0.054-1.033 0.075-1.030 0.054-1.707 0.164-2.316 0.378-0.055 0.025-0.114 0.039-0.174 0.042-0.024-0.025 0.39-0.272 0.733-0.437 0.483-0.233 0.963-0.36 2.040-0.539 0.532-0.089 1.082-0.196 1.221-0.239 1.318-0.404 1.995-1.446 1.778-2.737h0.001z"></path>
<path fill="#fff" style="fill: var(--color1, #fff)" d="M21.060 18.116c-0.36-0.773-0.442-1.52-0.245-2.216 0.021-0.074 0.055-0.135 0.075-0.135 0.068 0.024 0.131 0.059 0.189 0.102 0.166 0.112 0.498 0.3 1.383 0.782 1.105 0.603 1.735 1.070 2.164 1.602 0.375 0.467 0.607 0.999 0.719 1.647 0.063 0.367 0.026 1.25-0.068 1.62-0.297 1.166-0.988 2.082-1.972 2.616-0.093 0.054-0.189 0.102-0.288 0.143-0.014 0 0.038-0.133 0.117-0.297 0.33-0.692 0.369-1.366 0.118-2.116-0.153-0.459-0.466-1.020-1.097-1.966-0.734-1.1-0.914-1.394-1.095-1.782zM10.893 22.287c1.005-0.848 2.254-1.45 3.393-1.635 0.49-0.080 1.308-0.048 1.762 0.068 0.728 0.186 1.38 0.604 1.719 1.101 0.33 0.486 0.473 0.91 0.62 1.852 0.060 0.372 0.123 0.745 0.142 0.83 0.11 0.488 0.327 0.879 0.595 1.075 0.425 0.311 1.158 0.33 1.878 0.050 0.075-0.035 0.154-0.059 0.236-0.074 0.026 0.026-0.336 0.269-0.592 0.397-0.302 0.162-0.64 0.244-0.983 0.238-0.66 0-1.208-0.335-1.665-1.020-0.090-0.135-0.292-0.538-0.45-0.897-0.482-1.1-0.72-1.436-1.28-1.803-0.489-0.32-1.118-0.377-1.591-0.145-0.622 0.305-0.795 1.1-0.35 1.603 0.177 0.2 0.507 0.373 0.777 0.406 0.118 0.016 0.238 0.006 0.351-0.029s0.219-0.093 0.308-0.172c0.089-0.079 0.16-0.176 0.208-0.284s0.073-0.226 0.072-0.345c0-0.332-0.128-0.52-0.448-0.665-0.437-0.197-0.907 0.033-0.905 0.444 0.001 0.175 0.077 0.285 0.253 0.365 0.113 0.050 0.115 0.055 0.023 0.036-0.401-0.084-0.495-0.567-0.172-0.888 0.387-0.386 1.188-0.216 1.463 0.31 0.116 0.221 0.129 0.662 0.028 0.928-0.225 0.595-0.883 0.907-1.55 0.737-0.454-0.116-0.639-0.241-1.186-0.805-0.951-0.98-1.32-1.17-2.692-1.384l-0.263-0.041 0.3-0.253h-0.001z"></path>
<path fill="#fff" style="fill: var(--color1, #fff)" d="M6.196 3.35l0.096 0.117c3.708 4.54 5.624 6.896 5.746 7.064 0.2 0.278 0.125 0.527-0.219 0.723-0.191 0.109-0.585 0.219-0.781 0.219-0.223 0-0.474-0.107-0.657-0.28-0.129-0.123-0.65-0.901-1.853-2.768-0.563-0.882-1.134-1.76-1.712-2.633-0.049-0.046-0.048-0.045 1.618 2.936 1.046 1.872 1.4 2.533 1.4 2.622 0 0.18-0.050 0.274-0.272 0.522-0.37 0.413-0.535 0.877-0.655 1.837-0.134 1.077-0.51 1.837-1.554 3.138-0.61 0.762-0.71 0.902-0.865 1.209-0.194 0.386-0.247 0.603-0.269 1.091-0.023 0.516 0.022 0.85 0.18 1.343 0.138 0.432 0.282 0.718 0.65 1.288 0.318 0.493 0.501 0.859 0.501 1.002 0 0.114 0.022 0.114 0.515 0.003 1.179-0.266 2.136-0.735 2.675-1.309 0.333-0.355 0.411-0.551 0.414-1.038 0.001-0.318-0.010-0.385-0.096-0.568-0.14-0.298-0.395-0.546-0.957-0.93-0.737-0.504-1.051-0.91-1.138-1.467-0.072-0.457 0.011-0.78 0.419-1.634 0.421-0.884 0.526-1.26 0.597-2.151 0.045-0.576 0.108-0.803 0.274-0.985 0.172-0.19 0.328-0.255 0.755-0.313 0.696-0.095 1.139-0.275 1.503-0.61 0.316-0.292 0.448-0.573 0.468-0.995l0.016-0.32-0.177-0.206c-0.254-0.296-2.355-2.614-6.304-6.956l-0.106-0.115-0.212 0.165v-0.001zM7.91 19.732c0.070-0.124 0.091-0.269 0.058-0.407s-0.115-0.259-0.232-0.339c-0.228-0.152-0.583-0.080-0.583 0.118 0 0.060 0.033 0.104 0.108 0.143 0.127 0.065 0.136 0.139 0.037 0.288-0.101 0.152-0.093 0.286 0.023 0.377 0.186 0.146 0.45 0.065 0.59-0.18h-0.001zM13.434 12.556c-0.327 0.1-0.644 0.447-0.743 0.81-0.060 0.221-0.026 0.61 0.064 0.73 0.145 0.194 0.286 0.245 0.666 0.242 0.744-0.005 1.39-0.324 1.466-0.723 0.062-0.327-0.223-0.78-0.614-0.98-0.202-0.102-0.631-0.143-0.839-0.079zM14.304 13.236c0.115-0.163 0.064-0.34-0.13-0.458-0.372-0.227-0.934-0.040-0.934 0.312 0 0.174 0.293 0.365 0.561 0.365 0.18 0 0.424-0.107 0.503-0.219z"></path>
</symbol>
<symbol id="icon-cake_icon" viewBox="0 0 32 32">
<path fill="#fff" style="fill: var(--color1, #fff)" d="M16 0c8.837 0 16 7.163 16 16s-7.163 16-16 16c-8.837 0-16-7.163-16-16s7.163-16 16-16z"></path>
<path fill="#633001" style="fill: var(--color17, #633001)" d="M9.413 8.929c-0.324-1.671 0.973-3.214 2.661-3.214 1.493 0 2.726 1.221 2.726 2.7v3.343c0.389 0 0.779-0.064 1.168-0.064s0.714-0 1.103 0.064v-3.343c0-1.479 1.233-2.7 2.726-2.7 1.687 0 2.985 1.543 2.726 3.214l-0.714 3.921c2.531 1.093 4.478 3.021 4.478 5.4v1.479c0 1.993-1.298 3.664-3.18 4.757-1.882 1.157-4.348 1.8-7.138 1.8s-5.256-0.643-7.138-1.8c-1.817-1.093-3.115-2.764-3.115-4.757v-1.479c0-2.379 1.882-4.307 4.413-5.4l-0.714-3.921zM20.835 13.364l0.844-4.628c0.195-1.157-0.649-2.25-1.882-2.25-1.038 0-1.882 0.836-1.882 1.864v4.243c-0.26-0.064-0.584-0.064-0.844-0.064-0.389 0-0.714-0.064-1.103-0.064s-0.779 0-1.168 0.064c-0.26 0-0.584 0.064-0.844 0.064v-4.178c0-1.029-0.844-1.864-1.882-1.864-1.168 0-2.077 1.093-1.817 2.25l0.844 4.629c-2.726 1.029-4.543 2.829-4.543 4.886v1.479c0 3.15 4.218 5.721 9.41 5.721s9.41-2.571 9.41-5.721v-1.479c0.065-2.122-1.752-3.921-4.543-4.95z"></path>
<path fill="#fedc90" style="fill: var(--color18, #fedc90)" d="M25.442 19.729c0 3.15-4.218 5.721-9.41 5.721s-9.41-2.572-9.41-5.721v-1.479h18.884v1.479h-0.065z"></path>
<path fill="#d1884f" style="fill: var(--color19, #d1884f)" d="M10.257 8.8c-0.26-1.157 0.649-2.25 1.817-2.25 1.038 0 1.882 0.836 1.882 1.864v4.243c0.649-0.064 1.298-0.129 2.012-0.129 0.649 0 1.298 0.064 1.947 0.129v-4.243c0-1.029 0.844-1.864 1.882-1.864 1.168 0 2.077 1.093 1.882 2.25l-0.844 4.629c2.726 1.029 4.607 2.829 4.607 4.886 0 3.15-4.218 5.721-9.41 5.721s-9.41-2.571-9.41-5.721c0-2.057 1.817-3.857 4.543-4.886l-0.909-4.629z"></path>
<path fill="#633001" style="fill: var(--color17, #633001)" d="M13.372 17.864c0 0.836-0.454 1.543-1.038 1.543s-1.038-0.707-1.038-1.543c0-0.836 0.454-1.543 1.038-1.543s1.038 0.707 1.038 1.543z"></path>
<path fill="#633001" style="fill: var(--color17, #633001)" d="M20.575 17.864c0 0.836-0.454 1.543-1.038 1.543s-1.038-0.707-1.038-1.543c0-0.836 0.454-1.543 1.038-1.543s1.038 0.707 1.038 1.543z"></path>
</symbol>
<symbol id="icon-mkr_icon" viewBox="0 0 32 32">
<path fill="#1aab9b" style="fill: var(--color20, #1aab9b)" d="M16 32c8.837 0 16-7.163 16-16s-7.163-16-16-16c-8.837 0-16 7.163-16 16s7.163 16 16 16z"></path>
<path fill="#fff" style="fill: var(--color1, #fff)" d="M7.558 21.156v-8.045l6.101 4.592v3.453h1.558v-3.776c-0-0.141-0.033-0.28-0.096-0.406s-0.154-0.236-0.267-0.32l-7.399-5.569c-0.135-0.101-0.295-0.163-0.463-0.178s-0.337 0.016-0.488 0.092c-0.151 0.075-0.278 0.191-0.367 0.334s-0.136 0.309-0.137 0.477v9.346h1.558zM24.432 21.156v-8.045l-6.101 4.592v3.453h-1.558v-3.776c0-0.286 0.134-0.555 0.362-0.726l7.4-5.569c0.135-0.101 0.296-0.163 0.464-0.178s0.337 0.017 0.488 0.092c0.151 0.075 0.278 0.191 0.367 0.335s0.136 0.309 0.136 0.478v9.346l-1.558-0.001z"></path>
</symbol>
<symbol id="icon-dot_icon" viewBox="0 0 32 32">
<path fill="#e6007a" style="fill: var(--color21, #e6007a)" d="M16 32c8.837 0 16-7.163 16-16s-7.163-16-16-16c-8.837 0-16 7.163-16 16s7.163 16 16 16z"></path>
<path fill="#fff" style="fill: var(--color1, #fff)" d="M16.272 6.625c-3.707 0-6.736 3.012-6.736 6.736 0 0.749 0.124 1.48 0.356 2.192 0.082 0.235 0.253 0.428 0.477 0.539s0.481 0.128 0.717 0.050c0.235-0.082 0.428-0.254 0.538-0.477s0.128-0.481 0.050-0.717c-0.196-0.555-0.286-1.142-0.267-1.73 0.071-2.512 2.103-4.58 4.616-4.704 0.658-0.035 1.317 0.065 1.935 0.293s1.184 0.579 1.663 1.033c0.479 0.453 0.86 0.999 1.121 1.605s0.396 1.258 0.397 1.917c-0.002 1.24-0.476 2.432-1.328 3.333s-2.015 1.443-3.252 1.515c0 0-0.945 0.053-1.408 0.125-0.232 0.035-0.41 0.071-0.535 0.089-0.054 0.018-0.107-0.036-0.090-0.090l0.161-0.783 0.873-4.028c0.051-0.241 0.005-0.492-0.129-0.699s-0.343-0.353-0.583-0.406c-0.241-0.051-0.492-0.004-0.699 0.129s-0.353 0.343-0.406 0.584c0 0-2.103 9.802-2.121 9.909-0.051 0.241-0.004 0.492 0.129 0.699s0.343 0.353 0.584 0.406c0.241 0.051 0.492 0.004 0.699-0.129s0.353-0.343 0.406-0.584c0.017-0.107 0.303-1.408 0.303-1.408 0.101-0.477 0.347-0.911 0.705-1.243s0.808-0.545 1.291-0.611c0.35-0.038 0.7-0.068 1.051-0.089 1.692-0.132 3.272-0.897 4.425-2.142s1.794-2.88 1.795-4.577c0-3.724-3.030-6.736-6.737-6.736zM16.753 22.13c-0.145-0.031-0.295-0.033-0.441-0.006s-0.285 0.083-0.409 0.164c-0.124 0.081-0.231 0.186-0.315 0.309s-0.142 0.261-0.171 0.406c-0.125 0.606 0.25 1.212 0.873 1.337 0.145 0.031 0.295 0.034 0.441 0.007s0.285-0.083 0.41-0.164c0.124-0.081 0.231-0.186 0.315-0.309s0.142-0.261 0.171-0.407c0.124-0.623-0.25-1.212-0.874-1.336z"></path>
</symbol>
<symbol id="icon-pepe_icon" viewBox="0 0 32 32">
<path fill="#000" style="fill: var(--color6, #000)" d="M16 0c8.837 0 16 7.163 16 16s-7.163 16-16 16c-8.837 0-16-7.163-16-16s7.163-16 16-16z"></path>
<path fill="#3d8130" style="fill: var(--color22, #3d8130)" d="M16 32c8.837 0 16-7.163 16-16s-7.163-16-16-16c-8.837 0-16 7.163-16 16s7.163 16 16 16z"></path>
<path fill="#3d8130" style="fill: var(--color22, #3d8130)" d="M22.095 21.213v0z"></path>
<path fill="#3d8130" style="fill: var(--color22, #3d8130)" d="M9.506 12.688l-0.719 1.4-0.744 1.469-0.525 1.375-0.35 1.462-0.219 1.6-0.131 1.381-0.15 0.906 0.15 0.706 0.256 0.606 0.475 0.838 1.1 0.687 0.813 0.319c0.2 0.063 0.412 0.125 0.594 0.181l0.963 0.175 1.375 0.063h1.137c0.131 0 1.281-0.063 1.288-0.069l1.462 0.025 1.412-0.175 0.613-0.256 0.419-0.5 0.019-0.663c-0.025-0.056-0.106-0.269-0.131-0.35-0.019-0.056-0.3-0.388-0.556-0.675l-0.006-0.006c-0.113-0.163-0.294-0.444-0.294-0.538s0.113-0.369 0.137-0.419l0.013-0.025 0.587-0.169 0.388 0.281 0.35-0.194 0.394-0.394 0.687-0.506 0.625-0.356 0.494-0.094 0.65 0.444-0.044-0.050 0.269-0.238 0.25-0.413v-0.431l-0.050-0.125-0.319 0.256-0.569 0.163h-0.012l-0.875-0.019-1.269 0.131-0.4 0.044-0.306-0.044-0.819-0.112-0.925-0.175-1.5-0.244-1.431-0.594-1.256-0.725-0.769-0.519-0.075-0.369 0.1-0.344 0.306-0.225 0.712 0.163 1.556 0.481c0.762 0.156 1.925 0.387 2 0.394 0.038 0 0.188 0.025 0.563 0.087 0.4 0.063 0.95 0.156 1.063 0.156 0.194 0 1.688 0.081 1.775 0.087 0.081 0 1.294-0.025 1.425-0.025 0.088 0 0.556-0.156 0.837-0.256l0.425-0.506 0.406-0.706c0.025-0.206 0-0.412-0.075-0.606-0.1-0.262-0.287-0.487-0.525-0.637-0.125 0.238-0.288 0.388-0.475 0.456-0.069 0.025-0.15 0.038-0.225 0.038-0.113 0-0.225-0.025-0.319-0.075l0.063-0.112c0.137 0.069 0.294 0.081 0.444 0.031 0.169-0.063 0.313-0.212 0.425-0.444-0.137 0.050-0.288 0.081-0.438 0.081-0.094 0-0.188-0.006-0.281-0.031l0.012-0.063 0.013-0.063c0.006 0 0.487 0.119 0.85-0.162 0.256-0.194 0.4-0.544 0.425-1.025l-0.419 0.494-0.506 0.231c-0.225 0.056-0.975 0.244-1.044 0.244-0.025 0-0.125-0.012-0.369-0.056-0.306-0.050-0.762-0.119-0.881-0.119-0.213 0-0.513-0.231-0.544-0.256l-0.038-0.025 0.238-0.694 0.656-0.744 0.694-0.494h0.863l0.813 0.087 0.35 0.4 0.169 0.25v-0.675l-0.675-0.244c-0.075-0.013-0.744-0.106-0.906-0.106-0.156 0-0.756 0.094-0.856 0.106l-0.869 0.562-0.069-0.106 0.887-0.575h0.013c0.031-0.006 0.706-0.113 0.887-0.113 0.175 0 0.9 0.106 0.931 0.113l0.012 0.006 0.731 0.269 0.069 0.037 0.006-0.050-0.344-0.3-0.619-0.3-0.75-0.062-0.863 0.15-0.344 0.15-0.050-0.119 0.363-0.156 0.888-0.156 0.787 0.069 0.031 0.019-0.238-0.369-0.669-0.587 0.006-0.006-2.6 0.075c0 0-0.337 0.044-0.725 0.094l0.369 0.531 0.188 0.331-0.094 0.331-0.125-0.037 0.081-0.281-0.163-0.281-0.394-0.569 0.025-0.019c-0.488 0.063-1.006 0.125-1.038 0.125-0.056 0-2.144 0.156-2.231 0.156-0.175-0.012-0.35-0.031-0.519-0.069-0.031-0.019-1.425-0.525-1.475-0.556s-0.537-0.5-0.537-0.5l-0.95-0.294-0.831 1.025-0.863 1.3zM19.65 15.556c0.125 0.056 0.238 0.125 0.356 0.194l0.712 0.081 0.406-0.088 0.025 0.125-0.425 0.087-0.494-0.056c0.213 0.156 0.406 0.331 0.581 0.531 0.125 0.144 0.238 0.3 0.331 0.462l-0.113 0.063c-0.112-0.187-0.244-0.369-0.4-0.525-0.206-0.213-0.438-0.406-0.687-0.563l-0.363-0.206 0.069-0.106zM12.506 13.219l0.569-0.544 0.494-0.406 0.706-0.137 0.744-0.025h0.794l0.656 0.025 1.331 0.025 0.419 0.256 0.512 0.469 0.294 0.363 0.137 0.738-0.125 0.025-0.131-0.706-0.269-0.338-0.494-0.45-0.375-0.231-1.044-0.019 0.456 0.25c0.244 0.125 0.663 0.35 0.706 0.444 0.031 0.050 0.363 0.375 0.669 0.662l0.006 0.006 0.469 0.606 0.069 0.5-0.125 0.019-0.063-0.463-0.444-0.575c-0.156-0.144-0.644-0.606-0.688-0.694-0.038-0.050-0.363-0.238-0.65-0.387l-0.669-0.369-0.644-0.019h-0.788l-0.738 0.019-0.656 0.125-0.469 0.381-0.531 0.512-0.056 0.338 0.112 0.1 0.281-0.15 0.463-0.575 0.838-0.319 1.088-0.112 0.919 0.088 1.194 0.619 0.494 0.294 0.475 0.631 0.219 0.688 0.319 0.206v0.281l-0.294 0.269-0.525 0.219-0.225 0.188-0.356 0.581-0.012 0.006c-0.156 0.081-0.431 0.225-0.506 0.225-0.056 0.013-0.406 0.169-0.719 0.325l-0.031 0.006c-0.025 0.006-0.575 0.175-0.712 0.2l-0.019-0.125c0.119-0.019 0.637-0.175 0.688-0.194 0.312-0.15 0.7-0.331 0.769-0.331 0.15-0.056 0.294-0.125 0.438-0.206l0.056-0.094 0.288-0.469 0.069-0.056c-0.2-0.019-0.462-0.050-0.531-0.087-0.031-0.013-0.219-0.037-1.2-0.037-0.244 0-0.819-0.131-0.9-0.156-0.063-0.019-0.65-0.194-0.656-0.194l-0.012-0.006-0.013-0.013c-0.006-0.006-0.55-0.525-0.95-0.756l0.063-0.112c0.387 0.225 0.881 0.687 0.969 0.769 0.094 0.025 0.581 0.175 0.644 0.194 0.069 0.025 0.631 0.15 0.856 0.15 1.181 0 1.231 0.031 1.262 0.056 0.044 0.025 0.325 0.056 0.563 0.075l-0.006 0.044 0.094-0.081 0.525-0.219 0.231-0.212v-0.156l-0.163-0.106 0.006 0.019-0.544 0.2-0.75 0.088c-0.038 0-0.2 0.006-0.381 0.006-0.212 0-0.444-0.006-0.512-0.031-0.1-0.031-0.731-0.169-1.044-0.238h-0.006l-0.006-0.006c-0.394-0.212-0.881-0.481-0.919-0.55-0.031-0.038-0.275-0.162-0.481-0.262h-0.006l-0.694-0.406-0.094 0.019-0.012-0.081-0.219-0.125-0.338 0.181-0.238-0.206 0.081-0.45zM12.793 16.212l0.031 0.125-0.637 0.15-0.013-0.050-0.019-0.075 0.637-0.15zM13.062 16.806l-0.031 0.125c-0.144-0.031-0.294-0.025-0.438 0-0.238 0.044-0.587 0.181-0.925 0.569l-0.094-0.081c0.694-0.812 1.456-0.625 1.488-0.612z"></path>
<path fill="#3d8130" style="fill: var(--color22, #3d8130)" d="M13.918 13.644c0.037-0.006 0.925-0.113 1.037-0.113 0.044 0 0.169 0.013 0.331 0.025 0.219 0.019 0.587 0.050 0.644 0.044 0.088-0.025 0.962-0.1 1.063-0.112l0.519-0.038-0.106-0.062-1.169-0.606-0.881-0.088-1.063 0.106-0.787 0.3-0.4 0.5 0.256 0.15 0.556-0.106z"></path>
<path fill="#3d8130" style="fill: var(--color22, #3d8130)" d="M17 13.619c-0.388 0.037-0.981 0.094-1.044 0.106-0.056 0.012-0.256 0-0.681-0.037-0.144-0.013-0.281-0.025-0.319-0.025-0.087 0-0.762 0.081-1.019 0.106l-0.412 0.075 0.563 0.331c0.175 0.081 0.475 0.231 0.525 0.306 0.050 0.050 0.475 0.294 0.869 0.506 0.1 0.019 0.925 0.2 1.050 0.244 0.088 0.031 0.569 0.025 0.85 0.019l0.738-0.088 0.444-0.169-0.025-0.012-0.225-0.712-0.444-0.594-0.262-0.156 0.006 0.063-0.612 0.037z"></path>
<path fill="#3d8130" style="fill: var(--color22, #3d8130)" d="M22.775 13.569l-0.312-0.35-0.762-0.088h-0.812l-0.656 0.469-0.625 0.706-0.2 0.581c0.1 0.075 0.3 0.2 0.431 0.2s0.556 0.069 0.9 0.125c0.163 0.025 0.325 0.050 0.35 0.050 0.056-0.006 0.644-0.15 1.006-0.238l0.462-0.213 0.369-0.425-0.031-0.2-1.137-0.463-1.456-0.044 0.006-0.125 1.481 0.044 1.225 0.5 0.050 0.319c0-0.019 0-0.037 0-0.056v-0.35l-0.288-0.444z"></path>
<path fill="#3d8130" style="fill: var(--color22, #3d8130)" d="M21.412 20.9l-0.425 0.081-0.6 0.344-0.675 0.5-0.187 0.187 0.425 0.3 0.031 0.238-0.288 0.287-0.087-0.087 0.244-0.244-0.013-0.119-0.4-0.281-0.119 0.119-0.25 0.137-0.069 0.337 0.35 0.306 0.506-0.019c0.094-0.069 0.25-0.169 0.325-0.175 0.075-0.044 0.15-0.094 0.219-0.15 0.169-0.131 0.238-0.175 0.288-0.175 0.15-0.075 0.294-0.156 0.431-0.25l0.019-0.012 0.612 0.069 0.213 0.213-0.044 0.044c-0.131 0.144-0.281 0.331-0.288 0.375 0 0.031-0.006 0.063-0.019 0.087l0.144-0.081 0.675-0.481 0.075 0.106-0.688 0.488-0.319 0.175c-0.012 0.019-0.025 0.038-0.031 0.044l-0.025-0.019-0.488 0.269-0.337 0.488-0.119 0.288 0.244 0.344 0.269 0.306 0.319 0.038 0.294-0.063-0.006-0.062 0.325-0.513 0.612-0.594 0.088 0.094-0.606 0.588-0.294 0.456 0.019 0.344 0.312 0.212 0.413 0.044 0.231-0.069-0.044-0.069 0.031-0.038c0.012-0.019 0.35-0.4 0.419-0.462 0.050-0.050 0.337-0.381 0.481-0.544l0.094 0.081c-0.019 0.019-0.419 0.488-0.488 0.55-0.050 0.050-0.294 0.319-0.381 0.419l0.219 0.325h0.369l0.319-0.144 0.262-0.388 0.35-0.375 0.094 0.087-0.35 0.369-0.269 0.406-0.381 0.169h-0.462l-0.194-0.288-0.294 0.088-0.469-0.044-0.388-0.269-0.012-0.25-0.294 0.063-0.387-0.050-0.294-0.338-0.438-0.262-0.456-0.506-0.112-0.788 0.125-0.019 0.094 0.675 0.544-0.431 0.587-0.563 0.337-0.462-0.162-0.019c-0.181 0.119-0.394 0.25-0.469 0.262-0.075 0.044-0.15 0.094-0.219 0.15-0.175 0.131-0.244 0.175-0.288 0.175-0.094 0.044-0.187 0.1-0.269 0.163l-0.019 0.012-0.594 0.025-0.444-0.394 0.062-0.3-0.044 0.025-0.4-0.287-0.469 0.137c-0.050 0.112-0.088 0.225-0.112 0.344 0.006 0.050 0.144 0.281 0.269 0.462 0.169 0.188 0.556 0.631 0.581 0.725 0.019 0.069 0.1 0.269 0.131 0.344l0.006 0.012-0.019 0.85 0.244 0.363c0.125 0.075 1.044 0.612 1.15 0.675 0.075 0.044 0.738 0.231 1.144 0.344l1.369 0.131 1.1-0.15 0.944-0.431 0.512-0.494-0.119-0.438-0.631-1.175-0.456-0.694-0.794-0.863-1.169-0.644-0.175-0.375-0.581-0.394z"></path>
<path fill="#983b1f" style="fill: var(--color23, #983b1f)" d="M22.406 18.369l-0.019 0.006c-0.125 0.044-0.762 0.269-0.9 0.269-0.131 0-1.413 0.019-1.425 0.025-0.019 0-1.581-0.088-1.775-0.088-0.125 0-0.631-0.081-1.081-0.156-0.25-0.044-0.506-0.081-0.544-0.081-0.088 0-1.706-0.331-2.031-0.394h-0.006l-1.556-0.481-0.65-0.144-0.225 0.169-0.075 0.269 0.056 0.287 0.725 0.488 1.244 0.719 1.412 0.588 1.481 0.238 0.925 0.175 1.106 0.15 1.669-0.175 0.869 0.019 0.525-0.15 0.444-0.356 0.363-0.556 0.081-0.256-0.119-0.287c-0.525 0.475-0.581 0.494-0.612 0.5l-0.538 0.131-1.5 0.069-1.562-0.088-1.55-0.281-1.256 0.025-1.3-0.331-1.15-0.4-0.612-0.375 0.069-0.106 0.606 0.369 1.131 0.394 1.281 0.325 1.256-0.025 1.55 0.281 1.55 0.088 1.481-0.063 0.519-0.131c0.031-0.013 0.206-0.15 0.575-0.488 0.050-0.044 0.081-0.075 0.094-0.087l0.475-0.65 0.163-0.306c-0.025-0.106-0.050-0.206-0.063-0.312-0.063-0.1-0.131-0.188-0.213-0.275 0 0.056 0 0.112-0.012 0.169v0.013l-0.431 0.744-0.444 0.538z"></path>
<path fill="#000" style="fill: var(--color6, #000)" d="M25.319 25l-0.637-1.188-0.462-0.706-0.8-0.894-1.156-0.631-0.169-0.363-0.031 0.019c0 0 0.106 0.388 0.181 0.425s1.075 0.55 1.125 0.575c0.050 0.025 0.919 1.063 0.919 1.063l0.7 1.219 0.419 0.938c0 0-0.538 0.55-0.569 0.556s-1.069 0.513-1.1 0.513c-0.031 0-1.038 0.112-1.094 0.1-0.056-0.019-1.294-0.125-1.388-0.131-0.1-0.006-1.244-0.462-1.244-0.462l-0.987-0.594-0.281-0.438-0.394 0.444c0 0-0.556 0.281-0.631 0.281s-1.438 0.181-1.544 0.181h-2.744c0 0-2.712-0.050-2.831-0.106-0.037-0.019-0.256-0.088-0.544-0.181l-0.231-0.044-0.363-0.137c-0.444-0.137-0.844-0.256-0.844-0.256l-1.119-0.725c0 0-0.469-0.812-0.487-0.856s-0.306-0.725-0.306-0.756c0-0.031-0.1-0.575-0.1-0.575l0.2-1.244 0.088-1.306 0.213-1.425c0 0 0.356-1.431 0.362-1.494 0.006-0.069 0.581-1.481 0.581-1.481l0.606-1.094 0.8-1.65 0.881-1.244 0.856-1.019 0.056 0.019-0.1-0.081-0.831 1.031-0.925 1.344-0.725 1.412-0.744 1.463-0.531 1.388-0.356 1.475-0.219 1.612-0.131 1.381-0.156 0.931 0.156 0.738 0.269 0.625 0.494 0.875 1.131 0.712 1.194 0.469 1.219 0.225 1.394 0.069h1.137c0.131 0 1.225-0.063 1.294-0.069l1.475 0.025 1.438-0.175 0.656-0.275 0.337-0.406 0.281 0.419 0.012 0.006c0.012 0.006 1.056 0.612 1.163 0.681 0.112 0.069 1.069 0.331 1.181 0.356l1.4 0.131 1.131-0.156 0.988-0.45 0.581-0.563-0.144-0.525z"></path>
<path fill="#000" style="fill: var(--color6, #000)" d="M10.337 11.331l-0.881 1.244-0.8 1.65-0.606 1.094c0 0-0.575 1.412-0.581 1.481s-0.362 1.494-0.362 1.494l-0.213 1.425-0.088 1.306-0.2 1.244c0 0 0.1 0.544 0.1 0.575s0.287 0.712 0.306 0.756 0.487 0.856 0.487 0.856l1.119 0.725c0 0 0.4 0.119 0.844 0.256l-0.813-0.319-1.1-0.688-0.475-0.837-0.256-0.606-0.15-0.706 0.15-0.906 0.131-1.381 0.219-1.6 0.35-1.462 0.525-1.375 0.744-1.469 0.719-1.4 0.919-1.331 0.831-1.025-0.056-0.019-0.863 1.019z"></path>
<path fill="#000" style="fill: var(--color6, #000)" d="M21.438 20.769l-0.494 0.094-0.625 0.356-0.688 0.506-0.394 0.394-0.35 0.194-0.388-0.281-0.588 0.169-0.012 0.025c-0.025 0.056-0.137 0.325-0.137 0.419s0.187 0.381 0.294 0.538l0.006 0.006c0.256 0.287 0.538 0.619 0.556 0.675 0.019 0.081 0.106 0.294 0.131 0.35l-0.019 0.662-0.419 0.5-0.612 0.256-1.412 0.175-1.463-0.025c-0.013 0-1.162 0.069-1.288 0.069h-1.137l-1.375-0.063-0.963-0.175c0.281 0.088 0.506 0.163 0.544 0.181 0.113 0.056 2.831 0.106 2.831 0.106h2.744c0.106 0 1.475-0.181 1.544-0.181 0.075 0 0.631-0.281 0.631-0.281l0.394-0.444 0.281 0.438 0.988 0.594c0 0 1.144 0.45 1.244 0.462 0.1 0.006 1.331 0.112 1.387 0.131s1.063-0.1 1.094-0.1c0.031 0 1.069-0.5 1.1-0.512 0.031-0.006 0.569-0.556 0.569-0.556l-0.419-0.938-0.7-1.219c0 0-0.869-1.038-0.919-1.062s-1.050-0.538-1.125-0.575c-0.075-0.038-0.181-0.425-0.181-0.425l0.031-0.019v-0.006l-0.663-0.438zM22.163 21.669l1.169 0.644 0.781 0.862 0.456 0.694 0.631 1.175 0.119 0.438-0.512 0.494-0.944 0.431-1.1 0.15-1.369-0.131c-0.406-0.113-1.069-0.3-1.144-0.344-0.106-0.063-1.025-0.6-1.15-0.675l-0.244-0.363 0.019-0.85v-0.006c-0.031-0.075-0.112-0.275-0.131-0.344-0.025-0.094-0.413-0.538-0.581-0.725-0.125-0.187-0.269-0.419-0.269-0.462 0.025-0.119 0.063-0.231 0.113-0.344l0.469-0.138 0.4 0.288 0.044-0.025-0.063 0.3 0.444 0.394 0.594-0.025 0.019-0.013c0.081-0.062 0.175-0.119 0.269-0.162 0.050 0 0.112-0.044 0.288-0.175 0.069-0.056 0.144-0.106 0.219-0.15 0.075-0.006 0.294-0.144 0.469-0.262l0.163 0.019-0.337 0.462-0.588 0.563-0.544 0.431-0.094-0.675-0.125 0.019 0.113 0.788 0.456 0.506 0.438 0.262 0.294 0.337 0.388 0.050 0.294-0.063 0.013 0.25 0.387 0.269 0.469 0.044 0.294-0.088 0.194 0.288h0.462l0.381-0.169 0.269-0.406 0.35-0.369-0.094-0.088-0.35 0.375-0.262 0.387-0.319 0.144h-0.369l-0.219-0.325c0.088-0.1 0.331-0.369 0.381-0.419 0.069-0.069 0.469-0.531 0.488-0.55l-0.094-0.081c-0.144 0.169-0.431 0.494-0.481 0.544-0.069 0.069-0.406 0.45-0.419 0.462l-0.031 0.038 0.044 0.069-0.231 0.069-0.412-0.044-0.313-0.212-0.019-0.344 0.294-0.456 0.606-0.588-0.087-0.094-0.613 0.594-0.325 0.512 0.006 0.063-0.294 0.063-0.319-0.038-0.269-0.306-0.244-0.344 0.119-0.287 0.337-0.488 0.487-0.269 0.025 0.019c0.006-0.013 0.019-0.025 0.031-0.044l0.319-0.175 0.687-0.488-0.075-0.106-0.675 0.481-0.144 0.081c0.012-0.025 0.019-0.056 0.019-0.087 0.006-0.050 0.156-0.231 0.288-0.375l0.044-0.044-0.213-0.213-0.612-0.069-0.019 0.012c-0.137 0.094-0.281 0.181-0.431 0.25-0.050 0-0.119 0.050-0.287 0.175-0.069 0.056-0.144 0.106-0.219 0.15-0.075 0.006-0.225 0.106-0.325 0.175l-0.506 0.019-0.35-0.306 0.069-0.337 0.25-0.137 0.119-0.119 0.4 0.281 0.012 0.119-0.244 0.244 0.088 0.088 0.288-0.288-0.031-0.238-0.425-0.3 0.188-0.187 0.675-0.5 0.6-0.344 0.425-0.081 0.575 0.394 0.188 0.369zM20.45 24.462l-0.169-0.1-0.375-0.412 0.575-0.45 0.594-0.575 0.388-0.538 0.219 0.025 0.094 0.094c-0.119 0.131-0.281 0.325-0.281 0.412-0.019 0.075-0.056 0.144-0.1 0.2l-0.544 0.3-0.363 0.519-0.15 0.375 0.113 0.15z"></path>
<path fill="#000" style="fill: var(--color6, #000)" d="M21.981 11.725l0.319 0.419c0 0 0.156 0.244 0.212 0.262s0.575 0.319 0.575 0.319l0.212 0.238-0.044 0.137-0.163-0.050 0.025 0.806h0.050v-0.725l0.144 0.081 0.038-0.306-0.406-0.356-0.438-0.212 0.019-0.012-0.337-0.531-0.681-0.6-0.075 0.088h0.069l0.481 0.444z"></path>
<path fill="#000" style="fill: var(--color6, #000)" d="M23.044 15.019c0 0-0.231 0.463-0.256 0.475-0.025 0.019-0.231 0.106-0.231 0.106l0.019 0.112c0.094 0.069 0.188 0.144 0.269 0.225 0.012 0.019 0.15 0.294 0.262 0.5h0.112c-0.106-0.312-0.319-0.581-0.6-0.75 0.012-0.025 0.025-0.056 0.038-0.081 0.019-0.013 0.044-0.025 0.063-0.044 0.306-0.231 0.462-0.631 0.481-1.194v-0.394l-0.075-0.112 0.019 0.606-0.1 0.55z"></path>
<path fill="#000" style="fill: var(--color6, #000)" d="M22.094 11.888l0.238 0.369-0.031-0.019-0.788-0.069-0.887 0.156-0.363 0.156 0.050 0.119 0.344-0.15 0.863-0.15 0.75 0.063 0.619 0.3 0.344 0.3-0.006 0.050-0.069-0.037-0.731-0.269-0.013-0.006c-0.031-0.006-0.75-0.112-0.931-0.112s-0.856 0.106-0.888 0.112h-0.012l-0.888 0.575 0.069 0.106 0.869-0.563c0.1-0.012 0.7-0.106 0.856-0.106 0.163 0 0.831 0.1 0.906 0.106l0.675 0.244v0.688l-0.169-0.25-0.35-0.4-0.813-0.088h-0.863l-0.694 0.494-0.656 0.744-0.238 0.694 0.038 0.025c0.031 0.025 0.331 0.256 0.544 0.256 0.119 0 0.581 0.075 0.881 0.119 0.244 0.037 0.344 0.056 0.369 0.056 0.069 0 0.819-0.188 1.044-0.244l0.506-0.231 0.419-0.494c-0.025 0.481-0.169 0.831-0.425 1.025-0.369 0.281-0.85 0.162-0.85 0.162l-0.025 0.125c0.094 0.019 0.187 0.031 0.281 0.031 0.15 0 0.3-0.025 0.438-0.081-0.113 0.231-0.256 0.381-0.425 0.444-0.144 0.050-0.306 0.038-0.444-0.031l-0.063 0.112c0.1 0.050 0.213 0.075 0.319 0.075 0.075 0 0.15-0.012 0.225-0.038 0.188-0.069 0.344-0.219 0.475-0.456 0.238 0.15 0.425 0.375 0.525 0.638h0.019c-0.106-0.206-0.25-0.481-0.262-0.5-0.087-0.081-0.175-0.156-0.269-0.225l-0.019-0.112c0 0 0.206-0.088 0.231-0.106s0.256-0.475 0.256-0.475l0.1-0.544-0.019-0.606-0.025-0.806 0.163 0.050 0.044-0.137-0.212-0.238c0 0-0.519-0.306-0.575-0.319-0.056-0.019-0.213-0.262-0.213-0.262l-0.319-0.419-0.488-0.437h-0.069l-0.006 0.006 0.637 0.581zM23.069 14.419l-0.050-0.319-1.225-0.5-1.481-0.044-0.006 0.125 1.456 0.044 1.137 0.463 0.031 0.2-0.369 0.425-0.462 0.213c-0.363 0.087-0.95 0.231-1.006 0.238-0.025 0-0.187-0.025-0.35-0.050-0.344-0.056-0.769-0.125-0.9-0.125-0.125 0-0.325-0.125-0.431-0.2l0.2-0.581 0.625-0.706 0.656-0.469h0.813l0.762 0.087 0.312 0.35 0.294 0.444v0.35c-0.006 0.019-0.006 0.037-0.006 0.056z"></path>
<path fill="#000" style="fill: var(--color6, #000)" d="M19.075 20.525l0.4-0.044h-0.706l0.306 0.044z"></path>
<path fill="#000" style="fill: var(--color6, #000)" d="M22.631 20.506c-0.019 0.031-0.381 0.619-0.381 0.619l-0.162 0.087 0.038 0.044 0.287-0.25 0.275-0.462v-0.063h-0.056c0.006 0.012 0.006 0.019 0 0.025z"></path>
<path fill="#000" style="fill: var(--color6, #000)" d="M22.631 20.506c0-0.006 0.006-0.019 0.006-0.025h-0.069v0.025l-0.25 0.412-0.269 0.238 0.044 0.050 0.006 0.006 0.163-0.087c-0.006 0 0.356-0.581 0.369-0.619z"></path>
<path fill="#000" style="fill: var(--color6, #000)" d="M23.231 16.675l0.056 0.081c-0.013-0.106-0.031-0.212-0.069-0.319h-0.112c0.069 0.131 0.125 0.238 0.125 0.238z"></path>
<path fill="#000" style="fill: var(--color6, #000)" d="M23.637 17.375c-0.006 0.031-0.081 0.281-0.1 0.319-0.019 0.044-0.606 0.85-0.606 0.85l0.138 0.281c0 0 0.025 0.2 0.006 0.231s-0.538 0.837-0.538 0.837l0.081 0.225c0 0 0.019 0.281 0.012 0.369h0.056v-0.431l-0.069-0.188 0.056-0.044 0.381-0.588 0.1-0.319-0.15-0.369c0.012-0.012 0.019-0.019 0.019-0.019l0.487-0.669 0.194-0.356-0.006-0.025c-0.025-0.1-0.050-0.206-0.063-0.313 0-0.025 0-0.094-0.325-0.438l-0.025 0.025 0.194 0.275c0 0 0.163 0.313 0.156 0.344z"></path>
<path fill="#000" style="fill: var(--color6, #000)" d="M23.107 16.438h-0.019c0.075 0.194 0.1 0.4 0.075 0.606l-0.413 0.706-0.425 0.506c-0.288 0.1-0.756 0.256-0.837 0.256-0.131 0-1.344 0.019-1.425 0.025-0.094-0.006-1.581-0.087-1.775-0.087-0.113 0-0.663-0.088-1.063-0.156-0.369-0.063-0.525-0.087-0.563-0.087-0.081-0.006-1.238-0.238-2-0.394l-1.556-0.481-0.713-0.162-0.306 0.225-0.1 0.344 0.075 0.369 0.769 0.519 1.256 0.725 1.431 0.594h0.006l1.494 0.244 0.925 0.175 0.819 0.112h0.712l1.269-0.131 0.887 0.019 0.569-0.163 0.319-0.256 0.050 0.125v0.406h0.069c0.006-0.087-0.012-0.369-0.012-0.369l-0.081-0.225c0 0 0.519-0.806 0.538-0.837s-0.006-0.231-0.006-0.231l-0.137-0.281c0 0 0.594-0.806 0.606-0.85 0.019-0.044 0.087-0.288 0.1-0.319 0.006-0.031-0.156-0.344-0.156-0.344l-0.194-0.275-0.056-0.081c-0.006 0.012-0.063-0.094-0.131-0.225zM23.288 17.075c0.006-0.056 0.012-0.112 0.012-0.169 0.081 0.081 0.15 0.175 0.212 0.275 0.013 0.106 0.031 0.212 0.063 0.312l-0.163 0.306-0.475 0.65c-0.012 0.012-0.050 0.044-0.094 0.087-0.369 0.337-0.538 0.469-0.575 0.488l-0.519 0.131-1.481 0.063-1.55-0.088-1.556-0.281-1.25 0.025-1.281-0.325-1.131-0.394-0.606-0.369-0.069 0.106 0.612 0.375 1.15 0.4 1.3 0.331h0.006l1.25-0.025 1.55 0.281 1.569 0.088 1.494-0.069 0.538-0.131c0.025-0.006 0.088-0.025 0.613-0.5l0.119 0.287-0.081 0.256-0.363 0.556-0.444 0.356-0.525 0.15-0.875-0.019-1.663 0.175-1.106-0.15-0.925-0.175-1.481-0.238-1.413-0.588-1.244-0.719-0.725-0.488-0.056-0.287 0.075-0.269 0.225-0.169 0.65 0.144 1.556 0.481h0.006c0.325 0.069 1.938 0.394 2.031 0.394 0.031 0 0.294 0.044 0.544 0.081 0.45 0.075 0.956 0.156 1.081 0.156 0.194 0 1.756 0.088 1.775 0.088 0.012 0 1.294-0.025 1.425-0.025 0.137 0 0.775-0.225 0.9-0.269l0.019-0.006 0.45-0.538 0.431-0.744-0.006-0.013z"></path>
<path fill="#000" style="fill: var(--color6, #000)" d="M12.594 16.931c0.144-0.031 0.294-0.031 0.438 0l0.031-0.125c-0.031-0.006-0.794-0.2-1.488 0.612l0.094 0.081c0.338-0.394 0.687-0.525 0.925-0.569z"></path>
<path fill="#000" style="fill: var(--color6, #000)" d="M12.394 16.438l0.425-0.1-0.025-0.125-0.637 0.15 0.019 0.075h0.219z"></path>
<path fill="#000" style="fill: var(--color6, #000)" d="M12.188 16.488l0.206-0.050h-0.219l0.013 0.050z"></path>
<path fill="#000" style="fill: var(--color6, #000)" d="M19.956 15.875c0.25 0.163 0.481 0.35 0.688 0.563h0.175c-0.175-0.2-0.369-0.375-0.581-0.531l0.494 0.056 0.425-0.088-0.025-0.125-0.406 0.088-0.713-0.081c-0.112-0.075-0.231-0.137-0.356-0.194l-0.056 0.112 0.356 0.2z"></path>
<path fill="#000" style="fill: var(--color6, #000)" d="M21.038 16.962l0.112-0.063c-0.094-0.163-0.206-0.319-0.331-0.462h-0.175c0.15 0.163 0.281 0.337 0.394 0.525z"></path>
<path fill="#000" style="fill: var(--color6, #000)" d="M13 13.694l0.219 0.125 0.012 0.081 0.094-0.019 0.694 0.406h0.006c0.206 0.1 0.45 0.225 0.481 0.262 0.044 0.062 0.525 0.331 0.919 0.55l0.006 0.006h0.006c0.319 0.069 0.944 0.206 1.044 0.238 0.075 0.025 0.306 0.031 0.512 0.031 0.181 0 0.35-0.006 0.381-0.006l0.75-0.088 0.544-0.2-0.006-0.019 0.163 0.106v0.156l-0.231 0.212-0.525 0.219-0.094 0.081 0.006-0.044c-0.238-0.019-0.519-0.056-0.563-0.075-0.031-0.019-0.081-0.056-1.262-0.056-0.225 0-0.787-0.125-0.856-0.15-0.063-0.019-0.55-0.169-0.644-0.194-0.081-0.081-0.575-0.537-0.969-0.769l-0.063 0.112c0.406 0.238 0.95 0.75 0.95 0.756l0.013 0.013 0.012 0.006c0.006 0 0.594 0.175 0.656 0.194 0.075 0.025 0.65 0.156 0.9 0.156 0.981 0 1.163 0.025 1.2 0.037 0.069 0.037 0.331 0.069 0.531 0.087l-0.069 0.056-0.288 0.469h0.15l0.238-0.387 0.225-0.188 0.525-0.219 0.294-0.269v-0.281l-0.319-0.206-0.219-0.688-0.475-0.631-0.494-0.294-1.194-0.619-0.919-0.087-1.088 0.112-0.838 0.319-0.463 0.575-0.281 0.15-0.112-0.1 0.056-0.338 0.531-0.513 0.469-0.381 0.656-0.125 0.738-0.019h0.788l0.644 0.019 0.669 0.369c0.288 0.15 0.619 0.338 0.65 0.388 0.044 0.087 0.531 0.55 0.688 0.694l0.444 0.575 0.063 0.463 0.125-0.019-0.069-0.5-0.469-0.606-0.006-0.006c-0.306-0.281-0.637-0.606-0.669-0.662-0.044-0.094-0.462-0.319-0.706-0.444l-0.456-0.25 1.044 0.019 0.375 0.231 0.494 0.45 0.269 0.338 0.131 0.706 0.125-0.025-0.137-0.738-0.294-0.363-0.512-0.469-0.419-0.256-1.331-0.025-0.656-0.025h-0.794l-0.744 0.025-0.706 0.137-0.494 0.406-0.569 0.544-0.075 0.45 0.238 0.206 0.35-0.188zM17.875 13.669l0.444 0.594 0.225 0.712 0.025 0.013-0.444 0.169-0.738 0.088c-0.281 0.006-0.762 0.012-0.85-0.019-0.125-0.044-0.95-0.219-1.050-0.244-0.394-0.212-0.825-0.456-0.869-0.506-0.050-0.069-0.35-0.219-0.525-0.306l-0.563-0.331 0.413-0.075c0.256-0.031 0.931-0.106 1.019-0.106 0.037 0 0.175 0.013 0.319 0.025 0.425 0.037 0.625 0.050 0.681 0.037 0.063-0.012 0.656-0.075 1.044-0.106l0.612-0.044-0.006-0.063 0.262 0.162zM13.5 13.106l0.788-0.3 1.063-0.106 0.881 0.088 1.169 0.606 0.106 0.063-0.519 0.037c-0.1 0.006-0.975 0.088-1.063 0.113-0.056 0.012-0.419-0.025-0.644-0.044-0.162-0.012-0.288-0.025-0.331-0.025-0.113 0-1 0.106-1.038 0.113l-0.562 0.106-0.256-0.15 0.406-0.5z"></path>
<path fill="#000" style="fill: var(--color6, #000)" d="M17.475 16.531c-0.144 0.081-0.287 0.144-0.438 0.206-0.069 0-0.456 0.181-0.769 0.331-0.056 0.019-0.569 0.175-0.688 0.194l0.019 0.125c0.131-0.025 0.688-0.194 0.712-0.2l0.006-0.006c0.312-0.15 0.669-0.312 0.719-0.325 0.075-0.006 0.35-0.144 0.506-0.225l0.012-0.006 0.119-0.194h-0.15l-0.050 0.1z"></path>
<path fill="#000" style="fill: var(--color6, #000)" d="M18.075 11.412l-0.081 0.056c0.038-0.006 0.075-0.006 0.113-0.012l-0.031-0.044z"></path>
<path fill="#000" style="fill: var(--color6, #000)" d="M18.369 12.056l0.162 0.281-0.081 0.281 0.125 0.037 0.094-0.331-0.188-0.331-0.369-0.531c-0.038 0.006-0.075 0.006-0.112 0.012l-0.025 0.019 0.394 0.563z"></path>
<path fill="#c82727" style="fill: var(--color24, #c82727)" d="M22.194 11.906l0.556-0.056c0 0 1.388 0.412 1.444 0.469s0.756 0.363 0.756 0.363l0.413 0.037 0.056-0.375-0.306-0.438-0.881-0.65-1.006-0.488-0.631-0.219-0.225-3.188-0.531-0.794-0.794-0.65-1.025-0.506-1.063-0.019-2 0.25-1.838 0.362-0.106-0.313c-0.144-0.037-0.287-0.063-0.431-0.081-0.106 0-1.081 0.3-1.081 0.3l-0.594 0.313-0.125 0.362-0.85 0.469-0.687 0.862-0.394 0.831c0 0-0.2 0.831-0.2 0.881s0.106 0.506 0.181 0.537c0.075 0.031 0.631 0.181 0.631 0.181l0.731 0.363 1.056 0.613 1.313 0.431c0 0 1.244-0.087 1.369-0.087s2-0.2 2.106-0.2 2.163-0.163 2.219-0.163c0.056 0 1.281-0.019 1.281-0.019l0.488 0.431 0.169 0.188z"></path>
<path fill="#000" style="fill: var(--color6, #000)" d="M21.706 13.675l0.163 0.344 0.1 0.394-0.050 0.25-0.212 0.544-0.675 0.112-1.087-0.194-0.131-0.381 0.050-0.344 0.112-0.544 0.281-0.312 0.181 0.1 1.2 0.031z"></path>
<path fill="#000" style="fill: var(--color6, #000)" d="M16.756 13.625l0.2 0.381 0.019 0.462-0.1 0.413-0.212 0.331-0.344 0.019-1.319-0.394-0.525-0.463 0.069-0.294 0.181-0.281 0.244-0.194 0.925 0.025c-0.012-0.006 0.825 0.063 0.863-0.006z"></path>
<path fill="#000" style="fill: var(--color6, #000)" d="M25.25 11.956l-0.512-0.45-0.738-0.494-1.212-0.444-0.169-0.069-0.050-1.044c-0.063-0.512-0.15-1.287-0.15-1.35 0-0.088-0.044-0.725-0.044-0.75v-0.013l-0.363-0.656-0.606-0.625-0.931-0.531-0.775-0.219h-1.063l-1.044 0.131c-0.419 0.069-1.075 0.175-1.15 0.175-0.113 0-0.988 0.2-1.088 0.219l-0.306 0.081 0.050-0.025-0.1-0.2-0.325-0.125-0.475 0.044-0.762 0.188-0.575 0.369-0.119 0.306 0.081 0.031-0.319 0.081h-0.013l-0.675 0.425-0.469 0.531-0.425 0.712-0.338 1.162v0.419l0.219 0.387 1.369 0.488 0.456 0.412 1.019 0.463 0.9 0.225 1.681-0.112 2.431-0.262 1.731-0.131 1.438 0.019 1.519 0.219 1.2 0.569 0.056-0.112-1.213-0.575-1.544-0.219-1.456-0.025-1.738 0.131-2.431 0.262-1.656 0.106-0.863-0.212-0.994-0.456-0.463-0.419-1.35-0.481-0.175-0.313v-0.369l0.325-1.125 0.412-0.688 0.45-0.513 0.644-0.406 2.838-0.744c0.369-0.081 0.988-0.219 1.062-0.219 0.113 0 1.063-0.156 1.169-0.175l1.025-0.131h1.038l0.731 0.213 0.906 0.519 0.581 0.6 0.337 0.619c0.012 0.231 0.044 0.663 0.044 0.725 0 0.088 0.137 1.238 0.156 1.363l0.050 0.981-0.738-0.281-1.456-0.156-1.1-0.113-1.081 0.088-1.25 0.131-1.456 0.331-1.094 0.262-0.731 0.044-0.938-0.188 0.475 0.344 0.387 0.225 0.888 0.219 0.875 0.025 0.775-0.088 1.094-0.175 1.069-0.175 1.2-0.088 0.831-0.044 1 0.063 1.356 0.175 1.75 0.331 0.306 0.2 0.488 0.425 0.137 0.319-0.031 0.238-0.262 0.019-0.513-0.238-0.944-0.375-0.744-0.225-0.65 0.069 0.012 0.125 0.625-0.063 0.706 0.213 0.938 0.369 0.544 0.25 0.394-0.025 0.056-0.375-0.163-0.35zM12.875 6.487l0.094-0.237 0.519-0.331 0.731-0.175 0.444-0.044 0.25 0.094 0.069 0.138-2.106 0.556zM22.619 10.95l-1.369-0.175-1.012-0.069-0.837 0.044-1.206 0.088-2.175 0.35-0.762 0.088-0.844-0.019-0.863-0.213-0.362-0.213h-0.006l0.381 0.075 0.756-0.044 1.106-0.262 1.444-0.325 1.244-0.131 1.069-0.088 1.088 0.106 1.438 0.15 1.025 0.394 1.2 0.438 0.138 0.094-1.45-0.287z"></path>
<path fill="#fff" style="fill: var(--color1, #fff)" d="M16.344 14.661c0.208-0.062 0.335-0.254 0.283-0.43s-0.263-0.267-0.472-0.205c-0.208 0.062-0.335 0.254-0.283 0.43s0.263 0.267 0.472 0.205z"></path>
<path fill="#fff" style="fill: var(--color1, #fff)" d="M15.325 14.625c0.090 0 0.162-0.073 0.162-0.162s-0.073-0.162-0.162-0.162c-0.090 0-0.162 0.073-0.162 0.162s0.073 0.162 0.162 0.162z"></path>
<path fill="#fff" style="fill: var(--color1, #fff)" d="M15.225 14.119c0.090 0 0.162-0.073 0.162-0.162s-0.073-0.162-0.162-0.162c-0.090 0-0.162 0.073-0.162 0.162s0.073 0.162 0.162 0.162z"></path>
<path fill="#fff" style="fill: var(--color1, #fff)" d="M20.519 14.831c0.083 0 0.15-0.067 0.15-0.15s-0.067-0.15-0.15-0.15c-0.083 0-0.15 0.067-0.15 0.15s0.067 0.15 0.15 0.15z"></path>
<path fill="#fff" style="fill: var(--color1, #fff)" d="M20.5 14.262c0.090 0 0.163-0.073 0.163-0.162s-0.073-0.162-0.163-0.162c-0.090 0-0.163 0.073-0.163 0.162s0.073 0.162 0.163 0.162z"></path>
<path fill="#fff" style="fill: var(--color1, #fff)" d="M21.394 14.725c0.162 0 0.294-0.132 0.294-0.294s-0.132-0.294-0.294-0.294c-0.162 0-0.294 0.132-0.294 0.294s0.132 0.294 0.294 0.294z"></path>
</symbol>
<symbol id="icon-ltc_icon" viewBox="0 0 32 32">
<path fill="#345d9d" style="fill: var(--color25, #345d9d)" d="M16 0c-4.228 0.012-8.278 1.702-11.261 4.698s-4.655 7.054-4.649 11.281c0.006 4.228 1.69 8.28 4.682 11.268s7.047 4.665 11.275 4.665 8.283-1.678 11.275-4.665c2.992-2.987 4.676-7.040 4.682-11.268s-1.666-8.285-4.649-11.281-7.033-4.686-11.261-4.698h-0.093z"></path>
<path fill="#fff" style="fill: var(--color1, #fff)" d="M16.291 16.358l-1.409 4.733h7.5c0.050-0.002 0.099 0.006 0.145 0.023s0.089 0.044 0.125 0.077c0.036 0.034 0.065 0.075 0.086 0.121 0.022 0.046 0.034 0.095 0.035 0.145v0.124l-0.653 2.25c-0.028 0.107-0.092 0.2-0.182 0.265s-0.197 0.098-0.307 0.093h-11.476l1.923-6.545-2.151 0.652 0.489-1.5 2.151-0.653 2.707-9.207c0.029-0.106 0.094-0.199 0.183-0.263 0.088-0.065 0.196-0.099 0.305-0.096h2.909c0.050-0.001 0.099 0.007 0.145 0.025s0.090 0.043 0.127 0.077c0.037 0.034 0.066 0.075 0.086 0.121s0.032 0.095 0.034 0.145v0.125l-2.282 7.76 2.153-0.653-0.46 1.562-2.182 0.62z"></path>
</symbol>
<symbol id="icon-shiba_icon" viewBox="0 0 32 32">
<path fill="#f00500" style="fill: var(--color26, #f00500)" d="M16 0c8.837 0 16 7.163 16 16s-7.163 16-16 16c-8.837 0-16-7.163-16-16s7.163-16 16-16z"></path>
<path fill="#f00500" style="fill: var(--color26, #f00500)" d="M20.857 7.556c-0.538 0.538-1.032 1.122-1.47 1.744l-0.139-0.045c-0.799-0.261-1.628-0.422-2.463-0.477-0.251-0.019-1.19-0.019-1.496 0-0.925 0.061-1.634 0.2-2.44 0.48-0.032 0.013-0.061 0.023-0.090 0.032-0.454-0.619-0.961-1.199-1.518-1.731 2.676-1.37 5.806-1.534 8.607-0.455 0.3 0.113 0.593 0.245 0.88 0.387l0.129 0.064z"></path>
<path fill="#f00500" style="fill: var(--color26, #f00500)" d="M25.848 19.784c-0.406 1.157-1.016 2.231-1.805 3.166-0.429 0.503-0.903 0.964-1.412 1.383-1.193 0.961-2.585 1.647-4.072 2.008-1.644 0.396-3.359 0.396-5.003 0-1.489-0.361-2.879-1.048-4.072-2.008-0.509-0.419-0.983-0.88-1.412-1.383-2.273-2.685-2.963-6.373-1.805-9.697 0.219-0.616 0.493-1.209 0.822-1.773 0.152-0.258 0.338-0.548 0.429-0.667 0.309 1.331 0.69 2.502 0.832 2.924-0.010 0.023-0.023 0.048-0.035 0.071-0.751 1.522-1.157 2.988-1.254 4.549 0 0.019-0.003 0.042-0.003 0.061-0.026 0.468-0.013 0.69 0.064 0.983 0.242 0.919 0.986 1.931 2.154 2.924 1.912 1.625 4.504 2.798 6.467 2.934 2.047 0.139 5.068-1.057 7.079-2.805 0.316-0.28 0.613-0.577 0.89-0.893 0.2-0.232 0.496-0.632 0.474-0.632-0.006 0 0-0.006 0.013-0.013 0.010-0.006 0.019-0.016 0.013-0.023-0.003-0.003 0.003-0.013 0.013-0.016s0.016-0.010 0.013-0.016c-0.003-0.006 0-0.013 0.013-0.016 0.010-0.003 0.013-0.013 0.010-0.019s0-0.013 0.006-0.013c0.006 0 0.013-0.010 0.013-0.016s0.006-0.016 0.013-0.016 0.013-0.006 0.013-0.013c0.010-0.026 0.026-0.052 0.042-0.074 0.048-0.074 0.242-0.419 0.268-0.477 0.184-0.416 0.3-0.787 0.355-1.157 0.026-0.177 0.042-0.503 0.029-0.58-0.003-0.013-0.003-0.035-0.006-0.071-0.006-0.064-0.010-0.161-0.016-0.258-0.006-0.145-0.019-0.348-0.029-0.448-0.139-1.464-0.513-2.66-1.222-3.927-0.029-0.048-0.055-0.097-0.071-0.135-0.006-0.010-0.010-0.019-0.013-0.026 0.1-0.3 0.509-1.554 0.835-2.988l0.006 0.006 0.048 0.064c0.084 0.113 0.306 0.448 0.406 0.609 0.454 0.741 0.809 1.538 1.061 2.369 0.584 2.002 0.535 4.136-0.148 6.109z"></path>
<path fill="#000" style="fill: var(--color6, #000)" d="M21.664 15.932c-0.010 0.052-0.161 0.206-0.313 0.319-0.445 0.326-1.241 0.629-2.050 0.774-0.461 0.084-0.922 0.097-1.061 0.029-0.090-0.045-0.103-0.081-0.071-0.197 0.068-0.242 0.287-0.506 0.629-0.754 0.174-0.126 0.88-0.554 1.209-0.735 0.542-0.297 0.98-0.474 1.277-0.516 0.093-0.013 0.206-0.016 0.242 0 0.058 0.023 0.122 0.193 0.148 0.4 0.013 0.11 0.006 0.593-0.010 0.68z"></path>
<path fill="#000" style="fill: var(--color6, #000)" d="M14.068 16.999c-0.019 0.039-0.116 0.081-0.226 0.097s-0.445 0.006-0.635-0.016c-0.683-0.090-1.409-0.3-1.937-0.558-0.297-0.145-0.509-0.29-0.667-0.448l-0.090-0.094-0.010-0.123c-0.016-0.213-0.013-0.548 0.013-0.667 0.016-0.1 0.052-0.197 0.1-0.284 0.026-0.032 0.026-0.032 0.142-0.032 0.142 0 0.261 0.023 0.455 0.084 0.396 0.122 0.986 0.419 1.705 0.851 0.593 0.355 0.816 0.529 0.986 0.767 0.116 0.148 0.194 0.358 0.164 0.422z"></path>
<path fill="#000" style="fill: var(--color6, #000)" d="M18.633 21.486c0 0.010-0.039 0.164-0.087 0.348s-0.087 0.332-0.087 0.338c-0.035 0.003-0.068 0.006-0.103 0.003h-0.103l-0.142 0.335c-0.077 0.184-0.148 0.355-0.158 0.38l-0.019 0.045-0.068-0.11-0.068-0.11v-0.893l-0.026 0.006c-0.055 0.013-0.445 0.064-0.616 0.081-0.706 0.071-1.415 0.055-2.118-0.045-0.113-0.016-0.21-0.029-0.213-0.026s0 0.209 0.006 0.464l0.010 0.458-0.055 0.084c-0.029 0.045-0.058 0.084-0.058 0.087-0.010 0.010-0.042-0.042-0.116-0.19-0.081-0.155-0.139-0.319-0.181-0.49l-0.023-0.093-0.1 0.006-0.1 0.010-0.026-0.119c-0.013-0.064-0.029-0.164-0.035-0.219l-0.010-0.103-0.084-0.074c-0.048-0.042-0.097-0.084-0.106-0.090-0.016-0.013-0.023-0.035-0.023-0.055v-0.039l0.806 0.006 0.026 0.084 0.139 0.006c0.077 0.003 0.322 0.010 0.542 0.016l0.403 0.010 0.103-0.161 0.106-0.161h0.135l-0.003-0.335-0.003-0.335-0.177-0.077c-0.57-0.251-0.906-0.538-1.032-0.887-0.026-0.071-0.026-0.097-0.032-0.419-0.003-0.319-0.003-0.348 0.019-0.419 0.045-0.161 0.171-0.287 0.332-0.329 0.055-0.016 0.2-0.016 0.961-0.016l0.896 0.003 0.1 0.048c0.119 0.058 0.174 0.1 0.242 0.19 0.077 0.103 0.1 0.184 0.1 0.38 0 0.281-0.019 0.522-0.048 0.619-0.042 0.132-0.106 0.258-0.187 0.371-0.161 0.206-0.455 0.413-0.722 0.506l-0.077 0.029 0.006 0.677 0.142 0.013 0.097 0.145 0.093 0.145h0.432c0.238 0 0.448 0.003 0.467 0.006 0.032 0.006 0.039 0.003 0.071-0.052l0.039-0.058h0.371c0.277-0.013 0.361-0.006 0.361 0.003z"></path>
<path fill="#000" style="fill: var(--color6, #000)" d="M16.93 22.411c-0.061 0.035-0.103 0.052-0.113 0.045-0.010-0.003-0.055-0.042-0.103-0.077l-0.087-0.071-0.090 0.097c-0.197 0.213-0.203 0.222-0.261 0.226-0.090 0.010-0.11-0.006-0.219-0.171-0.058-0.084-0.103-0.155-0.103-0.155s-0.042-0.006-0.090-0.010l-0.090-0.010-0.042 0.087-0.042 0.087-0.074-0.023c-0.058-0.019-0.116-0.042-0.171-0.068l-0.097-0.048v-0.184l1.715 0.006 0.003 0.087c0.003 0.103 0.006 0.1-0.135 0.181z"></path>
<path fill="#fff" style="fill: var(--color1, #fff)" d="M24.99 18.478c-0.003-0.013-0.003-0.035-0.006-0.071-0.774-0.084-2.982-0.135-5.032 1.557 0 0-0.661-3.030-3.756-3.030s-4.242 3.030-4.242 3.030c-1.734-1.866-4.055-1.731-4.894-1.609 0 0.019-0.003 0.042-0.003 0.061-0.026 0.467-0.013 0.69 0.064 0.983 0.242 0.919 0.986 1.931 2.154 2.924 1.912 1.625 4.504 2.798 6.467 2.934 2.047 0.139 5.068-1.058 7.079-2.805 0.316-0.281 0.612-0.577 0.89-0.893 0.2-0.232 0.496-0.632 0.474-0.632-0.006 0 0-0.006 0.013-0.013 0.010-0.006 0.019-0.016 0.013-0.023-0.003-0.003 0.003-0.013 0.013-0.016s0.016-0.010 0.013-0.016c-0.003-0.006 0-0.013 0.013-0.016 0.010-0.003 0.013-0.013 0.010-0.019s0-0.013 0.006-0.013c0.006 0 0.013-0.010 0.013-0.016s0.006-0.016 0.013-0.016c0.006 0 0.013-0.006 0.013-0.013 0.010-0.026 0.026-0.052 0.042-0.074 0.048-0.074 0.242-0.419 0.268-0.477 0.184-0.416 0.3-0.787 0.355-1.157 0.019-0.177 0.035-0.503 0.023-0.58zM16.931 22.411c-0.061 0.035-0.103 0.052-0.113 0.045-0.010-0.003-0.055-0.042-0.103-0.077l-0.087-0.071-0.090 0.097c-0.197 0.213-0.203 0.223-0.261 0.226-0.090 0.010-0.11-0.006-0.219-0.171-0.058-0.084-0.103-0.155-0.103-0.155s-0.042-0.006-0.090-0.010l-0.090-0.010-0.042 0.087-0.042 0.087-0.074-0.023c-0.058-0.019-0.116-0.042-0.171-0.068l-0.097-0.048v-0.184l1.715 0.006 0.003 0.087c0.003 0.103 0.006 0.1-0.135 0.181zM18.543 21.831c-0.048 0.184-0.087 0.332-0.087 0.338-0.035 0.003-0.068 0.006-0.103 0.003h-0.103l-0.139 0.338c-0.077 0.184-0.148 0.355-0.158 0.38l-0.019 0.045-0.068-0.11-0.068-0.11v-0.893l-0.026 0.006c-0.055 0.013-0.445 0.065-0.616 0.081-0.706 0.071-1.415 0.055-2.118-0.045-0.113-0.016-0.21-0.029-0.213-0.026s0 0.21 0.006 0.464l0.010 0.458-0.055 0.084c-0.029 0.045-0.058 0.084-0.058 0.087-0.010 0.010-0.042-0.042-0.116-0.19-0.081-0.155-0.139-0.319-0.181-0.49l-0.023-0.093-0.1 0.006-0.1 0.010-0.026-0.119c-0.013-0.064-0.029-0.164-0.035-0.219l-0.010-0.103-0.084-0.074c-0.048-0.042-0.097-0.084-0.106-0.090-0.016-0.013-0.023-0.036-0.023-0.055v-0.039l0.806 0.006 0.013 0.042 0.013 0.042 0.139 0.006c0.077 0.003 0.322 0.010 0.542 0.016l0.403 0.010 0.103-0.161 0.106-0.161h0.135l-0.006-0.671-0.177-0.077c-0.571-0.251-0.906-0.538-1.032-0.887-0.026-0.071-0.026-0.097-0.032-0.419-0.003-0.319-0.003-0.348 0.019-0.419 0.045-0.161 0.171-0.287 0.332-0.329 0.055-0.016 0.2-0.016 0.961-0.016l0.896 0.003 0.1 0.048c0.119 0.058 0.174 0.1 0.242 0.19 0.077 0.103 0.1 0.184 0.1 0.38 0 0.28-0.019 0.522-0.048 0.619-0.042 0.132-0.106 0.258-0.187 0.371-0.161 0.206-0.455 0.413-0.722 0.506l-0.077 0.029 0.003 0.338 0.003 0.338 0.142 0.013 0.097 0.145 0.093 0.145h0.432c0.238 0 0.448 0.003 0.467 0.006 0.032 0.006 0.039 0.003 0.071-0.052l0.039-0.058h0.371c0.287 0 0.371 0.003 0.371 0.013-0.010-0.003-0.052 0.155-0.1 0.335z"></path>
<path fill="#ffa409" style="fill: var(--color27, #ffa409)" d="M24.964 18.15c-0.006-0.145-0.019-0.348-0.029-0.448-0.139-1.464-0.513-2.66-1.222-3.927-0.029-0.048-0.055-0.097-0.071-0.135-0.006-0.010-0.010-0.019-0.013-0.026 0.1-0.3 0.509-1.554 0.835-2.988 0.442-1.947 0.722-4.223-0.135-4.907 0 0-1.483-0.11-3.469 1.838-0.538 0.538-1.032 1.122-1.47 1.744l-0.139-0.045c-0.8-0.261-1.628-0.422-2.463-0.477-0.251-0.019-1.19-0.019-1.496 0-0.925 0.061-1.634 0.2-2.44 0.48-0.032 0.013-0.061 0.023-0.090 0.032-0.454-0.619-0.961-1.199-1.518-1.731-2.066-1.957-3.604-1.844-3.604-1.844-0.909 0.706-0.6 3.085-0.129 5.097 0.309 1.331 0.69 2.502 0.832 2.924-0.010 0.023-0.023 0.048-0.035 0.071-0.751 1.522-1.157 2.988-1.254 4.549 0.841-0.122 3.159-0.261 4.897 1.609 0 0 1.148-3.030 4.242-3.030s3.756 3.030 3.756 3.030c2.050-1.692 4.259-1.638 5.032-1.557-0.003-0.064-0.010-0.161-0.016-0.258zM8.952 12.521c0 0-1.206-3.014-0.896-4.736 0.052-0.29 0.148-0.545 0.3-0.738 0 0 1.367 0.135 3.572 2.585 0 0-0.419 0.203-0.98 0.635 0 0-0.003 0.003-0.006 0.003-0.609 0.467-1.389 1.209-1.989 2.25zM14.068 16.999c-0.019 0.039-0.116 0.081-0.226 0.097s-0.445 0.006-0.635-0.016c-0.683-0.090-1.409-0.3-1.938-0.558-0.297-0.145-0.509-0.29-0.667-0.448l-0.090-0.094-0.010-0.123c-0.016-0.213-0.013-0.548 0.013-0.667 0.016-0.1 0.052-0.197 0.1-0.284 0.026-0.032 0.026-0.032 0.142-0.032 0.142 0 0.261 0.023 0.455 0.084 0.397 0.123 0.986 0.419 1.705 0.851 0.593 0.355 0.816 0.529 0.986 0.767 0.116 0.148 0.193 0.358 0.164 0.422zM21.663 15.932c-0.010 0.052-0.161 0.206-0.313 0.319-0.445 0.326-1.241 0.629-2.050 0.774-0.461 0.084-0.922 0.097-1.061 0.029-0.090-0.045-0.103-0.081-0.071-0.197 0.068-0.242 0.287-0.506 0.629-0.754 0.174-0.126 0.88-0.555 1.209-0.735 0.542-0.297 0.98-0.474 1.277-0.516 0.093-0.013 0.206-0.016 0.242 0 0.058 0.023 0.122 0.194 0.148 0.4 0.013 0.11 0.006 0.593-0.010 0.68zM21.128 10.267l-0.006-0.003c-0.542-0.432-0.948-0.635-0.948-0.635 2.131-2.45 3.45-2.585 3.45-2.585 0.145 0.197 0.238 0.448 0.29 0.738 0.3 1.721-0.864 4.739-0.864 4.739-0.487-0.867-1.141-1.634-1.921-2.253z"></path>
<path fill="#ff9300" style="fill: var(--color28, #ff9300)" d="M23.917 7.782c-0.251-0.032-1.441-0.039-2.789 2.486l-0.006-0.003c-0.542-0.432-0.948-0.635-0.948-0.635 2.131-2.45 3.45-2.585 3.45-2.585 0.148 0.197 0.242 0.448 0.293 0.738z"></path>
<path fill="#ff8300" style="fill: var(--color29, #ff8300)" d="M23.053 12.521c-0.49-0.87-1.141-1.634-1.925-2.253 1.348-2.524 2.534-2.518 2.789-2.486 0.3 1.725-0.864 4.739-0.864 4.739z"></path>
<path fill="#ff8300" style="fill: var(--color29, #ff8300)" d="M23.965 7.792c-0.016-0.003-0.032-0.006-0.048-0.010l0.048 0.010z"></path>
<path fill="#ff9300" style="fill: var(--color28, #ff9300)" d="M11.927 9.629c0 0-0.419 0.203-0.98 0.635 0 0-0.003 0.003-0.006 0.003-1.396-2.527-2.624-2.518-2.889-2.486 0.052-0.29 0.148-0.545 0.3-0.738 0.003 0 1.37 0.135 3.575 2.585z"></path>
<path fill="#ff8300" style="fill: var(--color29, #ff8300)" d="M10.944 10.267c-0.613 0.471-1.393 1.209-1.992 2.253 0 0-1.206-3.014-0.896-4.739 0.261-0.032 1.493-0.039 2.889 2.486z"></path>
<path fill="#ff8300" style="fill: var(--color29, #ff8300)" d="M8.056 7.782c-0.016 0.003-0.035 0.006-0.052 0.010l0.052-0.010z"></path>
<path fill="#fff" style="fill: var(--color1, #fff)" d="M19.79 14.194c0 0-1.032 0.064-0.903-0.742s0.935-0.903 1.161-0.87c0.226 0.032 1.128 0.355 0.967 1.032s-0.387 0.548-0.516 0.58c-0.129 0.032-0.709 0-0.709 0z"></path>
<path fill="#fff" style="fill: var(--color1, #fff)" d="M12.182 14.194c0 0-1.032 0.064-0.903-0.742s0.935-0.903 1.161-0.87c0.226 0.032 1.128 0.355 0.967 1.032s-0.387 0.548-0.516 0.58c-0.129 0.032-0.709 0-0.709 0z"></path>
</symbol>
<symbol id="icon-sui_icon" viewBox="0 0 32 32">
<path fill="#626aff" style="fill: var(--color30, #626aff)" d="M32 16c0 8.837-7.163 16-16 16s-16-7.163-16-16c0-8.837 7.163-16 16-16s16 7.163 16 16z"></path>
<path fill="#fff" style="fill: var(--color1, #fff)" d="M20.942 14.206c0.877 1.103 1.406 2.505 1.406 4.024s-0.54 2.96-1.445 4.075l-0.079 0.096-0.023-0.124c-0.017-0.101-0.039-0.208-0.062-0.315-0.45-1.987-1.923-3.692-4.352-5.077-1.636-0.929-2.575-2.049-2.823-3.321-0.158-0.822-0.039-1.649 0.185-2.358 0.231-0.709 0.568-1.3 0.855-1.655l0.945-1.154c0.163-0.203 0.478-0.203 0.641 0l4.751 5.808zM22.432 13.052l-6.32-7.733c-0.118-0.146-0.349-0.146-0.467 0l-6.348 7.761c-1.158 1.447-1.856 3.281-1.856 5.279 0 4.654 3.778 8.431 8.434 8.431s8.434-3.777 8.434-8.431c0-1.998-0.697-3.833-1.861-5.279l-0.017-0.028zM10.832 14.184l0.562-0.692 0.017 0.13c0.011 0.101 0.028 0.203 0.051 0.304 0.366 1.919 1.676 3.523 3.857 4.761 1.9 1.081 3.002 2.324 3.323 3.692 0.135 0.568 0.157 1.131 0.101 1.621l-0.006 0.028-0.028 0.011c-0.855 0.416-1.822 0.653-2.84 0.653-3.57 0-6.466-2.893-6.466-6.461 0-1.531 0.534-2.944 1.428-4.047z"></path>
</symbol>
<symbol id="icon-atom_icon" viewBox="0 0 32 32">
<path fill="#2e3148" style="fill: var(--color31, #2e3148)" d="M16 32c8.837 0 16-7.163 16-16s-7.163-16-16-16c-8.837 0-16 7.163-16 16s7.163 16 16 16z"></path>
<path fill="#fff" style="fill: var(--color1, #fff)" d="M16.020 5.53c-1.295 0-2.345 4.697-2.345 10.49s1.050 10.49 2.345 10.49c1.294 0 2.344-4.697 2.344-10.49s-1.050-10.49-2.344-10.49zM16.182 25.917c-0.148 0.198-0.297 0.050-0.297 0.050-0.596-0.692-0.894-1.975-0.894-1.975-1.043-3.357-0.795-10.564-0.795-10.564 0.49-5.721 1.382-7.073 1.685-7.373 0.031-0.031 0.072-0.050 0.116-0.053s0.087 0.009 0.122 0.034c0.44 0.313 0.81 1.617 0.81 1.617 1.090 4.048 0.991 7.848 0.991 7.848 0.099 3.308-0.546 7.010-0.546 7.010-0.497 2.814-1.192 3.406-1.192 3.406z"></path>
<path fill="#fff" style="fill: var(--color1, #fff)" d="M25.118 10.8c-0.645-1.124-5.24 0.303-10.267 3.186s-8.573 6.13-7.93 7.254c0.645 1.124 5.241-0.303 10.268-3.186s8.574-6.131 7.93-7.254h-0.001zM7.515 21.085c-0.246-0.030-0.19-0.234-0.19-0.234 0.302-0.86 1.266-1.758 1.266-1.758 2.393-2.575 8.769-5.946 8.769-5.946 5.206-2.422 6.823-2.32 7.233-2.208 0.042 0.012 0.079 0.038 0.104 0.074s0.036 0.080 0.031 0.124c-0.050 0.537-1 1.507-1 1.507-2.966 2.961-6.312 4.768-6.312 4.768-2.82 1.732-6.353 3.013-6.353 3.013-2.688 0.968-3.548 0.66-3.548 0.66z"></path>
<path fill="#fff" style="fill: var(--color1, #fff)" d="M25.095 21.277c0.65-1.12-2.887-4.383-7.898-7.288-5.010-2.904-9.604-4.348-10.253-3.226s2.888 4.383 7.9 7.288c5.013 2.904 9.602 4.348 10.251 3.226zM7.375 11.196c-0.097-0.228 0.106-0.283 0.106-0.283 0.897-0.17 2.157 0.217 2.157 0.217 3.427 0.78 9.538 4.608 9.538 4.608 4.705 3.292 5.427 4.743 5.535 5.154 0.011 0.042 0.006 0.087-0.012 0.126s-0.051 0.071-0.091 0.089c-0.49 0.225-1.805-0.11-1.805-0.11-4.050-1.086-7.289-3.075-7.289-3.075-2.91-1.57-5.788-3.985-5.788-3.985-2.187-1.842-2.35-2.74-2.35-2.74l-0.002-0.001h0.001z"></path>
<path fill="#fff" style="fill: var(--color1, #fff)" d="M15.995 17.229c0.681 0 1.234-0.552 1.234-1.234s-0.552-1.234-1.234-1.234c-0.682 0-1.234 0.553-1.234 1.234s0.552 1.234 1.234 1.234z"></path>
<path fill="#fff" style="fill: var(--color1, #fff)" d="M21.055 12.256c0.552 0 1-0.448 1-1s-0.448-1-1-1c-0.552 0-1 0.448-1 1s0.448 1 1 1z"></path>
<path fill="#fff" style="fill: var(--color1, #fff)" d="M9.306 14.774c0.552 0 1-0.448 1-1s-0.448-1-1-1-1 0.448-1 1c0 0.552 0.448 1 1 1z"></path>
<path fill="#fff" style="fill: var(--color1, #fff)" d="M14.539 23.856c0.552 0 1-0.448 1-1s-0.448-1-1-1c-0.552 0-1 0.448-1 1s0.448 1 1 1z"></path>
</symbol>
<symbol id="icon-link_icon" viewBox="0 0 32 32">
<path fill="#000" style="fill: var(--color6, #000)" d="M16 0c8.837 0 16 7.163 16 16s-7.163 16-16 16c-8.837 0-16-7.163-16-16s7.163-16 16-16z"></path>
<path fill="#fff" style="fill: var(--color1, #fff)" d="M16 32c8.837 0 16-7.163 16-16s-7.163-16-16-16c-8.837 0-16 7.163-16 16s7.163 16 16 16z"></path>
<path fill="#2a5ada" style="fill: var(--color32, #2a5ada)" d="M16 4.247l-2.157 1.241-8.025 4.636v11.753l2.156 1.239 8.087 4.637 2.157-1.239 5.818-3.398 2.156-1.239v-11.753l-2.156-1.239-8.036-4.637zM10.124 19.396v-6.793l5.876-3.396 5.876 3.396v6.793l-5.876 3.396-5.876-3.396z"></path>
</symbol>
<symbol id="icon-doge_icon" viewBox="0 0 32 32">
<path fill="#c3a634" style="fill: var(--color33, #c3a634)" d="M16 32c8.837 0 16-7.163 16-16s-7.163-16-16-16c-8.837 0-16 7.163-16 16s7.163 16 16 16z"></path>
<path fill="#fff" style="fill: var(--color1, #fff)" d="M13.248 14.61h4.314v2.286h-4.314v4.818h2.721c1.077 0 1.958-0.145 2.644-0.437 0.686-0.291 1.224-0.694 1.615-1.21 0.4-0.537 0.672-1.157 0.796-1.815 0.144-0.742 0.215-1.496 0.21-2.252 0.005-0.756-0.066-1.51-0.21-2.252-0.124-0.658-0.396-1.278-0.796-1.815-0.391-0.516-0.93-0.919-1.615-1.21-0.686-0.292-1.567-0.437-2.644-0.437h-2.721v4.324zM10.482 16.896h-1.482v-2.285h1.482v-6.611h6.549c1.21 0 2.257 0.21 3.142 0.627 0.885 0.419 1.607 0.99 2.168 1.715 0.56 0.724 0.977 1.572 1.25 2.543s0.409 2.010 0.409 3.115c0.007 1.052-0.131 2.1-0.41 3.115-0.272 0.97-0.689 1.819-1.25 2.543-0.56 0.725-1.282 1.296-2.167 1.715-0.885 0.418-1.933 0.627-3.142 0.627h-6.549v-7.104z"></path>
</symbol>
<symbol id="icon-xpr_icon" viewBox="0 0 32 32">
<path fill="#23292f" style="fill: var(--color34, #23292f)" d="M16 32c8.837 0 16-7.163 16-16s-7.163-16-16-16c-8.837 0-16 7.163-16 16s7.163 16 16 16z"></path>
<path fill="#fff" style="fill: var(--color1, #fff)" d="M23.070 8h2.89l-6.015 5.957c-1.052 1.036-2.469 1.617-3.945 1.617s-2.893-0.581-3.945-1.617l-6.020-5.957h2.895l4.57 4.523c0.665 0.657 1.563 1.025 2.498 1.025s1.832-0.368 2.498-1.025l4.574-4.523zM8.895 24.563h-2.895l6.055-5.993c1.052-1.036 2.469-1.617 3.945-1.617s2.893 0.581 3.945 1.617l6.055 5.992h-2.895l-4.605-4.562c-0.666-0.657-1.563-1.025-2.498-1.025s-1.833 0.368-2.498 1.025l-4.609 4.563z"></path>
</symbol>
<symbol id="icon-ada_icon" viewBox="0 0 32 32">
<path fill="#0d1e30" style="fill: var(--color35, #0d1e30)" d="M16 32c8.837 0 16-7.163 16-16s-7.163-16-16-16c-8.837 0-16 7.163-16 16s7.163 16 16 16z"></path>
<path fill="#000" style="fill: var(--color6, #000)" d="M15.725 6.060c0.479-0.247 1.064 0.324 0.81 0.795-0.149 0.384-0.71 0.486-0.996 0.193-0.303-0.28-0.204-0.836 0.186-0.989v0.001zM10.57 6.606c0.291-0.118 0.66 0.144 0.63 0.457 0.030 0.338-0.39 0.588-0.687 0.427-0.393-0.15-0.348-0.778 0.057-0.884zM21.128 7.499c-0.455-0.054-0.527-0.758-0.090-0.9 0.34-0.162 0.652 0.143 0.702 0.46-0.072 0.27-0.302 0.518-0.612 0.44zM11.743 8.764c0.487-0.303 1.181 0.148 1.106 0.705-0.025 0.561-0.783 0.887-1.211 0.507-0.414-0.298-0.351-0.982 0.105-1.212zM19.173 9.086c0.217-0.55 1.097-0.568 1.344-0.032 0.245 0.417-0.056 0.934-0.491 1.076-0.577 0.106-1.124-0.508-0.853-1.044zM15.104 10.099c-0.005-0.474 0.433-0.826 0.89-0.859 0.304 0.060 0.634 0.187 0.764 0.488 0.243 0.416 0.027 0.987-0.41 1.178-0.2 0.11-0.438 0.069-0.656 0.056-0.333-0.16-0.614-0.477-0.588-0.863zM7.438 10.789c0.445-0.27 1.045 0.22 0.876 0.696-0.092 0.411-0.654 0.578-0.975 0.316-0.343-0.246-0.289-0.837 0.1-1.013l-0.001 0.001zM23.9 10.787c0.377-0.288 1 0.043 0.954 0.511 0.026 0.427-0.513 0.75-0.887 0.53-0.412-0.183-0.455-0.807-0.067-1.040v-0.001zM17.26 11.638c0.622-0.22 1.362 0.043 1.716 0.59 0.468 0.667 0.22 1.683-0.507 2.066-0.752 0.453-1.851 0.070-2.13-0.758-0.315-0.74 0.145-1.666 0.92-1.898h0.001zM13.607 11.711c0.69-0.32 1.619-0.052 1.952 0.642 0.392 0.676 0.089 1.617-0.612 1.966-0.702 0.393-1.693 0.095-2.032-0.63-0.381-0.702-0.043-1.655 0.692-1.978zM9.95 12.94c0.053-0.437 0.472-0.722 0.895-0.752 0.221 0.023 0.427 0.121 0.585 0.276s0.258 0.36 0.285 0.581c-0.030 0.45-0.383 0.888-0.867 0.886-0.533 0.045-1-0.477-0.898-0.991zM20.752 12.284c0.547-0.313 1.306 0.142 1.282 0.76 0.037 0.655-0.803 1.116-1.347 0.732-0.566-0.32-0.522-1.22 0.065-1.492zM12.122 14.591c0.638-0.173 1.37 0.123 1.683 0.701 0.343 0.582 0.203 1.39-0.33 1.818-0.685 0.626-1.946 0.374-2.31-0.48-0.419-0.783 0.090-1.833 0.956-2.040l0.001 0.001zM19.049 14.588c0.621-0.175 1.351 0.060 1.685 0.617 0.442 0.637 0.231 1.588-0.426 1.998-0.69 0.477-1.756 0.227-2.136-0.519-0.46-0.771 0.003-1.861 0.877-2.096zM8.009 15.314c0.552-0.205 1.164 0.394 0.94 0.933-0.136 0.49-0.839 0.672-1.202 0.31-0.425-0.34-0.268-1.095 0.262-1.243zM22.978 16.096c-0.010-0.22 0.067-0.435 0.214-0.599s0.354-0.262 0.574-0.275c0.378 0.060 0.746 0.36 0.716 0.765 0.035 0.535-0.62 0.898-1.084 0.647-0.217-0.109-0.328-0.328-0.42-0.538zM5.294 15.58c0.332-0.143 0.743 0.14 0.667 0.503-0.018 0.411-0.635 0.57-0.861 0.226-0.2-0.239-0.080-0.606 0.194-0.73v0.001zM26.243 15.571c0.234-0.163 0.61-0.046 0.702 0.223 0.157 0.294-0.131 0.696-0.467 0.647-0.472 0.042-0.624-0.665-0.235-0.87zM13.926 17.544c0.874-0.223 1.814 0.494 1.82 1.38 0.056 0.895-0.87 1.688-1.764 1.482-0.692-0.11-1.235-0.766-1.212-1.453-0.002-0.658 0.502-1.27 1.156-1.409zM17.388 17.543c0.887-0.244 1.855 0.486 1.841 1.392 0.047 0.878-0.85 1.645-1.726 1.47-0.825-0.104-1.433-0.995-1.203-1.783 0.116-0.524 0.562-0.95 1.088-1.080v0.001zM10.712 18.088c0.614-0.103 1.19 0.57 0.941 1.144-0.182 0.612-1.086 0.777-1.486 0.278-0.468-0.48-0.118-1.356 0.545-1.422zM20.866 18.115c0.548-0.226 1.22 0.24 1.178 0.825 0.022 0.643-0.808 1.087-1.343 0.711-0.607-0.337-0.496-1.33 0.165-1.536zM23.704 20.915c-0.214-0.393 0.175-0.914 0.62-0.841 0.22-0.004 0.375 0.167 0.516 0.311 0.029 0.233 0.078 0.511-0.119 0.69-0.267 0.333-0.872 0.238-1.017-0.16zM7.436 20.183c0.415-0.271 1.012 0.134 0.918 0.61-0.050 0.423-0.59 0.664-0.945 0.424-0.382-0.217-0.368-0.836 0.027-1.034zM15.629 21.066c0.543-0.235 1.235 0.23 1.183 0.818 0.040 0.65-0.815 1.1-1.346 0.71-0.59-0.335-0.491-1.321 0.163-1.528zM11.835 21.937c0.462-0.239 1.082 0.174 1.040 0.684 0.014 0.418-0.4 0.774-0.82 0.712-0.347-0.007-0.573-0.314-0.685-0.605 0.006-0.317 0.139-0.67 0.465-0.79v-0.001zM19.521 21.945c0.476-0.29 1.152 0.126 1.107 0.67 0.012 0.57-0.752 0.934-1.195 0.56-0.428-0.293-0.376-0.997 0.088-1.23zM20.858 25.195c-0.212-0.314 0.037-0.693 0.38-0.765 0.277 0.055 0.57 0.26 0.511 0.574-0.040 0.427-0.674 0.557-0.891 0.192v-0.001zM10.247 24.922c0.084-0.25 0.288-0.497 0.587-0.432 0.435 0.030 0.564 0.676 0.183 0.875-0.342 0.227-0.74-0.084-0.77-0.443zM15.367 25.209c0.083-0.37 0.568-0.549 0.888-0.353 0.212 0.090 0.274 0.322 0.328 0.52-0.028 0.103-0.055 0.206-0.080 0.31-0.131 0.152-0.3 0.305-0.518 0.3-0.405 0.047-0.771-0.404-0.619-0.777h0.001z"></path>
<path fill="#fff" style="fill: var(--color1, #fff)" d="M15.725 6.060c0.479-0.247 1.064 0.324 0.81 0.795-0.149 0.384-0.71 0.486-0.996 0.193-0.303-0.28-0.204-0.836 0.186-0.989v0.001zM10.57 6.606c0.291-0.118 0.66 0.144 0.63 0.457 0.030 0.338-0.39 0.588-0.687 0.427-0.393-0.15-0.348-0.778 0.057-0.884zM21.128 7.499c-0.455-0.054-0.527-0.758-0.090-0.9 0.34-0.162 0.652 0.143 0.702 0.46-0.072 0.27-0.302 0.518-0.612 0.44zM11.743 8.764c0.487-0.303 1.181 0.148 1.106 0.705-0.025 0.561-0.783 0.887-1.211 0.507-0.414-0.298-0.351-0.982 0.105-1.212zM19.173 9.086c0.217-0.55 1.097-0.568 1.344-0.032 0.245 0.417-0.056 0.934-0.491 1.076-0.577 0.106-1.124-0.508-0.853-1.044zM15.104 10.099c-0.005-0.474 0.433-0.826 0.89-0.859 0.304 0.060 0.634 0.187 0.764 0.488 0.243 0.416 0.027 0.987-0.41 1.178-0.2 0.11-0.438 0.069-0.656 0.056-0.333-0.16-0.614-0.477-0.588-0.863zM7.438 10.789c0.445-0.27 1.045 0.22 0.876 0.696-0.092 0.411-0.654 0.578-0.975 0.316-0.343-0.246-0.289-0.837 0.1-1.013l-0.001 0.001zM23.9 10.787c0.377-0.288 1 0.043 0.954 0.511 0.026 0.427-0.513 0.75-0.887 0.53-0.412-0.183-0.455-0.807-0.067-1.040v-0.001zM17.26 11.638c0.622-0.22 1.362 0.043 1.716 0.59 0.468 0.667 0.22 1.683-0.507 2.066-0.752 0.453-1.851 0.070-2.13-0.758-0.315-0.74 0.145-1.666 0.92-1.898h0.001zM13.607 11.711c0.69-0.32 1.619-0.052 1.952 0.642 0.392 0.676 0.089 1.617-0.612 1.966-0.702 0.393-1.693 0.095-2.032-0.63-0.381-0.702-0.043-1.655 0.692-1.978zM9.95 12.94c0.053-0.437 0.472-0.722 0.895-0.752 0.221 0.023 0.427 0.121 0.585 0.276s0.258 0.36 0.285 0.581c-0.030 0.45-0.383 0.888-0.867 0.886-0.533 0.045-1-0.477-0.898-0.991zM20.752 12.284c0.547-0.313 1.306 0.142 1.282 0.76 0.037 0.655-0.803 1.116-1.347 0.732-0.566-0.32-0.522-1.22 0.065-1.492zM12.122 14.591c0.638-0.173 1.37 0.123 1.683 0.701 0.343 0.582 0.203 1.39-0.33 1.818-0.685 0.626-1.946 0.374-2.31-0.48-0.419-0.783 0.090-1.833 0.956-2.040l0.001 0.001zM19.049 14.588c0.621-0.175 1.351 0.060 1.685 0.617 0.442 0.637 0.231 1.588-0.426 1.998-0.69 0.477-1.756 0.227-2.136-0.519-0.46-0.771 0.003-1.861 0.877-2.096zM8.009 15.314c0.552-0.205 1.164 0.394 0.94 0.933-0.136 0.49-0.839 0.672-1.202 0.31-0.425-0.34-0.268-1.095 0.262-1.243zM22.978 16.096c-0.010-0.22 0.067-0.435 0.214-0.599s0.354-0.262 0.574-0.275c0.378 0.060 0.746 0.36 0.716 0.765 0.035 0.535-0.62 0.898-1.084 0.647-0.217-0.109-0.328-0.328-0.42-0.538zM5.294 15.58c0.332-0.143 0.743 0.14 0.667 0.503-0.018 0.411-0.635 0.57-0.861 0.226-0.2-0.239-0.080-0.606 0.194-0.73v0.001zM26.243 15.571c0.234-0.163 0.61-0.046 0.702 0.223 0.157 0.294-0.131 0.696-0.467 0.647-0.472 0.042-0.624-0.665-0.235-0.87zM13.926 17.544c0.874-0.223 1.814 0.494 1.82 1.38 0.056 0.895-0.87 1.688-1.764 1.482-0.692-0.11-1.235-0.766-1.212-1.453-0.002-0.658 0.502-1.27 1.156-1.409zM17.388 17.543c0.887-0.244 1.855 0.486 1.841 1.392 0.047 0.878-0.85 1.645-1.726 1.47-0.825-0.104-1.433-0.995-1.203-1.783 0.116-0.524 0.562-0.95 1.088-1.080v0.001zM10.712 18.088c0.614-0.103 1.19 0.57 0.941 1.144-0.182 0.612-1.086 0.777-1.486 0.278-0.468-0.48-0.118-1.356 0.545-1.422zM20.866 18.115c0.548-0.226 1.22 0.24 1.178 0.825 0.022 0.643-0.808 1.087-1.343 0.711-0.607-0.337-0.496-1.33 0.165-1.536zM23.704 20.915c-0.214-0.393 0.175-0.914 0.62-0.841 0.22-0.004 0.375 0.167 0.516 0.311 0.029 0.233 0.078 0.511-0.119 0.69-0.267 0.333-0.872 0.238-1.017-0.16zM7.436 20.183c0.415-0.271 1.012 0.134 0.918 0.61-0.050 0.423-0.59 0.664-0.945 0.424-0.382-0.217-0.368-0.836 0.027-1.034zM15.629 21.066c0.543-0.235 1.235 0.23 1.183 0.818 0.040 0.65-0.815 1.1-1.346 0.71-0.59-0.335-0.491-1.321 0.163-1.528zM11.835 21.937c0.462-0.239 1.082 0.174 1.040 0.684 0.014 0.418-0.4 0.774-0.82 0.712-0.347-0.007-0.573-0.314-0.685-0.605 0.006-0.317 0.139-0.67 0.465-0.79v-0.001zM19.521 21.945c0.476-0.29 1.152 0.126 1.107 0.67 0.012 0.57-0.752 0.934-1.195 0.56-0.428-0.293-0.376-0.997 0.088-1.23zM20.858 25.195c-0.212-0.314 0.037-0.693 0.38-0.765 0.277 0.055 0.57 0.26 0.511 0.574-0.040 0.427-0.674 0.557-0.891 0.192v-0.001zM10.247 24.922c0.084-0.25 0.288-0.497 0.587-0.432 0.435 0.030 0.564 0.676 0.183 0.875-0.342 0.227-0.74-0.084-0.77-0.443zM15.367 25.209c0.083-0.37 0.568-0.549 0.888-0.353 0.212 0.090 0.274 0.322 0.328 0.52-0.028 0.103-0.055 0.206-0.080 0.31-0.131 0.152-0.3 0.305-0.518 0.3-0.405 0.047-0.771-0.404-0.619-0.777h0.001z"></path>
</symbol>
<symbol id="icon-bnb_icon" viewBox="0 0 32 32">
<path fill="#f3ba2f" style="fill: var(--color36, #f3ba2f)" d="M16 32c8.837 0 16-7.163 16-16s-7.163-16-16-16c-8.837 0-16 7.163-16 16s7.163 16 16 16z"></path>
<path fill="#fff" style="fill: var(--color1, #fff)" d="M12.116 14.404l3.884-3.884 3.886 3.886 2.26-2.26-6.146-6.146-6.144 6.144 2.26 2.26zM6 16l2.26-2.26 2.26 2.26-2.26 2.26-2.26-2.26zM12.116 17.596l3.884 3.884 3.886-3.886 2.26 2.259-6.146 6.147-6.147-6.147 2.263-2.257zM21.48 16l2.26-2.26 2.26 2.26-2.26 2.26-2.26-2.26zM18.292 15.998h0.002v0.002l-2.294 2.294-2.295-2.294 0.004-0.003 0.401-0.402 1.89-1.889 2.292 2.292z"></path>
</symbol>
<symbol id="icon-hype_icon" viewBox="0 0 32 32">
<path fill="#072723" style="fill: var(--color37, #072723); stroke: var(--color38, #0f3933)" stroke="#0f3933" stroke-linejoin="miter" stroke-linecap="butt" stroke-miterlimit="4" stroke-width="0.5714" d="M31.714 16c0 8.679-7.036 15.714-15.714 15.714s-15.714-7.036-15.714-15.714c0-8.679 7.036-15.714 15.714-15.714s15.714 7.036 15.714 15.714z"></path>
<path fill="#97fce4" style="fill: var(--color39, #97fce4)" d="M28 15.893c0 7.582-4.856 10.015-7.414 7.849-2.106-1.766-2.732-5.499-5.9-5.882-4.020-0.483-4.368 4.633-7.014 4.633-3.080 0-3.672-4.283-3.672-6.482 0-2.25 0.661-5.316 3.289-5.316 3.063 0 3.237 4.383 7.066 4.149 3.811-0.25 3.881-4.816 6.353-6.766 2.158-1.683 7.292 0.133 7.292 7.815z"></path>
</symbol>
<symbol id="icon-Component-1" viewBox="0 0 32 32">
<path fill="#fff" style="fill: var(--color1, #fff)" d="M27.878 16.316c0 5.19-3.382 9.574-8.052 11.122-0.559 0.091-0.755-0.26-0.755-0.559 0-0.39 0.013-1.652 0.013-3.213 0-1.093-0.377-1.808-0.794-2.172 2.602-0.286 5.346-1.275 5.346-5.776 0-1.275-0.455-2.315-1.21-3.135 0.13-0.299 0.533-1.496-0.104-3.109 0 0-0.989-0.312-3.226 1.21-0.937-0.26-1.938-0.39-2.927-0.403-1.002 0.013-2.003 0.143-2.927 0.403-2.237-1.522-3.226-1.21-3.226-1.21-0.637 1.613-0.234 2.81-0.117 3.109-0.741 0.819-1.197 1.86-1.197 3.135 0 4.488 2.732 5.489 5.333 5.789-0.338 0.286-0.637 0.806-0.741 1.561-0.677 0.299-2.367 0.82-3.408-0.976 0 0-0.624-1.119-1.795-1.197 0 0-1.145-0.013-0.078 0.703 0 0 0.768 0.364 1.301 1.717 0 0 0.676 2.094 3.941 1.379 0 0.976 0.013 1.899 0.013 2.185s-0.208 0.65-0.755 0.559c-4.67-1.535-8.052-5.932-8.052-11.122 0-6.465 5.242-11.707 11.707-11.707s11.707 5.242 11.707 11.707z"></path>
</symbol>
</defs>
</svg>
